<svg width="478" height="403" viewBox="0 0 478 403" fill="none" xmlns="http://www.w3.org/2000/svg">
<path opacity="0.147414" fill-rule="evenodd" clip-rule="evenodd" d="M168 4C168 6.20914 169.791 8 172 8C174.209 8 176 6.20914 176 4C176 1.79086 174.209 0 172 0C169.791 0 168 1.79086 168 4ZM144 4C144 6.20914 145.791 8 148 8C150.209 8 152 6.20914 152 4C152 1.79086 150.209 0 148 0C145.791 0 144 1.79086 144 4ZM124 8C121.791 8 120 6.20914 120 4C120 1.79086 121.791 0 124 0C126.209 0 128 1.79086 128 4C128 6.20914 126.209 8 124 8ZM96 4C96 6.20914 97.7909 8 100 8C102.209 8 104 6.20914 104 4C104 1.79086 102.209 0 100 0C97.7909 0 96 1.79086 96 4ZM76 8C73.7909 8 72 6.20914 72 4C72 1.79086 73.7909 0 76 0C78.2091 0 80 1.79086 80 4C80 6.20914 78.2091 8 76 8ZM48 4C48 6.20914 49.7909 8 52 8C54.2091 8 56 6.20914 56 4C56 1.79086 54.2091 0 52 0C49.7909 0 48 1.79086 48 4ZM28 8C25.7909 8 24 6.20914 24 4C24 1.79086 25.7909 0 28 0C30.2091 0 32 1.79086 32 4C32 6.20914 30.2091 8 28 8ZM0 4C0 6.20914 1.79086 8 4 8C6.20914 8 8 6.20914 8 4C8 1.79086 6.20914 0 4 0C1.79086 0 0 1.79086 0 4ZM172 32C169.791 32 168 30.2091 168 28C168 25.7909 169.791 24 172 24C174.209 24 176 25.7909 176 28C176 30.2091 174.209 32 172 32ZM144 28C144 30.2091 145.791 32 148 32C150.209 32 152 30.2091 152 28C152 25.7909 150.209 24 148 24C145.791 24 144 25.7909 144 28ZM124 32C121.791 32 120 30.2091 120 28C120 25.7909 121.791 24 124 24C126.209 24 128 25.7909 128 28C128 30.2091 126.209 32 124 32ZM96 28C96 30.2091 97.7909 32 100 32C102.209 32 104 30.2091 104 28C104 25.7909 102.209 24 100 24C97.7909 24 96 25.7909 96 28ZM76 32C73.7909 32 72 30.2091 72 28C72 25.7909 73.7909 24 76 24C78.2091 24 80 25.7909 80 28C80 30.2091 78.2091 32 76 32ZM48 28C48 30.2091 49.7909 32 52 32C54.2091 32 56 30.2091 56 28C56 25.7909 54.2091 24 52 24C49.7909 24 48 25.7909 48 28ZM28 32C25.7909 32 24 30.2091 24 28C24 25.7909 25.7909 24 28 24C30.2091 24 32 25.7909 32 28C32 30.2091 30.2091 32 28 32ZM0 28C0 30.2091 1.79086 32 4 32C6.20914 32 8 30.2091 8 28C8 25.7909 6.20914 24 4 24C1.79086 24 0 25.7909 0 28ZM172 56C169.791 56 168 54.2091 168 52C168 49.7909 169.791 48 172 48C174.209 48 176 49.7909 176 52C176 54.2091 174.209 56 172 56ZM144 52C144 54.2091 145.791 56 148 56C150.209 56 152 54.2091 152 52C152 49.7909 150.209 48 148 48C145.791 48 144 49.7909 144 52ZM124 56C121.791 56 120 54.2091 120 52C120 49.7909 121.791 48 124 48C126.209 48 128 49.7909 128 52C128 54.2091 126.209 56 124 56ZM96 52C96 54.2091 97.7909 56 100 56C102.209 56 104 54.2091 104 52C104 49.7909 102.209 48 100 48C97.7909 48 96 49.7909 96 52ZM76 56C73.7909 56 72 54.2091 72 52C72 49.7909 73.7909 48 76 48C78.2091 48 80 49.7909 80 52C80 54.2091 78.2091 56 76 56ZM48 52C48 54.2091 49.7909 56 52 56C54.2091 56 56 54.2091 56 52C56 49.7909 54.2091 48 52 48C49.7909 48 48 49.7909 48 52ZM28 56C25.7909 56 24 54.2091 24 52C24 49.7909 25.7909 48 28 48C30.2091 48 32 49.7909 32 52C32 54.2091 30.2091 56 28 56ZM0 52C0 54.2091 1.79086 56 4 56C6.20914 56 8 54.2091 8 52C8 49.7909 6.20914 48 4 48C1.79086 48 0 49.7909 0 52ZM172 80C169.791 80 168 78.2091 168 76C168 73.7909 169.791 72 172 72C174.209 72 176 73.7909 176 76C176 78.2091 174.209 80 172 80ZM144 76C144 78.2091 145.791 80 148 80C150.209 80 152 78.2091 152 76C152 73.7909 150.209 72 148 72C145.791 72 144 73.7909 144 76ZM124 80C121.791 80 120 78.2091 120 76C120 73.7909 121.791 72 124 72C126.209 72 128 73.7909 128 76C128 78.2091 126.209 80 124 80ZM96 76C96 78.2091 97.7909 80 100 80C102.209 80 104 78.2091 104 76C104 73.7909 102.209 72 100 72C97.7909 72 96 73.7909 96 76ZM76 80C73.7909 80 72 78.2091 72 76C72 73.7909 73.7909 72 76 72C78.2091 72 80 73.7909 80 76C80 78.2091 78.2091 80 76 80ZM48 76C48 78.2091 49.7909 80 52 80C54.2091 80 56 78.2091 56 76C56 73.7909 54.2091 72 52 72C49.7909 72 48 73.7909 48 76ZM28 80C25.7909 80 24 78.2091 24 76C24 73.7909 25.7909 72 28 72C30.2091 72 32 73.7909 32 76C32 78.2091 30.2091 80 28 80ZM0 76C0 78.2091 1.79086 80 4 80C6.20914 80 8 78.2091 8 76C8 73.7909 6.20914 72 4 72C1.79086 72 0 73.7909 0 76ZM172 104C169.791 104 168 102.209 168 100C168 97.7909 169.791 96 172 96C174.209 96 176 97.7909 176 100C176 102.209 174.209 104 172 104ZM144 100C144 102.209 145.791 104 148 104C150.209 104 152 102.209 152 100C152 97.7909 150.209 96 148 96C145.791 96 144 97.7909 144 100ZM124 104C121.791 104 120 102.209 120 100C120 97.7909 121.791 96 124 96C126.209 96 128 97.7909 128 100C128 102.209 126.209 104 124 104ZM96 100C96 102.209 97.7909 104 100 104C102.209 104 104 102.209 104 100C104 97.7909 102.209 96 100 96C97.7909 96 96 97.7909 96 100ZM76 104C73.7909 104 72 102.209 72 100C72 97.7909 73.7909 96 76 96C78.2091 96 80 97.7909 80 100C80 102.209 78.2091 104 76 104ZM48 100C48 102.209 49.7909 104 52 104C54.2091 104 56 102.209 56 100C56 97.7909 54.2091 96 52 96C49.7909 96 48 97.7909 48 100ZM28 104C25.7909 104 24 102.209 24 100C24 97.7909 25.7909 96 28 96C30.2091 96 32 97.7909 32 100C32 102.209 30.2091 104 28 104ZM0 100C0 102.209 1.79086 104 4 104C6.20914 104 8 102.209 8 100C8 97.7909 6.20914 96 4 96C1.79086 96 0 97.7909 0 100ZM172 128C169.791 128 168 126.209 168 124C168 121.791 169.791 120 172 120C174.209 120 176 121.791 176 124C176 126.209 174.209 128 172 128ZM144 124C144 126.209 145.791 128 148 128C150.209 128 152 126.209 152 124C152 121.791 150.209 120 148 120C145.791 120 144 121.791 144 124ZM124 128C121.791 128 120 126.209 120 124C120 121.791 121.791 120 124 120C126.209 120 128 121.791 128 124C128 126.209 126.209 128 124 128ZM96 124C96 126.209 97.7909 128 100 128C102.209 128 104 126.209 104 124C104 121.791 102.209 120 100 120C97.7909 120 96 121.791 96 124ZM76 128C73.7909 128 72 126.209 72 124C72 121.791 73.7909 120 76 120C78.2091 120 80 121.791 80 124C80 126.209 78.2091 128 76 128ZM48 124C48 126.209 49.7909 128 52 128C54.2091 128 56 126.209 56 124C56 121.791 54.2091 120 52 120C49.7909 120 48 121.791 48 124ZM28 128C25.7909 128 24 126.209 24 124C24 121.791 25.7909 120 28 120C30.2091 120 32 121.791 32 124C32 126.209 30.2091 128 28 128ZM0 124C0 126.209 1.79086 128 4 128C6.20914 128 8 126.209 8 124C8 121.791 6.20914 120 4 120C1.79086 120 0 121.791 0 124ZM172 152C169.791 152 168 150.209 168 148C168 145.791 169.791 144 172 144C174.209 144 176 145.791 176 148C176 150.209 174.209 152 172 152ZM144 148C144 150.209 145.791 152 148 152C150.209 152 152 150.209 152 148C152 145.791 150.209 144 148 144C145.791 144 144 145.791 144 148ZM124 152C121.791 152 120 150.209 120 148C120 145.791 121.791 144 124 144C126.209 144 128 145.791 128 148C128 150.209 126.209 152 124 152ZM96 148C96 150.209 97.7909 152 100 152C102.209 152 104 150.209 104 148C104 145.791 102.209 144 100 144C97.7909 144 96 145.791 96 148ZM76 152C73.7909 152 72 150.209 72 148C72 145.791 73.7909 144 76 144C78.2091 144 80 145.791 80 148C80 150.209 78.2091 152 76 152ZM48 148C48 150.209 49.7909 152 52 152C54.2091 152 56 150.209 56 148C56 145.791 54.2091 144 52 144C49.7909 144 48 145.791 48 148ZM28 152C25.7909 152 24 150.209 24 148C24 145.791 25.7909 144 28 144C30.2091 144 32 145.791 32 148C32 150.209 30.2091 152 28 152ZM0 148C0 150.209 1.79086 152 4 152C6.20914 152 8 150.209 8 148C8 145.791 6.20914 144 4 144C1.79086 144 0 145.791 0 148ZM172 176C169.791 176 168 174.209 168 172C168 169.791 169.791 168 172 168C174.209 168 176 169.791 176 172C176 174.209 174.209 176 172 176ZM144 172C144 174.209 145.791 176 148 176C150.209 176 152 174.209 152 172C152 169.791 150.209 168 148 168C145.791 168 144 169.791 144 172ZM124 176C121.791 176 120 174.209 120 172C120 169.791 121.791 168 124 168C126.209 168 128 169.791 128 172C128 174.209 126.209 176 124 176ZM96 172C96 174.209 97.7909 176 100 176C102.209 176 104 174.209 104 172C104 169.791 102.209 168 100 168C97.7909 168 96 169.791 96 172ZM76 176C73.7909 176 72 174.209 72 172C72 169.791 73.7909 168 76 168C78.2091 168 80 169.791 80 172C80 174.209 78.2091 176 76 176ZM48 172C48 174.209 49.7909 176 52 176C54.2091 176 56 174.209 56 172C56 169.791 54.2091 168 52 168C49.7909 168 48 169.791 48 172ZM28 176C25.7909 176 24 174.209 24 172C24 169.791 25.7909 168 28 168C30.2091 168 32 169.791 32 172C32 174.209 30.2091 176 28 176ZM0 172C0 174.209 1.79086 176 4 176C6.20914 176 8 174.209 8 172C8 169.791 6.20914 168 4 168C1.79086 168 0 169.791 0 172Z" fill="#333333"/>
<path opacity="0.147414" fill-rule="evenodd" clip-rule="evenodd" d="M470 231C470 233.209 471.791 235 474 235C476.209 235 478 233.209 478 231C478 228.791 476.209 227 474 227C471.791 227 470 228.791 470 231ZM446 231C446 233.209 447.791 235 450 235C452.209 235 454 233.209 454 231C454 228.791 452.209 227 450 227C447.791 227 446 228.791 446 231ZM426 235C423.791 235 422 233.209 422 231C422 228.791 423.791 227 426 227C428.209 227 430 228.791 430 231C430 233.209 428.209 235 426 235ZM398 231C398 233.209 399.791 235 402 235C404.209 235 406 233.209 406 231C406 228.791 404.209 227 402 227C399.791 227 398 228.791 398 231ZM378 235C375.791 235 374 233.209 374 231C374 228.791 375.791 227 378 227C380.209 227 382 228.791 382 231C382 233.209 380.209 235 378 235ZM350 231C350 233.209 351.791 235 354 235C356.209 235 358 233.209 358 231C358 228.791 356.209 227 354 227C351.791 227 350 228.791 350 231ZM330 235C327.791 235 326 233.209 326 231C326 228.791 327.791 227 330 227C332.209 227 334 228.791 334 231C334 233.209 332.209 235 330 235ZM302 231C302 233.209 303.791 235 306 235C308.209 235 310 233.209 310 231C310 228.791 308.209 227 306 227C303.791 227 302 228.791 302 231ZM474 259C471.791 259 470 257.209 470 255C470 252.791 471.791 251 474 251C476.209 251 478 252.791 478 255C478 257.209 476.209 259 474 259ZM446 255C446 257.209 447.791 259 450 259C452.209 259 454 257.209 454 255C454 252.791 452.209 251 450 251C447.791 251 446 252.791 446 255ZM426 259C423.791 259 422 257.209 422 255C422 252.791 423.791 251 426 251C428.209 251 430 252.791 430 255C430 257.209 428.209 259 426 259ZM398 255C398 257.209 399.791 259 402 259C404.209 259 406 257.209 406 255C406 252.791 404.209 251 402 251C399.791 251 398 252.791 398 255ZM378 259C375.791 259 374 257.209 374 255C374 252.791 375.791 251 378 251C380.209 251 382 252.791 382 255C382 257.209 380.209 259 378 259ZM350 255C350 257.209 351.791 259 354 259C356.209 259 358 257.209 358 255C358 252.791 356.209 251 354 251C351.791 251 350 252.791 350 255ZM330 259C327.791 259 326 257.209 326 255C326 252.791 327.791 251 330 251C332.209 251 334 252.791 334 255C334 257.209 332.209 259 330 259ZM302 255C302 257.209 303.791 259 306 259C308.209 259 310 257.209 310 255C310 252.791 308.209 251 306 251C303.791 251 302 252.791 302 255ZM474 283C471.791 283 470 281.209 470 279C470 276.791 471.791 275 474 275C476.209 275 478 276.791 478 279C478 281.209 476.209 283 474 283ZM446 279C446 281.209 447.791 283 450 283C452.209 283 454 281.209 454 279C454 276.791 452.209 275 450 275C447.791 275 446 276.791 446 279ZM426 283C423.791 283 422 281.209 422 279C422 276.791 423.791 275 426 275C428.209 275 430 276.791 430 279C430 281.209 428.209 283 426 283ZM398 279C398 281.209 399.791 283 402 283C404.209 283 406 281.209 406 279C406 276.791 404.209 275 402 275C399.791 275 398 276.791 398 279ZM378 283C375.791 283 374 281.209 374 279C374 276.791 375.791 275 378 275C380.209 275 382 276.791 382 279C382 281.209 380.209 283 378 283ZM350 279C350 281.209 351.791 283 354 283C356.209 283 358 281.209 358 279C358 276.791 356.209 275 354 275C351.791 275 350 276.791 350 279ZM330 283C327.791 283 326 281.209 326 279C326 276.791 327.791 275 330 275C332.209 275 334 276.791 334 279C334 281.209 332.209 283 330 283ZM302 279C302 281.209 303.791 283 306 283C308.209 283 310 281.209 310 279C310 276.791 308.209 275 306 275C303.791 275 302 276.791 302 279ZM474 307C471.791 307 470 305.209 470 303C470 300.791 471.791 299 474 299C476.209 299 478 300.791 478 303C478 305.209 476.209 307 474 307ZM446 303C446 305.209 447.791 307 450 307C452.209 307 454 305.209 454 303C454 300.791 452.209 299 450 299C447.791 299 446 300.791 446 303ZM426 307C423.791 307 422 305.209 422 303C422 300.791 423.791 299 426 299C428.209 299 430 300.791 430 303C430 305.209 428.209 307 426 307ZM398 303C398 305.209 399.791 307 402 307C404.209 307 406 305.209 406 303C406 300.791 404.209 299 402 299C399.791 299 398 300.791 398 303ZM378 307C375.791 307 374 305.209 374 303C374 300.791 375.791 299 378 299C380.209 299 382 300.791 382 303C382 305.209 380.209 307 378 307ZM350 303C350 305.209 351.791 307 354 307C356.209 307 358 305.209 358 303C358 300.791 356.209 299 354 299C351.791 299 350 300.791 350 303ZM330 307C327.791 307 326 305.209 326 303C326 300.791 327.791 299 330 299C332.209 299 334 300.791 334 303C334 305.209 332.209 307 330 307ZM302 303C302 305.209 303.791 307 306 307C308.209 307 310 305.209 310 303C310 300.791 308.209 299 306 299C303.791 299 302 300.791 302 303ZM474 331C471.791 331 470 329.209 470 327C470 324.791 471.791 323 474 323C476.209 323 478 324.791 478 327C478 329.209 476.209 331 474 331ZM446 327C446 329.209 447.791 331 450 331C452.209 331 454 329.209 454 327C454 324.791 452.209 323 450 323C447.791 323 446 324.791 446 327ZM426 331C423.791 331 422 329.209 422 327C422 324.791 423.791 323 426 323C428.209 323 430 324.791 430 327C430 329.209 428.209 331 426 331ZM398 327C398 329.209 399.791 331 402 331C404.209 331 406 329.209 406 327C406 324.791 404.209 323 402 323C399.791 323 398 324.791 398 327ZM378 331C375.791 331 374 329.209 374 327C374 324.791 375.791 323 378 323C380.209 323 382 324.791 382 327C382 329.209 380.209 331 378 331ZM350 327C350 329.209 351.791 331 354 331C356.209 331 358 329.209 358 327C358 324.791 356.209 323 354 323C351.791 323 350 324.791 350 327ZM330 331C327.791 331 326 329.209 326 327C326 324.791 327.791 323 330 323C332.209 323 334 324.791 334 327C334 329.209 332.209 331 330 331ZM302 327C302 329.209 303.791 331 306 331C308.209 331 310 329.209 310 327C310 324.791 308.209 323 306 323C303.791 323 302 324.791 302 327ZM474 355C471.791 355 470 353.209 470 351C470 348.791 471.791 347 474 347C476.209 347 478 348.791 478 351C478 353.209 476.209 355 474 355ZM446 351C446 353.209 447.791 355 450 355C452.209 355 454 353.209 454 351C454 348.791 452.209 347 450 347C447.791 347 446 348.791 446 351ZM426 355C423.791 355 422 353.209 422 351C422 348.791 423.791 347 426 347C428.209 347 430 348.791 430 351C430 353.209 428.209 355 426 355ZM398 351C398 353.209 399.791 355 402 355C404.209 355 406 353.209 406 351C406 348.791 404.209 347 402 347C399.791 347 398 348.791 398 351ZM378 355C375.791 355 374 353.209 374 351C374 348.791 375.791 347 378 347C380.209 347 382 348.791 382 351C382 353.209 380.209 355 378 355ZM350 351C350 353.209 351.791 355 354 355C356.209 355 358 353.209 358 351C358 348.791 356.209 347 354 347C351.791 347 350 348.791 350 351ZM330 355C327.791 355 326 353.209 326 351C326 348.791 327.791 347 330 347C332.209 347 334 348.791 334 351C334 353.209 332.209 355 330 355ZM302 351C302 353.209 303.791 355 306 355C308.209 355 310 353.209 310 351C310 348.791 308.209 347 306 347C303.791 347 302 348.791 302 351ZM474 379C471.791 379 470 377.209 470 375C470 372.791 471.791 371 474 371C476.209 371 478 372.791 478 375C478 377.209 476.209 379 474 379ZM446 375C446 377.209 447.791 379 450 379C452.209 379 454 377.209 454 375C454 372.791 452.209 371 450 371C447.791 371 446 372.791 446 375ZM426 379C423.791 379 422 377.209 422 375C422 372.791 423.791 371 426 371C428.209 371 430 372.791 430 375C430 377.209 428.209 379 426 379ZM398 375C398 377.209 399.791 379 402 379C404.209 379 406 377.209 406 375C406 372.791 404.209 371 402 371C399.791 371 398 372.791 398 375ZM378 379C375.791 379 374 377.209 374 375C374 372.791 375.791 371 378 371C380.209 371 382 372.791 382 375C382 377.209 380.209 379 378 379ZM350 375C350 377.209 351.791 379 354 379C356.209 379 358 377.209 358 375C358 372.791 356.209 371 354 371C351.791 371 350 372.791 350 375ZM330 379C327.791 379 326 377.209 326 375C326 372.791 327.791 371 330 371C332.209 371 334 372.791 334 375C334 377.209 332.209 379 330 379ZM302 375C302 377.209 303.791 379 306 379C308.209 379 310 377.209 310 375C310 372.791 308.209 371 306 371C303.791 371 302 372.791 302 375ZM474 403C471.791 403 470 401.209 470 399C470 396.791 471.791 395 474 395C476.209 395 478 396.791 478 399C478 401.209 476.209 403 474 403ZM446 399C446 401.209 447.791 403 450 403C452.209 403 454 401.209 454 399C454 396.791 452.209 395 450 395C447.791 395 446 396.791 446 399ZM426 403C423.791 403 422 401.209 422 399C422 396.791 423.791 395 426 395C428.209 395 430 396.791 430 399C430 401.209 428.209 403 426 403ZM398 399C398 401.209 399.791 403 402 403C404.209 403 406 401.209 406 399C406 396.791 404.209 395 402 395C399.791 395 398 396.791 398 399ZM378 403C375.791 403 374 401.209 374 399C374 396.791 375.791 395 378 395C380.209 395 382 396.791 382 399C382 401.209 380.209 403 378 403ZM350 399C350 401.209 351.791 403 354 403C356.209 403 358 401.209 358 399C358 396.791 356.209 395 354 395C351.791 395 350 396.791 350 399ZM330 403C327.791 403 326 401.209 326 399C326 396.791 327.791 395 330 395C332.209 395 334 396.791 334 399C334 401.209 332.209 403 330 403ZM302 399C302 401.209 303.791 403 306 403C308.209 403 310 401.209 310 399C310 396.791 308.209 395 306 395C303.791 395 302 396.791 302 399Z" fill="#333333"/>
</svg>
