<svg width="1440" height="465" viewBox="0 0 1440 465" fill="none" xmlns="http://www.w3.org/2000/svg">
<path fill-rule="evenodd" clip-rule="evenodd" d="M478.345 -7.91383C695.905 64.28 552.865 152.03 695.905 218.24C838.944 284.451 1040 -7.91383 1040 -7.91383C1040 -7.91383 260.784 -80.1077 478.345 -7.91383Z" fill="#080808"/>
<path fill-rule="evenodd" clip-rule="evenodd" d="M436 0C452 136.319 684 84.3276 768.5 154.706C853 225.085 822 407.372 1056 424.491C1290 441.61 1290.5 306.815 1444 334.712C1444 334.712 1444 0 1444 0C1444 0 436 0 436 0Z" fill="url(#paint0_linear)"/>
<rect opacity="0.35" x="-26" y="228" width="60" height="60" rx="30" fill="url(#paint1_linear)"/>
<rect opacity="0.35" x="48" y="188" width="20" height="20" rx="10" fill="url(#paint2_linear)"/>
<rect opacity="0.35" x="176" y="222" width="20" height="20" rx="10" fill="url(#paint3_linear)"/>
<rect opacity="0.35" x="156" y="445" width="20" height="20" rx="10" fill="url(#paint4_linear)"/>
<rect opacity="0.35" x="407" y="378" width="20" height="20" rx="10" fill="url(#paint5_linear)"/>
<path opacity="0.35" fill-rule="evenodd" clip-rule="evenodd" d="M753.941 399.314L742.627 433.255L720 410.627L753.941 399.314Z" fill="url(#paint6_linear)"/>
<path opacity="0.35" fill-rule="evenodd" clip-rule="evenodd" d="M498.782 201.782L518.935 208.5L505.5 221.935L498.782 201.782Z" fill="url(#paint7_linear)"/>
<defs>
<linearGradient id="paint0_linear" x1="1488.8" y1="333.123" x2="1398.43" y2="-157.223" gradientUnits="userSpaceOnUse">
<stop stop-color="#1f2029"/>
<stop offset="1" stop-color="#343a40"/>
</linearGradient>
<linearGradient id="paint1_linear" x1="36.6664" y1="271.667" x2="4" y2="211.667" gradientUnits="userSpaceOnUse">
<stop stop-color="#59FDDF"/>
<stop offset="0.9996" stop-color="#2ECC71"/>
<stop offset="0.9997" stop-color="#41E2A1"/>
<stop offset="0.9998" stop-color="#2ECC71"/>
<stop offset="0.9999" stop-color="#3BDB92"/>
</linearGradient>
<linearGradient id="paint2_linear" x1="68.8888" y1="202.556" x2="58" y2="182.556" gradientUnits="userSpaceOnUse">
<stop stop-color="#59FDDF"/>
<stop offset="1" stop-color="#2ECC71"/>
</linearGradient>
<linearGradient id="paint3_linear" x1="196.889" y1="236.556" x2="186" y2="216.556" gradientUnits="userSpaceOnUse">
<stop stop-color="#59FDDF"/>
<stop offset="1" stop-color="#2ECC71"/>
</linearGradient>
<linearGradient id="paint4_linear" x1="176.889" y1="459.556" x2="166" y2="439.556" gradientUnits="userSpaceOnUse">
<stop stop-color="#59FDDF"/>
<stop offset="1" stop-color="#2ECC71"/>
</linearGradient>
<linearGradient id="paint5_linear" x1="427.889" y1="392.556" x2="417" y2="372.556" gradientUnits="userSpaceOnUse">
<stop stop-color="#59FDDF"/>
<stop offset="1" stop-color="#2ECC71"/>
</linearGradient>
<linearGradient id="paint6_linear" x1="757.47" y1="427.927" x2="767.43" y2="377.625" gradientUnits="userSpaceOnUse">
<stop stop-color="#59FDDF"/>
<stop offset="1" stop-color="#2ECC71"/>
</linearGradient>
<linearGradient id="paint7_linear" x1="515.771" y1="199.687" x2="485.905" y2="193.773" gradientUnits="userSpaceOnUse">
<stop stop-color="#59FDDF"/>
<stop offset="1" stop-color="#2ECC71"/>
</linearGradient>
</defs>
</svg>
