<?xml version="1.0" encoding="utf-8"?>
<!-- Generator: Adobe Illustrator 16.0.4, SVG Export Plug-In . SVG Version: 6.00 Build 0)  -->
<!DOCTYPE svg PUBLIC "-//W3C//DTD SVG 1.1//EN" "http://www.w3.org/Graphics/SVG/1.1/DTD/svg11.dtd">
<svg version="1.1" id="Layer_1" xmlns="http://www.w3.org/2000/svg" xmlns:xlink="http://www.w3.org/1999/xlink" x="0px" y="0px"
	 width="478px" height="403px" viewBox="0 0 478 403" enable-background="new 0 0 478 403" xml:space="preserve">
<path opacity="0.1474" fill="#03F1C5" enable-background="new    " d="M470,4c0,2.209,1.791,4,4,4s4-1.791,4-4s-1.791-4-4-4
	S470,1.791,470,4z M446,4c0,2.209,1.791,4,4,4s4-1.791,4-4s-1.791-4-4-4S446,1.791,446,4z M426,8c-2.209,0-4-1.791-4-4s1.791-4,4-4
	s4,1.791,4,4S428.209,8,426,8z M398,4c0,2.209,1.791,4,4,4s4-1.791,4-4s-1.791-4-4-4S398,1.791,398,4z M378,8c-2.209,0-4-1.791-4-4
	s1.791-4,4-4s4,1.791,4,4S380.209,8,378,8z M350,4c0,2.209,1.791,4,4,4s4-1.791,4-4s-1.791-4-4-4S350,1.791,350,4z M330,8
	c-2.209,0-4-1.791-4-4s1.791-4,4-4s4,1.791,4,4S332.209,8,330,8z M302,4c0,2.209,1.791,4,4,4s4-1.791,4-4s-1.791-4-4-4
	S302,1.791,302,4z M474,32c-2.209,0-4-1.791-4-4s1.791-4,4-4s4,1.791,4,4S476.209,32,474,32z M446,28c0,2.209,1.791,4,4,4
	s4-1.791,4-4s-1.791-4-4-4S446,25.791,446,28z M426,32c-2.209,0-4-1.791-4-4s1.791-4,4-4s4,1.791,4,4S428.209,32,426,32z M398,28
	c0,2.209,1.791,4,4,4s4-1.791,4-4s-1.791-4-4-4S398,25.791,398,28z M378,32c-2.209,0-4-1.791-4-4s1.791-4,4-4s4,1.791,4,4
	S380.209,32,378,32z M350,28c0,2.209,1.791,4,4,4s4-1.791,4-4s-1.791-4-4-4S350,25.791,350,28z M330,32c-2.209,0-4-1.791-4-4
	s1.791-4,4-4s4,1.791,4,4S332.209,32,330,32z M302,28c0,2.209,1.791,4,4,4s4-1.791,4-4s-1.791-4-4-4S302,25.791,302,28z M474,56
	c-2.209,0-4-1.791-4-4s1.791-4,4-4s4,1.791,4,4S476.209,56,474,56z M446,52c0,2.209,1.791,4,4,4s4-1.791,4-4s-1.791-4-4-4
	S446,49.791,446,52z M426,56c-2.209,0-4-1.791-4-4s1.791-4,4-4s4,1.791,4,4S428.209,56,426,56z M398,52c0,2.209,1.791,4,4,4
	s4-1.791,4-4s-1.791-4-4-4S398,49.791,398,52z M378,56c-2.209,0-4-1.791-4-4s1.791-4,4-4s4,1.791,4,4S380.209,56,378,56z M350,52
	c0,2.209,1.791,4,4,4s4-1.791,4-4s-1.791-4-4-4S350,49.791,350,52z M330,56c-2.209,0-4-1.791-4-4s1.791-4,4-4s4,1.791,4,4
	S332.209,56,330,56z M302,52c0,2.209,1.791,4,4,4s4-1.791,4-4s-1.791-4-4-4S302,49.791,302,52z M474,80c-2.209,0-4-1.791-4-4
	s1.791-4,4-4s4,1.791,4,4S476.209,80,474,80z M446,76c0,2.209,1.791,4,4,4s4-1.791,4-4s-1.791-4-4-4S446,73.791,446,76z M426,80
	c-2.209,0-4-1.791-4-4s1.791-4,4-4s4,1.791,4,4S428.209,80,426,80z M398,76c0,2.209,1.791,4,4,4s4-1.791,4-4s-1.791-4-4-4
	S398,73.791,398,76z M378,80c-2.209,0-4-1.791-4-4s1.791-4,4-4s4,1.791,4,4S380.209,80,378,80z M350,76c0,2.209,1.791,4,4,4
	s4-1.791,4-4s-1.791-4-4-4S350,73.791,350,76z M330,80c-2.209,0-4-1.791-4-4s1.791-4,4-4s4,1.791,4,4S332.209,80,330,80z M302,76
	c0,2.209,1.791,4,4,4s4-1.791,4-4s-1.791-4-4-4S302,73.791,302,76z M474,104c-2.209,0-4-1.791-4-4s1.791-4,4-4s4,1.791,4,4
	S476.209,104,474,104z M446,100c0,2.209,1.791,4,4,4s4-1.791,4-4s-1.791-4-4-4S446,97.791,446,100z M426,104c-2.209,0-4-1.791-4-4
	s1.791-4,4-4s4,1.791,4,4S428.209,104,426,104z M398,100c0,2.209,1.791,4,4,4s4-1.791,4-4s-1.791-4-4-4S398,97.791,398,100z
	 M378,104c-2.209,0-4-1.791-4-4s1.791-4,4-4s4,1.791,4,4S380.209,104,378,104z M350,100c0,2.209,1.791,4,4,4s4-1.791,4-4
	s-1.791-4-4-4S350,97.791,350,100z M330,104c-2.209,0-4-1.791-4-4s1.791-4,4-4s4,1.791,4,4S332.209,104,330,104z M302,100
	c0,2.209,1.791,4,4,4s4-1.791,4-4s-1.791-4-4-4S302,97.791,302,100z M474,128c-2.209,0-4-1.791-4-4s1.791-4,4-4s4,1.791,4,4
	S476.209,128,474,128z M446,124c0,2.209,1.791,4,4,4s4-1.791,4-4s-1.791-4-4-4S446,121.791,446,124z M426,128c-2.209,0-4-1.791-4-4
	s1.791-4,4-4s4,1.791,4,4S428.209,128,426,128z M398,124c0,2.209,1.791,4,4,4s4-1.791,4-4s-1.791-4-4-4S398,121.791,398,124z
	 M378,128c-2.209,0-4-1.791-4-4s1.791-4,4-4s4,1.791,4,4S380.209,128,378,128z M350,124c0,2.209,1.791,4,4,4s4-1.791,4-4
	s-1.791-4-4-4S350,121.791,350,124z M330,128c-2.209,0-4-1.791-4-4s1.791-4,4-4s4,1.791,4,4S332.209,128,330,128z M302,124
	c0,2.209,1.791,4,4,4s4-1.791,4-4s-1.791-4-4-4S302,121.791,302,124z M474,152c-2.209,0-4-1.791-4-4s1.791-4,4-4s4,1.791,4,4
	S476.209,152,474,152z M446,148c0,2.209,1.791,4,4,4s4-1.791,4-4s-1.791-4-4-4S446,145.791,446,148z M426,152c-2.209,0-4-1.791-4-4
	s1.791-4,4-4s4,1.791,4,4S428.209,152,426,152z M398,148c0,2.209,1.791,4,4,4s4-1.791,4-4s-1.791-4-4-4S398,145.791,398,148z
	 M378,152c-2.209,0-4-1.791-4-4s1.791-4,4-4s4,1.791,4,4S380.209,152,378,152z M350,148c0,2.209,1.791,4,4,4s4-1.791,4-4
	s-1.791-4-4-4S350,145.791,350,148z M330,152c-2.209,0-4-1.791-4-4s1.791-4,4-4s4,1.791,4,4S332.209,152,330,152z M302,148
	c0,2.209,1.791,4,4,4s4-1.791,4-4s-1.791-4-4-4S302,145.791,302,148z M474,176c-2.209,0-4-1.791-4-4s1.791-4,4-4s4,1.791,4,4
	S476.209,176,474,176z M446,172c0,2.209,1.791,4,4,4s4-1.791,4-4s-1.791-4-4-4S446,169.791,446,172z M426,176c-2.209,0-4-1.791-4-4
	s1.791-4,4-4s4,1.791,4,4S428.209,176,426,176z M398,172c0,2.209,1.791,4,4,4s4-1.791,4-4s-1.791-4-4-4S398,169.791,398,172z
	 M378,176c-2.209,0-4-1.791-4-4s1.791-4,4-4s4,1.791,4,4S380.209,176,378,176z M350,172c0,2.209,1.791,4,4,4s4-1.791,4-4
	s-1.791-4-4-4S350,169.791,350,172z M330,176c-2.209,0-4-1.791-4-4s1.791-4,4-4s4,1.791,4,4S332.209,176,330,176z M302,172
	c0,2.209,1.791,4,4,4s4-1.791,4-4s-1.791-4-4-4S302,169.791,302,172z"/>
<path opacity="0.1474" fill="#03F1C5" enable-background="new    " d="M168,231c0,2.209,1.791,4,4,4s4-1.791,4-4s-1.791-4-4-4
	S168,228.791,168,231z M144,231c0,2.209,1.791,4,4,4s4-1.791,4-4s-1.791-4-4-4S144,228.791,144,231z M124,235c-2.209,0-4-1.791-4-4
	s1.791-4,4-4s4,1.791,4,4S126.209,235,124,235z M96,231c0,2.209,1.791,4,4,4s4-1.791,4-4s-1.791-4-4-4S96,228.791,96,231z M76,235
	c-2.209,0-4-1.791-4-4s1.791-4,4-4s4,1.791,4,4S78.209,235,76,235z M48,231c0,2.209,1.791,4,4,4s4-1.791,4-4s-1.791-4-4-4
	S48,228.791,48,231z M28,235c-2.209,0-4-1.791-4-4s1.791-4,4-4s4,1.791,4,4S30.209,235,28,235z M0,231c0,2.209,1.791,4,4,4
	s4-1.791,4-4s-1.791-4-4-4S0,228.791,0,231z M172,259c-2.209,0-4-1.791-4-4s1.791-4,4-4s4,1.791,4,4S174.209,259,172,259z M144,255
	c0,2.209,1.791,4,4,4s4-1.791,4-4s-1.791-4-4-4S144,252.791,144,255z M124,259c-2.209,0-4-1.791-4-4s1.791-4,4-4s4,1.791,4,4
	S126.209,259,124,259z M96,255c0,2.209,1.791,4,4,4s4-1.791,4-4s-1.791-4-4-4S96,252.791,96,255z M76,259c-2.209,0-4-1.791-4-4
	s1.791-4,4-4s4,1.791,4,4S78.209,259,76,259z M48,255c0,2.209,1.791,4,4,4s4-1.791,4-4s-1.791-4-4-4S48,252.791,48,255z M28,259
	c-2.209,0-4-1.791-4-4s1.791-4,4-4s4,1.791,4,4S30.209,259,28,259z M0,255c0,2.209,1.791,4,4,4s4-1.791,4-4s-1.791-4-4-4
	S0,252.791,0,255z M172,283c-2.209,0-4-1.791-4-4s1.791-4,4-4s4,1.791,4,4S174.209,283,172,283z M144,279c0,2.209,1.791,4,4,4
	s4-1.791,4-4s-1.791-4-4-4S144,276.791,144,279z M124,283c-2.209,0-4-1.791-4-4s1.791-4,4-4s4,1.791,4,4S126.209,283,124,283z
	 M96,279c0,2.209,1.791,4,4,4s4-1.791,4-4s-1.791-4-4-4S96,276.791,96,279z M76,283c-2.209,0-4-1.791-4-4s1.791-4,4-4s4,1.791,4,4
	S78.209,283,76,283z M48,279c0,2.209,1.791,4,4,4s4-1.791,4-4s-1.791-4-4-4S48,276.791,48,279z M28,283c-2.209,0-4-1.791-4-4
	s1.791-4,4-4s4,1.791,4,4S30.209,283,28,283z M0,279c0,2.209,1.791,4,4,4s4-1.791,4-4s-1.791-4-4-4S0,276.791,0,279z M172,307
	c-2.209,0-4-1.791-4-4s1.791-4,4-4s4,1.791,4,4S174.209,307,172,307z M144,303c0,2.209,1.791,4,4,4s4-1.791,4-4s-1.791-4-4-4
	S144,300.791,144,303z M124,307c-2.209,0-4-1.791-4-4s1.791-4,4-4s4,1.791,4,4S126.209,307,124,307z M96,303c0,2.209,1.791,4,4,4
	s4-1.791,4-4s-1.791-4-4-4S96,300.791,96,303z M76,307c-2.209,0-4-1.791-4-4s1.791-4,4-4s4,1.791,4,4S78.209,307,76,307z M48,303
	c0,2.209,1.791,4,4,4s4-1.791,4-4s-1.791-4-4-4S48,300.791,48,303z M28,307c-2.209,0-4-1.791-4-4s1.791-4,4-4s4,1.791,4,4
	S30.209,307,28,307z M0,303c0,2.209,1.791,4,4,4s4-1.791,4-4s-1.791-4-4-4S0,300.791,0,303z M172,331c-2.209,0-4-1.791-4-4
	s1.791-4,4-4s4,1.791,4,4S174.209,331,172,331z M144,327c0,2.209,1.791,4,4,4s4-1.791,4-4s-1.791-4-4-4S144,324.791,144,327z
	 M124,331c-2.209,0-4-1.791-4-4s1.791-4,4-4s4,1.791,4,4S126.209,331,124,331z M96,327c0,2.209,1.791,4,4,4s4-1.791,4-4
	s-1.791-4-4-4S96,324.791,96,327z M76,331c-2.209,0-4-1.791-4-4s1.791-4,4-4s4,1.791,4,4S78.209,331,76,331z M48,327
	c0,2.209,1.791,4,4,4s4-1.791,4-4s-1.791-4-4-4S48,324.791,48,327z M28,331c-2.209,0-4-1.791-4-4s1.791-4,4-4s4,1.791,4,4
	S30.209,331,28,331z M0,327c0,2.209,1.791,4,4,4s4-1.791,4-4s-1.791-4-4-4S0,324.791,0,327z M172,355c-2.209,0-4-1.791-4-4
	s1.791-4,4-4s4,1.791,4,4S174.209,355,172,355z M144,351c0,2.209,1.791,4,4,4s4-1.791,4-4s-1.791-4-4-4S144,348.791,144,351z
	 M124,355c-2.209,0-4-1.791-4-4s1.791-4,4-4s4,1.791,4,4S126.209,355,124,355z M96,351c0,2.209,1.791,4,4,4s4-1.791,4-4
	s-1.791-4-4-4S96,348.791,96,351z M76,355c-2.209,0-4-1.791-4-4s1.791-4,4-4s4,1.791,4,4S78.209,355,76,355z M48,351
	c0,2.209,1.791,4,4,4s4-1.791,4-4s-1.791-4-4-4S48,348.791,48,351z M28,355c-2.209,0-4-1.791-4-4s1.791-4,4-4s4,1.791,4,4
	S30.209,355,28,355z M0,351c0,2.209,1.791,4,4,4s4-1.791,4-4s-1.791-4-4-4S0,348.791,0,351z M172,379c-2.209,0-4-1.791-4-4
	s1.791-4,4-4s4,1.791,4,4S174.209,379,172,379z M144,375c0,2.209,1.791,4,4,4s4-1.791,4-4s-1.791-4-4-4S144,372.791,144,375z
	 M124,379c-2.209,0-4-1.791-4-4s1.791-4,4-4s4,1.791,4,4S126.209,379,124,379z M96,375c0,2.209,1.791,4,4,4s4-1.791,4-4
	s-1.791-4-4-4S96,372.791,96,375z M76,379c-2.209,0-4-1.791-4-4s1.791-4,4-4s4,1.791,4,4S78.209,379,76,379z M48,375
	c0,2.209,1.791,4,4,4s4-1.791,4-4s-1.791-4-4-4S48,372.791,48,375z M28,379c-2.209,0-4-1.791-4-4s1.791-4,4-4s4,1.791,4,4
	S30.209,379,28,379z M0,375c0,2.209,1.791,4,4,4s4-1.791,4-4s-1.791-4-4-4S0,372.791,0,375z M172,403c-2.209,0-4-1.791-4-4
	s1.791-4,4-4s4,1.791,4,4S174.209,403,172,403z M144,399c0,2.209,1.791,4,4,4s4-1.791,4-4s-1.791-4-4-4S144,396.791,144,399z
	 M124,403c-2.209,0-4-1.791-4-4s1.791-4,4-4s4,1.791,4,4S126.209,403,124,403z M96,399c0,2.209,1.791,4,4,4s4-1.791,4-4
	s-1.791-4-4-4S96,396.791,96,399z M76,403c-2.209,0-4-1.791-4-4s1.791-4,4-4s4,1.791,4,4S78.209,403,76,403z M48,399
	c0,2.209,1.791,4,4,4s4-1.791,4-4s-1.791-4-4-4S48,396.791,48,399z M28,403c-2.209,0-4-1.791-4-4s1.791-4,4-4s4,1.791,4,4
	S30.209,403,28,403z M0,399c0,2.209,1.791,4,4,4s4-1.791,4-4s-1.791-4-4-4S0,396.791,0,399z"/>
</svg>
