<?xml version="1.0" encoding="utf-8"?>
<!-- Generator: Adobe Illustrator 16.0.0, SVG Export Plug-In . SVG Version: 6.00 Build 0)  -->
<!DOCTYPE svg PUBLIC "-//W3C//DTD SVG 1.1//EN" "http://www.w3.org/Graphics/SVG/1.1/DTD/svg11.dtd">
<svg version="1.1" id="Layer_1" xmlns="http://www.w3.org/2000/svg" xmlns:xlink="http://www.w3.org/1999/xlink" x="0px" y="0px"
	 width="1920px" height="154.393px" viewBox="0 77.107 1920 154.393" enable-background="new 0 77.107 1920 154.393"
	 xml:space="preserve">
<g>
	<g>
		<defs>
			<rect id="SVGID_1_" x="-15.786" y="-528.607" width="1975.714" height="778.607"/>
		</defs>
		<clipPath id="SVGID_2_">
			<use xlink:href="#SVGID_1_"  overflow="visible"/>
		</clipPath>
		<g id="a" clip-path="url(#SVGID_2_)">
			<g transform="translate(540 189)">
				<path fill="#F0EFF3" d="M1456.121,70.356c18.792,75.473-240.938,194.408-756.864,341.865
					c-10.561,3.015-21.294,5.909-32.206,8.669c-269.52,68.177-647.263,58.427-956.265-69.835
					c-46.638-19.317-89.247-40.356-127.338-62.87c-5.385-3.179-10.649-6.378-15.792-9.594
					c-14.842-9.301-28.705-18.715-41.588-28.236C-631,134.223-637.125,5.334-465.113-71.079
					c42.728-18.985,91.059-27.874,143.958-29.958l0.016-0.006c96.434-3.799,208.07,15.038,328.752,36.675
					c26.368,4.728,53.176,9.593,80.357,14.382C200.048-30.243,318.329-11.752,438.368-9.039c18.879,0.442,37.796,0.464,56.681,0.059
					c9.434-0.191,18.867-0.507,28.299-0.938C1133.864-37.793,1437.113-5.898,1456.121,70.356z"/>
			</g>
		</g>
	</g>
</g>
</svg>
