<svg xmlns="http://www.w3.org/2000/svg" xmlns:xlink="http://www.w3.org/1999/xlink" width="1920" height="1080" viewBox="0 0 1920 1080"><defs><clipPath id="b"><rect width="1920" height="1080"/></clipPath></defs><g id="a" clip-path="url(#b)"><g transform="translate(540 189)"><path d="M1815.337,1773.216c-110.117,131.839-479.075,137.431-1067.478,8.867q-18.058-3.954-35.86-8.867C419.022,1692.131,179.761,1412.849,179.761,995.2a1078.955,1078.955,0,0,1,16.3-187.866q2.3-13.141,4.943-26.123,7.671-37.506,17.856-73.469c82.886-292.411,288.481-499.423,529-499.423,59.746,0,106.857,19.785,145.977,53.471h.021c71.316,61.406,116.061,169.04,162.362,287.4,10.121,25.857,20.306,52.246,30.874,78.768,43.574,109.365,93.369,221.1,170.033,309.24a527.621,527.621,0,0,0,38.183,39.7q10.036,9.427,20.647,18.294C1773.66,1377.938,1926.583,1639.992,1815.337,1773.216Z" transform="matrix(0.695, -0.719, 0.719, 0.695, -1118.182, 997.4)" fill="#f0eff3"/></g></g></svg>