<?xml version="1.0" encoding="utf-8"?>
<!-- Generator: Adobe Illustrator 21.0.0, SVG Export Plug-In . SVG Version: 6.00 Build 0)  -->
<svg version="1.1" id="Layer_1" xmlns="http://www.w3.org/2000/svg" xmlns:xlink="http://www.w3.org/1999/xlink" x="0px" y="0px"
	 viewBox="0 0 512 512" style="enable-background:new 0 0 512 512;" xml:space="preserve">
<g>
	<g>
		<g>
			<path style="fill:#e74c3c;" d="M467.278,195.713l-2.084-4.065l-2.083-4.065c-2.841-5.543-8.085-9.619-14.765-11.475
				c-6.24-1.735-13.37-1.489-20.19,0.865c-28.446,9.817-55.011,28.39-73.971,43.971c-24.369,20.026-50.951,37.733-79.369,52.299
				l-39.62,21.875l6.49,12.661l6.49,12.662l39.62-21.875c28.418-14.566,58.314-25.808,88.8-33.899
				c23.719-6.295,54.309-17.018,78.887-34.379c5.893-4.163,10.255-9.808,12.49-15.886
				C470.366,207.893,470.119,201.256,467.278,195.713z"/>
		</g>
	</g>
	<g>
		<g>
			<g>
				<path style="fill:#efedf5;" d="M193.643,260.547H6.719c-3.71,0-6.719,3.007-6.719,6.719v33.128c0,3.711,3.008,6.719,6.719,6.719
					h186.924c3.71,0,6.719-3.007,6.719-6.719v-33.128C200.362,263.554,197.354,260.547,193.643,260.547z M186.924,293.675H13.438
					v-19.691h173.487V293.675z"/>
			</g>
		</g>
	</g>
	<g>
		<g>
			<g>
				<path style="fill:#efedf5;" d="M200.197,298.916c-0.691-3.066-3.413-5.242-6.555-5.242H6.724c-3.139,0-5.858,2.172-6.553,5.234
					c-0.694,3.06,0.823,6.194,3.655,7.548c0.173,0.081,17.408,8.678,21.937,23.597c2.387,7.867,0.857,16.478-4.547,25.585
					C-2.083,394.845,3.561,436.866,35.261,460.2c1.154,0.849,2.549,1.308,3.983,1.308H161.1c1.433,0,2.827-0.457,3.981-1.306
					c31.719-23.33,37.372-65.351,14.066-104.571c-2.154-3.622-3.713-7.217-4.63-10.686c-0.171-0.645-0.435-1.26-0.787-1.826
					c-2.769-4.462-3.804-9.785-2.915-14.99c1.589-9.302,8.919-16.462,18.24-17.818c0.992-0.145,1.939-0.508,2.771-1.065
					c2.735-1.833,4.696-2.782,4.699-2.784C199.362,305.114,200.887,301.98,200.197,298.916z M158.83,448.07H41.515
					c-24.299-19.279-27.885-53.363-8.744-85.573c7.411-12.491,9.379-24.721,5.85-36.348c-2.358-7.766-6.878-14.113-11.665-19.039
					h140.192c-4.912,4.993-8.335,11.469-9.58,18.757c-1.385,8.105,0.113,16.397,4.22,23.466c1.254,4.368,3.207,8.794,5.808,13.167
					C186.738,394.711,183.147,428.797,158.83,448.07z"/>
			</g>
		</g>
	</g>
	<g>
		<g>
			<path style="fill:#efedf5;" d="M98.415,59.978l-9.517-9.486c-13.993,13.991-32.083,50.444-0.399,88.259l10.299-8.63
				C67.209,92.419,97.125,61.283,98.415,59.978z"/>
		</g>
	</g>
	<g>
		<g>
			<path style="fill:#efedf5;" d="M117.051,90.09l-9.501,9.501c1.296,1.297,31.386,32.19-0.4,70.128l10.301,8.63
				C149.133,140.533,131.043,104.081,117.051,90.09z"/>
		</g>
	</g>
	<g>
		<g>
			<path style="fill:#efedf5;" d="M76.782,155.552l-9.517-9.485c-13.992,13.991-32.082,50.444-0.4,88.259l10.301-8.63
				C45.577,187.994,75.494,156.858,76.782,155.552z"/>
		</g>
	</g>
	<g>
		<g>
			<g>
				<path style="fill:#efedf5;" d="M473.257,192.65l-4.167-8.132c-3.707-7.233-10.435-12.519-18.945-14.886
					c-7.617-2.117-16.207-1.767-24.18,0.989c-30.102,10.386-57.969,30.276-76.046,45.131
					c-24.563,20.185-50.864,37.516-78.351,51.609l-39.619,21.873c-3.178,1.754-4.388,5.715-2.733,8.945l12.979,25.325
					c0.83,1.618,2.279,2.83,4.018,3.362c0.642,0.197,1.302,0.293,1.962,0.293c1.125,0,2.244-0.282,3.248-0.838l39.437-21.777
					c27.306-13.998,56.733-25.23,87.459-33.386c22.611-5.999,55.027-17.009,81.039-35.385c6.893-4.866,12.191-11.635,14.921-19.056
					C477.328,208.428,476.965,199.881,473.257,192.65z M461.669,212.081c-1.799,4.888-5.372,9.407-10.062,12.718
					c-24.383,17.223-55.187,27.654-76.734,33.373c-31.654,8.403-61.982,19.981-90.326,34.513l-33.553,18.525l-6.848-13.359
					l33.734-18.628c28.158-14.433,55.266-32.295,80.571-53.09c17.226-14.155,43.682-33.074,71.899-42.809
					c5.427-1.876,11.181-2.137,16.196-0.744c4.851,1.347,8.611,4.212,10.585,8.066l4.169,8.132
					C463.275,202.632,463.405,207.356,461.669,212.081z"/>
			</g>
		</g>
	</g>
	<g>
		<g>
			<g>
				<path style="fill:#efedf5;" d="M508.963,169.215c-3.366-6.568-9.087-11.43-16.109-13.694c-7.023-2.261-14.506-1.654-21.073,1.71
					c-13.554,6.948-18.928,23.627-11.981,37.181c4.887,9.533,14.587,15.021,24.627,15.021c4.236,0,8.533-0.978,12.554-3.038
					C510.534,199.448,515.909,182.769,508.963,169.215z M490.85,194.437c-6.959,3.569-15.524,0.809-19.092-6.152
					s-0.807-15.526,6.153-19.094c2.032-1.043,4.235-1.57,6.455-1.57c1.462,0,2.933,0.229,4.365,0.691
					c3.605,1.164,6.544,3.659,8.272,7.031C500.572,182.305,497.811,190.87,490.85,194.437z"/>
			</g>
		</g>
	</g>
	<g>
		<g>
			<g>
				<path style="fill:#efedf5;" d="M254.157,317.388l-12.972-25.327c-0.834-1.629-2.298-2.85-4.052-3.375
					c-1.752-0.523-3.646-0.311-5.239,0.59l-25.394,14.383c-1.947,1.102-3.216,3.101-3.388,5.332c-0.172,2.231,0.779,4.4,2.535,5.787
					c5.967,4.713,9.042,12.324,8.026,19.865c-0.338,2.507,0.761,4.991,2.842,6.426c1.144,0.79,2.478,1.19,3.816,1.19
					c1.098,0,2.199-0.269,3.202-0.811l27.845-15.091C254.588,324.619,255.822,320.636,254.157,317.388z M226.538,324.535
					c-1.024-4.825-3.052-9.407-5.953-13.409l11.835-6.703l6.785,13.247L226.538,324.535z"/>
			</g>
		</g>
	</g>
	<g>
		<g>
			<g>
				<path style="fill:#efedf5;" d="M220.847,311.476c-5.423-7.657-13.502-12.742-22.75-14.321c-9.251-1.579-18.556,0.54-26.213,5.96
					c-7.656,5.424-12.742,13.503-14.32,22.75c-1.58,9.249,0.537,18.558,5.96,26.215c5.423,7.655,13.502,12.74,22.75,14.319
					c1.998,0.341,3.999,0.51,5.985,0.51c7.208,0,14.226-2.22,20.228-6.469c7.656-5.424,12.742-13.503,14.32-22.75
					C228.387,328.442,226.27,319.131,220.847,311.476z M213.562,335.427c-2.011,11.789-13.248,19.737-25.026,17.727
					c-5.711-0.975-10.698-4.116-14.047-8.842c-3.347-4.727-4.654-10.474-3.68-16.185c1.802-10.557,10.997-18.037,21.365-18.037
					c1.208,0,2.432,0.101,3.661,0.311c5.709,0.975,10.698,4.116,14.047,8.843C213.23,323.969,214.536,329.717,213.562,335.427z"/>
			</g>
		</g>
	</g>
</g>
</svg>
