<?xml version="1.0" encoding="utf-8"?>
<!-- Generator: Adobe Illustrator 21.0.0, SVG Export Plug-In . SVG Version: 6.00 Build 0)  -->
<svg version="1.1" id="Layer_1" xmlns="http://www.w3.org/2000/svg" xmlns:xlink="http://www.w3.org/1999/xlink" x="0px" y="0px"
	 viewBox="0 0 512 512" style="enable-background:new 0 0 512 512;" xml:space="preserve">
<g>
	<g>
		<g>
			<rect x="124.564" y="234.684" style="fill:#e74c3c;" width="201.038" height="222.6"/>
		</g>
	</g>
	<g>
		<g>
			<path style="fill:#e74c3c;" d="M244.532,13.585c-13.499-8.161-30.704-8.161-44.203,0c-6.909,4.177-13.506,10.771-16.494,21.16
				h77.192C258.039,24.356,251.442,17.762,244.532,13.585z"/>
		</g>
	</g>
	<g>
		<g>
			<path style="fill:#e74c3c;" d="M379.148,162.882l-21.594,5.878v33.166l21.956-5.8c19.769-5.223,39.126,9.685,39.126,30.132
				v147.695c0,20.447-19.357,35.355-39.126,30.132l-21.956-5.8v33.166l21.594,5.878c35.305,9.61,70.087-16.97,70.087-53.56V216.441
				C449.235,179.852,414.453,153.272,379.148,162.882z"/>
		</g>
	</g>
	<g>
		<g>
			<g>
				<path style="fill:#efedf5;" d="M325.602,140.495H95.976c-2.829,0-5.419,1.59-6.697,4.113c-1.28,2.523-1.034,5.551,0.638,7.834
					l27.137,37.064v267.777c0,4.148,3.363,7.51,7.51,7.51h201.038c4.148,0,7.51-3.363,7.51-7.51V148.005
					C333.113,143.858,329.75,140.495,325.602,140.495z M318.092,449.773H132.075V187.051c0-1.595-0.508-3.15-1.451-4.437
					l-19.841-27.098h207.309V449.773z"/>
			</g>
		</g>
	</g>
	<g>
		<g>
			<path style="fill:#efedf5;" d="M396.411,499.535l-31.347-35.721V263.504h-15.021v203.139c0,1.823,0.663,3.584,1.865,4.954
				l22.274,25.382h-27.558l-18.773-22.529c-1.427-1.713-3.541-2.703-5.77-2.703h-74.331c-4.147,0-7.51,3.363-7.51,7.51v17.721
				h-26.951v-17.721c0-4.148-3.363-7.51-7.51-7.51h-74.33c-2.229,0-4.343,0.99-5.77,2.703l-18.775,22.529H79.348l22.273-25.383
				c1.203-1.369,1.865-3.13,1.865-4.953V263.504H88.466v200.311L57.12,499.536c-1.945,2.216-2.413,5.365-1.197,8.052
				c1.216,2.686,3.893,4.412,6.842,4.412h47.657c2.228,0,4.343-0.99,5.77-2.703l18.775-22.529h63.301v17.721
				c0,4.148,3.363,7.51,7.51,7.51h41.972c4.148,0,7.51-3.363,7.51-7.51v-17.721h63.303l18.773,22.529
				c1.427,1.713,3.541,2.703,5.77,2.703h47.659c2.948,0,5.625-1.726,6.842-4.412C398.823,504.902,398.355,501.753,396.411,499.535z"
				/>
		</g>
	</g>
	<g>
		<g>
			<g>
				<path style="fill:#efedf5;" d="M347.202,109.572c-0.959-2.294-24.662-56.208-124.772-56.208
					c-100.109,0-123.811,53.914-124.771,56.208c-0.969,2.319-0.716,4.968,0.677,7.06c1.392,2.091,3.738,3.348,6.251,3.348h235.685
					c2.513,0,4.859-1.257,6.251-3.348C347.918,114.54,348.171,111.891,347.202,109.572z M118.555,104.96
					c11.807-13.841,40.805-36.575,103.875-36.575c63.44,0,92.283,22.713,103.978,36.575H118.555z"/>
			</g>
		</g>
	</g>
	<g>
		<g>
			<rect x="214.92" y="34.745" style="fill:#efedf5;" width="15.021" height="26.13"/>
		</g>
	</g>
	<g>
		<g>
			<g>
				<path style="fill:#efedf5;" d="M268.245,32.668c-3.126-10.863-9.797-19.447-19.827-25.51c-15.786-9.544-36.19-9.543-51.974,0
					c-10.031,6.063-16.703,14.647-19.828,25.51c-0.651,2.268-0.2,4.71,1.219,6.594c1.418,1.885,3.64,2.994,6,2.994h77.193
					c2.359,0,4.582-1.109,6-2.994C268.446,37.378,268.897,34.935,268.245,32.668z M195.918,27.234
					c2.194-2.794,4.965-5.209,8.296-7.222c0.001,0,0.001,0,0.001,0c11.066-6.691,25.366-6.689,36.432,0
					c3.331,2.013,6.102,4.427,8.296,7.222H195.918z"/>
			</g>
		</g>
	</g>
	<g>
		<g>
			<rect x="219.254" y="148.005" style="fill:#efedf5;" width="15.021" height="255.814"/>
		</g>
	</g>
	<g>
		<g>
			<g>
				<path style="fill:#efedf5;" d="M294.606,396.309H154.845c-4.148,0-7.51,3.363-7.51,7.51v22.749c0,4.148,3.363,7.51,7.51,7.51
					h139.761c4.148,0,7.51-3.363,7.51-7.51V403.82C302.117,399.672,298.754,396.309,294.606,396.309z M287.096,419.058h-124.74
					v-7.728h124.74V419.058z"/>
			</g>
		</g>
	</g>
	<g>
		<g>
			<g>
				<path style="fill:#efedf5;" d="M431.991,166.369c-15.733-12.022-35.71-15.936-54.816-10.734l-21.595,5.878
					c-3.269,0.89-5.538,3.858-5.538,7.246v33.166c0,2.33,1.082,4.529,2.928,5.951c1.844,1.42,4.251,1.907,6.501,1.31l21.958-5.8
					c7.152-1.887,14.614-0.384,20.474,4.129c5.861,4.513,9.223,11.344,9.223,18.742v147.694c0,7.398-3.362,14.229-9.222,18.743
					c-5.861,4.512-13.322,6.019-20.476,4.129l-21.957-5.8c-2.249-0.594-4.656-0.111-6.501,1.31
					c-1.846,1.422-2.928,3.621-2.928,5.951v33.166c0,3.388,2.269,6.356,5.539,7.246l21.594,5.877
					c5.54,1.508,11.153,2.25,16.715,2.25c13.62,0,26.932-4.448,38.101-12.984c15.732-12.021,24.755-30.271,24.755-50.072V216.442
					C456.745,196.642,447.723,178.391,431.991,166.369z M441.724,383.769c0,15.081-6.872,28.98-18.854,38.137
					c-11.981,9.157-27.193,12.136-41.751,8.175l-16.056-4.37v-17.675l12.528,3.309c11.691,3.089,23.893,0.627,33.478-6.751
					c9.581-7.38,15.077-18.549,15.077-30.643V226.258c0-12.094-5.496-23.263-15.078-30.643c-9.581-7.378-21.784-9.838-33.476-6.75
					l-12.528,3.309v-17.675l16.057-4.371c14.55-3.959,29.769-0.979,41.75,8.175c11.982,9.157,18.854,23.058,18.854,38.139V383.769z"
					/>
			</g>
		</g>
	</g>
</g>
</svg>
