<?xml version="1.0" encoding="utf-8"?>
<!-- Generator: Adobe Illustrator 21.0.0, SVG Export Plug-In . SVG Version: 6.00 Build 0)  -->
<svg version="1.1" id="Layer_1" xmlns="http://www.w3.org/2000/svg" xmlns:xlink="http://www.w3.org/1999/xlink" x="0px" y="0px"
	 viewBox="0 0 512 512" style="enable-background:new 0 0 512 512;" xml:space="preserve">
<g>
	<g>
		<g>
			<g>
				<path style="fill:#e74c3c;" d="M332.706,218.514c-6.746-8.655-9.676-19.648-7.687-30.399l14.272-77.194h-166.59l14.272,77.194
					c1.989,10.751-0.968,21.744-7.66,30.399c-10.079,12.928-15.966,28.544-15.966,45.37c0,32.576,22.067,60.637,53.864,73.458
					c0,0,0.027,0,0.027,0.027c1.505,0.672,37.871,16.422,75.151-0.027c1.882-0.807,3.79-1.264,5.671-1.371
					c3.951-2.123,8.144-4.005,11.988-6.397c6.397-3.978,12.337-8.843,17.525-14.326c10.052-10.67,17.256-24.002,19.917-38.489
					c0.779-4.22,1.183-8.547,1.183-12.875C348.671,247.059,342.758,231.442,332.706,218.514z M244.707,188.357l-37.871-11.961
					l11.961-37.844l37.871,11.961L244.707,188.357z M275.348,232.894l-7.66-30.641l30.641-7.66l7.66,30.641L275.348,232.894z"/>
			</g>
		</g>
	</g>
	<g>
		<g>
			<g>
				<path style="fill:#efedf5;" d="M332.949,189.585L360.49,40.711c0.436-2.356-0.198-4.782-1.73-6.624
					c-1.532-1.843-3.803-2.907-6.198-2.907H159.439c-2.395,0-4.667,1.064-6.198,2.907c-1.532,1.841-2.165,4.268-1.73,6.624
					l27.541,148.871c1.53,8.269-0.699,17.005-6.117,23.964c-11.553,14.842-17.66,32.25-17.66,50.341
					c0,34.445,22.745,65.969,58.027,80.561c8.86,6.457,19.063,19.694,19.063,46.403v80.771c0,4.453,3.61,8.063,8.063,8.063h31.427
					c4.453,0,8.063-3.61,8.063-8.063v-80.771c0-11.879,2.114-22.331,6.284-31.065c2.293-4.805,5.146-8.794,8.477-11.859
					c3.041-2.794,7.067-4.834,11.33-6.994c2.711-1.373,5.513-2.793,8.273-4.504c7.012-4.351,13.456-9.617,19.155-15.656
					c11.516-12.207,19.119-26.92,21.988-42.548c0.864-4.706,1.302-9.529,1.302-14.338c0-18.09-6.107-35.498-17.66-50.341
					c-5.418-6.961-7.647-15.695-6.118-23.962C332.948,189.585,332.948,189.585,332.949,189.585z M326.341,223.452
					c9.327,11.985,14.258,25.967,14.258,40.435c0,3.834-0.349,7.679-1.037,11.427c-2.306,12.561-8.481,24.454-17.857,34.392
					c-4.739,5.024-10.098,9.403-15.926,13.019c-2.167,1.344-4.542,2.547-7.058,3.822c-5.053,2.559-10.277,5.206-14.959,9.51
					c-4.855,4.465-8.931,10.111-12.116,16.782c-5.213,10.921-7.856,23.71-7.856,38.012v72.707h-15.3v-72.707
					c0-34.372-14.505-51.673-26.673-60.134c-0.496-0.345-1.03-0.634-1.591-0.86c-29.66-11.951-48.825-37.846-48.825-65.969
					c0-14.469,4.931-28.452,14.258-40.435c8.246-10.594,11.617-24.008,9.25-36.804L169.131,47.307h173.739L317.091,186.65
					C314.722,199.443,318.094,212.857,326.341,223.452z"/>
			</g>
		</g>
	</g>
	<g>
		<g>
			<path style="fill:#efedf5;" d="M292.382,329.967c-34.384,15.149-71.523,0.176-71.811,0.054l-0.251,0.555l-3.12-1.294v8.136
				l-5.653,5.653c0.688,0.689,1.494,1.245,2.379,1.647c0.28,0.126,19.556,8.109,44.546,8.109c12.587,0,26.626-2.026,40.413-8.103
				L292.382,329.967z"/>
		</g>
	</g>
	<g>
		<g>
			<g>
				<path style="fill:#efedf5;" d="M320.005,497.473l-43.33-32.315c-1.393-1.038-3.083-1.6-4.82-1.6h-31.427
					c-1.609,0-3.183,0.482-4.516,1.383l-47.81,32.315c-2.936,1.984-4.231,5.653-3.194,9.041c1.038,3.389,4.167,5.702,7.71,5.702
					h122.567c3.475,0,6.558-2.226,7.653-5.524C323.931,503.178,322.789,499.551,320.005,497.473z M218.946,495.873l23.951-16.188
					h26.281l21.707,16.188H218.946z"/>
			</g>
		</g>
	</g>
	<g>
		<g>
			<g>
				<path style="fill:#efedf5;" d="M356.87,32.428C354.775,31.104,305.01,0,256,0s-98.775,31.104-100.87,32.428
					c-2.794,1.765-4.227,5.058-3.616,8.306l13.489,71.685c0.717,3.811,4.046,6.573,7.924,6.573h166.144
					c3.878,0,7.206-2.761,7.924-6.573l13.49-71.685C361.097,37.486,359.664,34.193,356.87,32.428z M332.383,102.865H179.615
					L168.41,43.317c13.066-7.398,51.407-27.19,87.59-27.19s74.523,19.792,87.59,27.19L332.383,102.865z"/>
			</g>
		</g>
	</g>
</g>
</svg>
