<?xml version="1.0" encoding="utf-8"?>
<!-- Generator: Adobe Illustrator 21.0.0, SVG Export Plug-In . SVG Version: 6.00 Build 0)  -->
<svg version="1.1" id="Layer_1" xmlns="http://www.w3.org/2000/svg" xmlns:xlink="http://www.w3.org/1999/xlink" x="0px" y="0px"
	 viewBox="0 0 512 512" style="enable-background:new 0 0 512 512;" xml:space="preserve">
<g>
	<g>
		<g>
			<path style="fill:#e74c3c;" d="M135.431,210.698l94.847,97.662c14.082,14.5,37.361,14.5,51.443,0l94.847-97.662H135.431z"/>
		</g>
	</g>
	<g>
		<g>
			<polygon style="fill:#f39c12;" points="67.767,141.026 135.431,210.698 376.569,210.698 444.234,141.026 			"/>
		</g>
	</g>
	<g>
		<g>
			<g>
				<path style="fill:#efedf5;" d="M296.773,304.274l153.246-157.623c2.26-2.326,2.91-5.778,1.648-8.764
					c-1.262-2.988-4.191-4.929-7.433-4.929H67.766c-3.242,0-6.171,1.941-7.433,4.929c-1.262,2.986-0.613,6.439,1.648,8.764
					l153.246,157.623c11.802,12.139,18.302,28.149,18.302,45.079v76.527c0,18.052-9.875,34.576-25.773,43.127l-51.723,27.818
					c-3.257,1.751-4.906,5.492-4.003,9.077c0.903,3.585,4.127,6.097,7.824,6.097h192.291c3.697,0,6.921-2.512,7.824-6.097
					c0.904-3.586-0.746-7.326-4.003-9.077l-51.724-27.818c-15.898-8.55-25.773-25.076-25.773-43.127v-76.527
					C278.47,332.423,284.971,316.414,296.773,304.274z M296.601,483.219l23.509,12.644H191.891l23.508-12.644
					c21.136-11.367,34.267-33.339,34.267-57.338v-76.527c0-21.155-8.122-41.159-22.87-56.328L86.864,149.095h338.271
					l-139.933,143.93c-14.748,15.169-22.87,35.174-22.87,56.328v76.527C262.333,449.88,275.464,471.851,296.601,483.219z"/>
			</g>
		</g>
	</g>
	<g>
		<g>
			<g>
				<path style="fill:#efedf5;" d="M333.893,41.348c-44.39-24.585-89.677-40.255-91.582-40.91c-2.771-0.952-5.835-0.328-8.013,1.628
					c-2.179,1.955-3.125,4.938-2.477,7.791c8.691,38.22-37.077,56.518-97.812,76.468c-23.737,7.795-38.91,18.886-45.096,32.959
					c-5.822,13.243-1.341,23.897-0.81,25.068c1.307,2.886,4.181,4.741,7.35,4.741H409.88c3.849,0,7.162-2.72,7.914-6.494
					C424.306,109.857,396.078,75.79,333.893,41.348z M102.108,132.958c0.017-1.987,0.385-4.468,1.576-7.177
					c2.932-6.67,11.446-16.27,35.359-24.124c49.249-16.176,109.486-35.962,110.059-81.523c16.465,6.298,47.372,18.92,77.135,35.422
					c35.339,19.592,75.867,48.357,76.314,77.402H102.108z"/>
			</g>
		</g>
	</g>
	<g>
		<g>
			<path style="fill:#efedf5;" d="M245.91,2.933l-12.444,10.272c0.224,0.272,22.371,27.508,15.11,53.952
				c-4.655,16.953-20.715,30.467-47.733,40.168l5.453,15.189c32.253-11.581,51.714-28.768,57.841-51.083
				C273.592,36.995,247.045,4.307,245.91,2.933z"/>
		</g>
	</g>
	<g>
		<g>
			<path style="fill:#efedf5;" d="M242.427,3.807l-2.359,15.964c2.687,0.397,65.755,10.713,60.036,96.587l16.1,1.072
				C322.902,16.873,243.234,3.926,242.427,3.807z"/>
		</g>
	</g>
</g>
</svg>
