<?xml version="1.0" encoding="utf-8"?>
<!-- Generator: Adobe Illustrator 21.0.0, SVG Export Plug-In . SVG Version: 6.00 Build 0)  -->
<svg version="1.1" id="Layer_1" xmlns="http://www.w3.org/2000/svg" xmlns:xlink="http://www.w3.org/1999/xlink" x="0px" y="0px"
	 viewBox="0 0 512 512" style="enable-background:new 0 0 512 512;" xml:space="preserve">
<g>
	<g>
		<g>
			<path style="fill:#e74c3c;" d="M443.693,71.032c0,0-22.286-53.005-92.94-49.933c-55.294-32.767-123.901,17.407-123.901,17.407
				C159.27,26.218,92.71,92.775,92.71,92.775s-66.559,66.556-54.272,134.137c0,0-50.176,68.605-17.409,123.898
				c-3.073,70.653,49.933,92.94,49.933,92.94s18.859,49.492,78.364,58.341l20.052-20.051l-11.701-40.558l8.756-74.287l35.599-54.51
				l55.295-55.293l55.296-55.293l54.512-35.598l74.289-8.754l40.558,11.701l20.052-20.052
				C493.187,89.892,443.693,71.032,443.693,71.032z"/>
		</g>
	</g>
	<g>
		<g>
			<g>
				<path style="fill:#efedf5;" d="M211.623,310.188c-0.703-2.703-2.516-4.982-4.99-6.279L43.036,218.136
					c-4.348-2.284-9.703-1.032-12.6,2.926c-0.545,0.748-13.51,18.625-22.342,43.781c-12.055,34.336-10.529,65.809,4.41,91.018
					c1.584,2.673,4.329,4.448,7.416,4.795l145.403,16.384c0.371,0.042,0.742,0.063,1.113,0.063c3.319,0,6.452-1.669,8.294-4.49
					l35.601-54.509C211.856,315.766,212.327,312.891,211.623,310.188z M161.474,356.663L27.252,341.539
					c-19.236-38.465,4.084-84.31,14.578-101.658l145.941,76.518L161.474,356.663z"/>
			</g>
		</g>
	</g>
	<g>
		<g>
			<g>
				<path style="fill:#efedf5;" d="M174.197,361.036c-1.639-2.066-4.036-3.394-6.655-3.689L22.139,340.963
					c-2.745-0.306-5.465,0.531-7.552,2.316c-2.087,1.786-3.339,4.357-3.458,7.1c-3.336,76.663,53.566,101.487,55.988,102.507
					c1.216,0.511,2.523,0.774,3.842,0.774c0.087,0,0.174-0.002,0.258-0.003l86.718-2.269c4.926-0.129,9.007-3.855,9.584-8.747
					l8.755-74.287C176.584,365.734,175.836,363.1,174.197,361.036z M148.838,431.798l-75.769,1.984
					c-8.058-4.136-39.972-23.513-42.143-71.885l124.499,14.029L148.838,431.798z"/>
			</g>
		</g>
	</g>
	<g>
		<g>
			<g>
				<path style="fill:#efedf5;" d="M178.9,479.293l-11.7-40.559c-1.252-4.334-5.307-7.231-9.781-7.16l-86.718,2.27
					c-3.213,0.084-6.187,1.721-7.974,4.39c-1.79,2.671-2.171,6.042-1.029,9.045c0.855,2.242,21.671,55.022,86.169,64.612
					c0.487,0.073,0.974,0.108,1.458,0.108c2.61,0,5.136-1.031,7.007-2.902l20.052-20.05
					C178.936,486.496,179.9,482.759,178.9,479.293z M145.948,491.454c-31.714-6.234-49.646-25.18-58.524-38.222l62.856-1.645
					l7.955,27.579L145.948,491.454z"/>
			</g>
		</g>
	</g>
	<g>
		<g>
			<g>
				<path style="fill:#efedf5;" d="M321.4,197.496L235.63,33.904c-1.419-2.703-4.003-4.602-7.003-5.149
					C156.735,15.694,88.566,82.9,85.702,85.766c0,0,0,0,0,0.002c-2.868,2.866-70.079,71.053-57.014,142.917
					c0.545,3.003,2.445,5.587,5.148,7.003l163.597,85.771c1.452,0.763,3.032,1.134,4.597,1.134c2.568,0,5.107-0.999,7.01-2.902
					l110.589-110.586C322.697,206.039,323.413,201.336,321.4,197.496z M200.178,300.522l-152.703-80.06
					c-7.371-60.011,51.523-119.959,52.243-120.684c0.826-0.824,60.598-59.662,120.683-52.235l80.06,152.701L200.178,300.522z"/>
			</g>
		</g>
	</g>
	<g>
		<g>
			<g>
				<path style="fill:#efedf5;" d="M376.981,165.39L360.6,19.989c-0.348-3.087-2.123-5.833-4.797-7.416
					c-60.237-35.694-131.783,15.726-134.799,17.934c-3.961,2.897-5.207,8.255-2.929,12.6l85.769,163.592
					c1.297,2.473,3.578,4.286,6.281,4.989c0.823,0.214,1.661,0.319,2.497,0.319c1.906,0,3.794-0.55,5.419-1.613l54.511-35.597
					C375.685,172.75,377.401,169.111,376.981,165.39z M316.335,187.837L239.811,41.882c17.32-10.52,63.079-33.878,101.67-14.56
					l15.12,134.22L316.335,187.837z"/>
			</g>
		</g>
	</g>
	<g>
		<g>
			<g>
				<path style="fill:#efedf5;" d="M452.828,67.192c-1.016-2.424-25.952-59.311-102.505-55.993
					c-2.745,0.119-5.316,1.371-7.103,3.458c-1.784,2.087-2.623,4.823-2.316,7.552l16.381,145.401
					c0.297,2.619,1.623,5.015,3.69,6.653c1.761,1.397,3.932,2.147,6.158,2.147c0.384,0,0.774-0.023,1.158-0.068l74.292-8.753
					c4.894-0.578,8.62-4.658,8.749-9.582l2.268-86.715C453.634,69.885,453.373,68.489,452.828,67.192z M431.744,148.909
					l-55.878,6.584L361.839,30.997c48.43,2.174,67.795,34.157,71.885,42.141L431.744,148.909z"/>
			</g>
		</g>
	</g>
	<g>
		<g>
			<g>
				<path style="fill:#efedf5;" d="M511.839,147.938c-9.594-64.5-62.375-85.313-64.617-86.166c-3.003-1.147-6.378-0.763-9.045,1.027
					c-2.671,1.789-4.307,4.761-4.39,7.973l-2.268,86.714c-0.119,4.51,2.826,8.531,7.161,9.781l40.559,11.7
					c0.903,0.261,1.829,0.389,2.745,0.389c2.59,0,5.123-1.018,7.007-2.902l20.052-20.05
					C511.261,154.184,512.3,151.043,511.839,147.938z M479.112,158.305l-27.581-7.957l1.645-62.853
					c13.042,8.877,31.991,26.808,38.223,58.522L479.112,158.305z"/>
			</g>
		</g>
	</g>
</g>
</svg>
