<?xml version="1.0" encoding="utf-8"?>
<!-- Generator: Adobe Illustrator 21.0.0, SVG Export Plug-In . SVG Version: 6.00 Build 0)  -->
<svg version="1.1" id="Layer_1" xmlns="http://www.w3.org/2000/svg" xmlns:xlink="http://www.w3.org/1999/xlink" x="0px" y="0px"
	 viewBox="0 0 512 512" style="enable-background:new 0 0 512 512;" xml:space="preserve">
<g>
	<g>
		<g>
			<g>
				<path style="fill:#efedf5;" d="M411.328,120.072c-1.615-1.774-3.901-2.786-6.301-2.786H106.973
					c-2.399,0-4.686,1.012-6.301,2.786c-1.613,1.776-2.403,4.148-2.176,6.536l31.948,335.695c0.416,4.371,4.086,7.709,8.477,7.709
					h234.158c4.391,0,8.061-3.338,8.477-7.709l31.948-335.695C413.731,124.221,412.941,121.848,411.328,120.072z M365.335,452.982
					H146.665l-30.328-318.664h279.326L365.335,452.982z"/>
			</g>
		</g>
	</g>
	<g>
		<g>
			<g>
				<path style="fill:#efedf5;" d="M373.233,452.982H138.921c-4.703,0-8.516,3.813-8.516,8.516v41.987
					c0,4.703,3.813,8.516,8.516,8.516h234.312c4.703,0,8.516-3.813,8.516-8.516v-41.987
					C381.749,456.795,377.936,452.982,373.233,452.982z M364.717,494.969H147.437v-24.955h217.281V494.969z"/>
			</g>
		</g>
	</g>
	<g>
		<g>
			<g>
				<path style="fill:#efedf5;" d="M442.039,80.113l-32.386-32.903L392.927,5.356C391.635,2.121,388.503,0,385.02,0H126.98
					c-3.483,0-6.615,2.121-7.907,5.356l-16.727,41.855L69.961,80.113c-1.568,1.593-2.446,3.738-2.446,5.974v39.715
					c0,4.703,3.813,8.516,8.516,8.516H435.97c4.703,0,8.516-3.813,8.516-8.516V86.087C444.485,83.851,443.607,81.706,442.039,80.113
					z M427.454,117.286H84.546V89.574l31.141-31.639c0.793-0.807,1.418-1.763,1.838-2.814l15.223-38.091h246.505l15.223,38.091
					c0.42,1.051,1.045,2.007,1.838,2.814l31.141,31.639V117.286z"/>
			</g>
		</g>
	</g>
	<g>
		<g>
			<rect x="109.618" y="43.446" style="fill:#efedf5;" width="292.765" height="17.031"/>
		</g>
	</g>
	<g>
		<g>
			<rect x="76.03" y="77.571" style="fill:#efedf5;" width="359.939" height="17.031"/>
		</g>
	</g>
	<g>
		<g>
			<polygon style="fill:#e74c3c;" points="88.543,192.883 107.799,388.331 404.201,388.331 423.457,192.883 			"/>
		</g>
	</g>
	<g>
		<g>
			<g>
				<path style="fill:#efedf5;" d="M429.766,187.164c-1.613-1.781-3.906-2.797-6.309-2.797H88.543c-2.404,0-4.696,1.016-6.309,2.797
					c-1.615,1.781-2.4,4.161-2.165,6.553l19.256,195.448c0.428,4.359,4.094,7.681,8.474,7.681h296.402
					c4.38,0,8.046-3.322,8.474-7.681l19.256-195.448C432.167,191.325,431.381,188.945,429.766,187.164z M396.483,379.815H115.517
					L97.939,201.398h316.122L396.483,379.815z"/>
			</g>
		</g>
	</g>
</g>
</svg>
