<?xml version="1.0" encoding="utf-8"?>
<!-- Generator: Adobe Illustrator 20.0.0, SVG Export Plug-In . SVG Version: 6.00 Build 0)  -->
<svg version="1.1" id="Layer_1" xmlns="http://www.w3.org/2000/svg" xmlns:xlink="http://www.w3.org/1999/xlink" x="0px" y="0px"
	 viewBox="0 0 64 64" style="enable-background:new 0 0 64 64;" xml:space="preserve">
<style type="text/css">
	.st0{fill:#59fddf;}
</style>
<title>Asset 8</title>
<g id="Layer_2">
	<g id="Layer_1-2">
		<g id="_Group_">
			<g id="_Group_2">
				<g id="_Group_3">
					<g id="_Group_4">
						<path class="st0" d="M29.1,28.6H16L3.1,6l9.4-5.4L29.1,28.6z M17.1,26.6h8.5L11.7,3.3l-6,3.4L17.1,26.6z"/>
					</g>
					<g id="_Group_5">
						<g id="_Group_6">
							
								<rect x="6.1" y="7.6" transform="matrix(0.8661 -0.4998 0.4998 0.8661 -3.1523 5.4127)" class="st0" width="4.9" height="2"/>
						</g>
						<g id="_Group_7">
							<rect x="8" y="10.8" transform="matrix(0.8661 -0.4998 0.4998 0.8661 -4.4112 7.0324)" class="st0" width="5.9" height="2"/>
						</g>
					</g>
					<g id="_Group_8">
						<g id="_Group_9">
							
								<rect x="10" y="14.4" transform="matrix(0.8661 -0.4998 0.4998 0.8661 -6.0323 8.2956)" class="st0" width="4.9" height="2"/>
						</g>
						<g id="_Group_10">
							
								<rect x="11.9" y="17.6" transform="matrix(0.8661 -0.4998 0.4998 0.8661 -7.2926 9.9103)" class="st0" width="5.9" height="2"/>
						</g>
					</g>
					<g id="_Group_11">
						<g id="_Group_12">
							
								<rect x="13.9" y="21.2" transform="matrix(0.8661 -0.4998 0.4998 0.8661 -8.9137 11.1736)" class="st0" width="4.9" height="2"/>
						</g>
						<g id="_Group_13">
							
								<rect x="15.8" y="24.4" transform="matrix(0.8661 -0.4998 0.4998 0.8661 -10.1726 12.7932)" class="st0" width="5.9" height="2"/>
						</g>
					</g>
				</g>
				<g id="_Group_14">
					<g id="_Group_15">
						<path class="st0" d="M37.9,28.6h-7.8c-0.6,0-1-0.4-1-1c0,0,0-0.1,0-0.1l0.7-7.5c0.1-0.5,0.5-1,1.1-0.9c0.2,0,0.4,0.1,0.5,0.2
							c0.6,0.5,1.3,0.7,2.1,0.8l0,0c1.1,0.1,2.2-0.2,3-0.9c0.4-0.4,1.1-0.3,1.4,0.1c0.1,0.2,0.2,0.3,0.2,0.5l0.8,7.5
							c0.1,0.5-0.3,1-0.9,1.1C38,28.6,37.9,28.6,37.9,28.6L37.9,28.6z M31.1,26.6h5.6l-0.5-4.9c-0.9,0.4-2,0.5-3,0.4l0,0
							c-0.5-0.1-1.1-0.2-1.6-0.4L31.1,26.6z"/>
					</g>
					<g id="_Group_16">
						<path class="st0" d="M34,22.2c-0.2,0-0.5,0-0.8,0c-1.1-0.1-2.1-0.6-3-1.2c-1.7-1.3-2.5-3.4-2.1-5.4c1.4-10.7,8.7-15.2,9-15.4
							c0.5-0.3,1.1-0.1,1.4,0.4c0.2,0.3,0.2,0.7,0,1c-1.4,2.8-1.5,6.1-0.4,9l0,0c1.4,3.3,1.9,5.3,1.8,6.5C39.4,20,36.9,22.2,34,22.2
							L34,22.2z M35.5,4.1c-3,3.2-4.9,7.3-5.4,11.6c-0.2,1.3,0.3,2.7,1.3,3.5c0.6,0.5,1.3,0.7,2.1,0.8c2.1,0.2,4.1-1.3,4.4-3.4
							c0.1-0.5-0.1-1.8-1.6-5.5l0,0C35.3,9,35,6.5,35.5,4.1z"/>
					</g>
					<g id="_Group_17">
						<path class="st0" d="M33.9,22.1c-0.2,0-0.4-0.1-0.6-0.2c-1.6-1.3-2.4-3.3-2.1-5.4c0.2-1.5,0.5-3,1-4.5
							c0.2-0.5,0.8-0.8,1.3-0.6c0.5,0.2,0.8,0.7,0.6,1.2c-0.4,1.3-0.7,2.7-0.9,4.1c-0.2,1.3,0.3,2.7,1.3,3.5c0.4,0.3,0.5,1,0.2,1.4
							C34.6,21.9,34.3,22.1,33.9,22.1z"/>
					</g>
					<g id="_Group_18">
						<path class="st0" d="M34,23.6"/>
					</g>
				</g>
				<g id="_Group_19">
					<g id="_Group_20">
						<g id="_Group_21">
							<g id="_Group_22">
								
									<rect x="51.1" y="9.1" transform="matrix(0.4998 -0.8661 0.8661 0.4998 19.338 53.7554)" class="st0" width="10.2" height="2"/>
							</g>
							<g id="_Group_23">
								<path class="st0" d="M53.2,17.3c-1.1,0-2-0.9-2-2s0.9-2,2-2s2,0.9,2,2c0,0.9-0.6,1.7-1.5,1.9C53.6,17.3,53.4,17.3,53.2,17.3
									z M53.2,15.3L53.2,15.3l0.9,0.5L53.2,15.3z"/>
							</g>
						</g>
						<g id="_Group_24">
							<path class="st0" d="M52.8,23.5l-6.4-3.7l0.8-7.9l10.8-8.1l3,1.7l-1.7,13.4L52.8,23.5z M48.5,18.7l4.2,2.4l4.7-3.4l1.4-11.2
								l-0.7-0.4l-9,6.8L48.5,18.7z"/>
						</g>
					</g>
					<g id="_Group_25">
						<path class="st0" d="M51.6,28.6H38.2l8.3-11l8.3,4.8L51.6,28.6z M42.2,26.6h8.2l1.8-3.5l-5.2-3L42.2,26.6z"/>
					</g>
				</g>
			</g>
			<g id="_Group_26">
				<g id="_Group_27">
					<path class="st0" d="M55.9,36.4H10.6v-9.9h45.3L55.9,36.4z M12.6,34.4h41.3v-5.9H12.6L12.6,34.4z"/>
				</g>
				<g id="_Group_28">
					<path class="st0" d="M47.9,64H18.7l-5.3-29.6h39.8L47.9,64z M20.3,62h25.9l4.6-25.6h-35L20.3,62z"/>
				</g>
				<g id="_Group_29">
					<g id="_Group_30">
						<rect x="15.6" y="38.4" class="st0" width="12.8" height="2"/>
					</g>
					<g id="_Group_31">
						<rect x="16.6" y="42.3" class="st0" width="12.8" height="2"/>
					</g>
					<g id="_Group_32">
						<rect x="17.5" y="46.3" class="st0" width="12.8" height="2"/>
					</g>
					<g id="_Group_33">
						<rect x="17.5" y="50.2" class="st0" width="13.8" height="2"/>
					</g>
					<g id="_Group_34">
						<rect x="18.5" y="54.1" class="st0" width="13.8" height="2"/>
					</g>
					<g id="_Group_35">
						<rect x="19.5" y="58.1" class="st0" width="13.8" height="2"/>
					</g>
				</g>
			</g>
		</g>
	</g>
</g>
</svg>
