<?xml version="1.0" encoding="utf-8"?>
<!-- Generator: Adobe Illustrator 20.0.0, SVG Export Plug-In . SVG Version: 6.00 Build 0)  -->
<svg version="1.1" id="Layer_1" xmlns="http://www.w3.org/2000/svg" xmlns:xlink="http://www.w3.org/1999/xlink" x="0px" y="0px"
	 viewBox="0 0 64 64" style="enable-background:new 0 0 64 64;" xml:space="preserve">
<style type="text/css">
	.st0{fill:#59fddf;}
</style>
<title>Asset 58</title>
<g id="Layer_2">
	<g id="Layer_1-2">
		<path class="st0" d="M60.9,55.7H3.1c-1.7,0-3.1-1.4-3.1-3.1V11.4c0-1.7,1.4-3.1,3.1-3.1h57.8c1.7,0,3.1,1.4,3.1,3.1v41.3
			C64,54.4,62.6,55.7,60.9,55.7z M3.1,10.3c-0.6,0-1,0.4-1,1v41.3c0,0.6,0.4,1,1,1h57.8c0.6,0,1-0.4,1-1V11.4c0-0.6-0.4-1-1-1
			L3.1,10.3z"/>
		<rect x="4.1" y="12.4" class="st0" width="2.1" height="2.1"/>
		<rect x="8.3" y="12.4" class="st0" width="2.1" height="2.1"/>
		<rect x="12.4" y="12.4" class="st0" width="2.1" height="2.1"/>
		<rect x="1" y="16.5" class="st0" width="61.9" height="2.1"/>
		<path class="st0" d="M24.8,28.9h-6.2v-6.2h6.2V28.9z M20.6,26.9h2.1v-2.1h-2L20.6,26.9z"/>
		<path class="st0" d="M45.4,28.9h-6.2v-6.2h6.2V28.9z M41.3,26.9h2.1v-2.1h-2.1L41.3,26.9z"/>
		<path class="st0" d="M24.8,49.6h-6.2v-6.2h6.2V49.6z M20.6,47.5h2.1v-2.1h-2L20.6,47.5z"/>
		<path class="st0" d="M37.2,48.9L32,43.8l-5.2,5.2v-18h18l-5.2,5.2l5.1,5.2L37.2,48.9z M32,40.9l5.2,5.2l4.7-4.8l-5.2-5.2l3.1-3.1
			H28.9v11L32,40.9z"/>
		<rect x="23.7" y="24.8" class="st0" width="16.5" height="2.1"/>
		<rect x="20.6" y="27.9" class="st0" width="2.1" height="16.5"/>
		<rect x="47.5" y="35.1" class="st0" width="2.1" height="2.1"/>
		<rect x="51.6" y="35.1" class="st0" width="2.1" height="2.1"/>
		<rect x="55.7" y="35.1" class="st0" width="2.1" height="2.1"/>
		<rect x="6.2" y="35.1" class="st0" width="2.1" height="2.1"/>
		<rect x="10.3" y="35.1" class="st0" width="2.1" height="2.1"/>
		<rect x="14.4" y="35.1" class="st0" width="2.1" height="2.1"/>
	</g>
</g>
</svg>
