<svg xmlns="http://www.w3.org/2000/svg" viewBox="0 0 48 48">
  <title>market, trends, graph</title>
  <g>
    <path d="M45,6H3A1,1,0,0,0,2,7V35a1,1,0,0,0,1,1H23v4H19a1,1,0,0,0,0,2H29a1,1,0,0,0,0-2H25V36H45a1,1,0,0,0,1-1V7A1,1,0,0,0,45,6ZM44,34H4V8H44Z" fill="#59fddf"/>
    <path d="M13,28a2.9927,2.9927,0,0,0,2.7449-4.2017l2.6324-2.2822a2.9619,2.9619,0,0,0,3.8579-.5349l2.7965,1.7048A2.931,2.931,0,0,0,25,23a3,3,0,0,0,6,0,2.9641,2.9641,0,0,0-.1877-1.011l2.8925-2.295A2.9642,2.9642,0,0,0,35,20a3,3,0,1,0-3-3,2.9671,2.9671,0,0,0,.29,1.2649L29.5457,20.442a2.9628,2.9628,0,0,0-3.6532.4271L22.99,19.1c.0012-.0339.01-.0656.01-.1a3,3,0,0,0-6,0,2.96,2.96,0,0,0,.16.9232L14.367,22.345A2.9616,2.9616,0,0,0,13,22a3,3,0,0,0,0,6ZM35,16a1,1,0,1,1-1,1A1.0006,1.0006,0,0,1,35,16Zm-7,6a1,1,0,1,1-1,1A1.0006,1.0006,0,0,1,28,22Zm-8-4a1,1,0,1,1-1,1A1.0006,1.0006,0,0,1,20,18Zm-7,6a1,1,0,1,1-1,1A1.0006,1.0006,0,0,1,13,24Z" fill="#59fddf"/>
  </g>
</svg>
