<?xml version="1.0" encoding="utf-8"?>
<!-- Generator: Adobe Illustrator 20.0.0, SVG Export Plug-In . SVG Version: 6.00 Build 0)  -->
<svg version="1.1" id="Layer_1" xmlns="http://www.w3.org/2000/svg" xmlns:xlink="http://www.w3.org/1999/xlink" x="0px" y="0px"
	 viewBox="0 0 64 64" style="enable-background:new 0 0 64 64;" xml:space="preserve">
<style type="text/css">
	.st0{fill:#59fddf;}
</style>
<title>Asset 10</title>
<g id="Layer_2">
	<g id="Layer_1-2">
		<g id="_Group_">
			<g id="_Group_2">
				<g id="_Group_3">
					<polygon class="st0" points="64,63.8 55.3,63.8 55.3,61.8 62,61.8 62,2.2 55.3,2.2 55.3,0.2 64,0.2 					"/>
				</g>
				<g id="_Group_4">
					<g id="_Group_5">
						<rect x="57.2" y="8" class="st0" width="5.8" height="2"/>
					</g>
					<g id="_Group_6">
						<rect x="55.3" y="13.8" class="st0" width="7.7" height="2"/>
					</g>
					<g id="_Group_7">
						<rect x="57.2" y="19.5" class="st0" width="5.8" height="2"/>
					</g>
					<g id="_Group_8">
						<rect x="55.3" y="25.3" class="st0" width="7.7" height="2"/>
					</g>
					<g id="_Group_9">
						<rect x="57.2" y="31.1" class="st0" width="5.8" height="2"/>
					</g>
					<g id="_Group_10">
						<rect x="55.3" y="36.9" class="st0" width="7.7" height="2"/>
					</g>
					<g id="_Group_11">
						<rect x="57.2" y="42.6" class="st0" width="5.8" height="2"/>
					</g>
					<g id="_Group_12">
						<rect x="55.3" y="48.4" class="st0" width="7.7" height="2"/>
					</g>
					<g id="_Group_13">
						<rect x="57.2" y="54.2" class="st0" width="5.8" height="2"/>
					</g>
				</g>
			</g>
			<g id="_Group_14">
				<g id="_Group_15">
					<path class="st0" d="M52.9,63.8H42.6l-6.5-18.3H16.8l-6.5,18.3H0L22.6,0.2h7.7L52.9,63.8z M44,61.8h6L28.9,2.2H24L2.8,61.8h6.1
						l6.5-18.3h22.1L44,61.8z M35.9,38.9H17l9.4-26.5L35.9,38.9z M19.9,36.9H33l-6.6-18.6L19.9,36.9z"/>
				</g>
				<g id="_Group_16">
					<rect x="-13.7" y="31" transform="matrix(0.3262 -0.9453 0.9453 0.3262 -19.573 36.538)" class="st0" width="59" height="2"/>
				</g>
				<g id="_Group_17">
					<rect x="18.7" y="40.6" class="st0" width="15.4" height="2"/>
				</g>
			</g>
		</g>
	</g>
</g>
</svg>
