<?xml version="1.0" encoding="utf-8"?>
<!-- Generator: Adobe Illustrator 20.0.0, SVG Export Plug-In . SVG Version: 6.00 Build 0)  -->
<svg version="1.1" id="Layer_1" xmlns="http://www.w3.org/2000/svg" xmlns:xlink="http://www.w3.org/1999/xlink" x="0px" y="0px"
	 viewBox="0 0 64 64" style="enable-background:new 0 0 64 64;" xml:space="preserve">
<style type="text/css">
	.st0{fill:#59fddf;}
</style>
<title>Asset 9</title>
<g id="Layer_2">
	<g id="Layer_1-2">
		<g id="_Group_">
			<g id="_Group_2">
				<g id="_Group_3">
					<polygon class="st0" points="45.1,63.9 0.5,63.9 0.5,9.7 7.3,9.7 7.3,11.7 2.5,11.7 2.5,61.9 43.1,61.9 43.1,11.7 38.3,11.7 
						38.3,9.7 45.1,9.7 					"/>
				</g>
				<g id="_Group_4">
					<path class="st0" d="M39.3,14.6h-33V4.8h8.8C15.8,2.1,19,0,22.8,0s7,2.1,7.7,4.8h8.8V14.6z M8.3,12.6h29V6.9h-8.7v-1
						c0-2.1-2.6-3.9-5.8-3.9s-5.8,1.8-5.8,3.8v1H8.3L8.3,12.6z"/>
				</g>
				<g id="_Group_5">
					<rect x="21.8" y="4.8" class="st0" width="1.9" height="2"/>
				</g>
				<g id="_Group_6">
					<g id="_Group_7">
						<polygon class="st0" points="11.3,30.5 7.5,22.4 9.4,21.5 11.3,25.7 15.1,17.6 17,18.5 						"/>
					</g>
					<g id="_Group_8">
						<rect x="14.1" y="28" class="st0" width="1.9" height="2"/>
					</g>
					<g id="_Group_9">
						<rect x="18" y="28" class="st0" width="1.9" height="2"/>
					</g>
					<g id="_Group_10">
						<rect x="21.8" y="28" class="st0" width="1.9" height="2"/>
					</g>
					<g id="_Group_11">
						<rect x="25.7" y="28" class="st0" width="1.9" height="2"/>
					</g>
					<g id="_Group_12">
						<rect x="29.6" y="28" class="st0" width="1.9" height="2"/>
					</g>
					<g id="_Group_13">
						<rect x="33.5" y="28" class="st0" width="1.9" height="2"/>
					</g>
					<g id="_Group_14">
						<rect x="37.3" y="28" class="st0" width="1.9" height="2"/>
					</g>
				</g>
				<g id="_Group_15">
					<g id="_Group_16">
						<polygon class="st0" points="11.3,45 7.5,36.9 9.4,36 11.3,40.2 15.1,32.2 17,33 						"/>
					</g>
					<g id="_Group_17">
						<rect x="14.1" y="42.6" class="st0" width="1.9" height="2"/>
					</g>
					<g id="_Group_18">
						<rect x="18" y="42.6" class="st0" width="1.9" height="2"/>
					</g>
					<g id="_Group_19">
						<rect x="21.8" y="42.6" class="st0" width="1.9" height="2"/>
					</g>
					<g id="_Group_20">
						<rect x="25.7" y="42.6" class="st0" width="1.9" height="2"/>
					</g>
					<g id="_Group_21">
						<rect x="29.6" y="42.6" class="st0" width="1.9" height="2"/>
					</g>
					<g id="_Group_22">
						<rect x="33.5" y="42.6" class="st0" width="1.9" height="2"/>
					</g>
					<g id="_Group_23">
						<rect x="37.3" y="42.6" class="st0" width="1.9" height="2"/>
					</g>
				</g>
				<g id="_Group_24">
					<g id="_Group_25">
						<polygon class="st0" points="11.3,59.9 7.5,51.7 9.4,50.9 11.3,55.1 15.1,47 17,47.9 						"/>
					</g>
					<g id="_Group_26">
						<rect x="14.1" y="57.4" class="st0" width="1.9" height="2"/>
					</g>
					<g id="_Group_27">
						<rect x="18" y="57.4" class="st0" width="1.9" height="2"/>
					</g>
					<g id="_Group_28">
						<rect x="21.8" y="57.4" class="st0" width="1.9" height="2"/>
					</g>
					<g id="_Group_29">
						<rect x="25.7" y="57.4" class="st0" width="1.9" height="2"/>
					</g>
					<g id="_Group_30">
						<rect x="29.6" y="57.4" class="st0" width="1.9" height="2"/>
					</g>
					<g id="_Group_31">
						<rect x="33.5" y="57.4" class="st0" width="1.9" height="2"/>
					</g>
					<g id="_Group_32">
						<rect x="37.3" y="57.4" class="st0" width="1.9" height="2"/>
					</g>
				</g>
			</g>
			<g id="_Group_33">
				<g id="_Group_34">
					<path class="st0" d="M57.7,54.3h-9.8V13.7c0-1.7,1.3-3,3-3h3.7c1.7,0,3,1.3,3,3L57.7,54.3z M49.9,52.3h5.7V13.7
						c0-0.6-0.4-1-1-1H51c-0.6,0-1,0.4-1,1L49.9,52.3z"/>
				</g>
				<g id="_Group_35">
					<g id="_Group_36">
						<path class="st0" d="M59.6,17.5v-2c1,0,1.9-0.8,1.9-1.9s-0.8-1.9-1.9-1.9c-1,0-1.9,0.8-1.9,1.9l0,0h-2c0-2.2,1.8-3.9,3.9-3.9
							c2.2,0,3.9,1.8,3.9,3.9S61.8,17.5,59.6,17.5L59.6,17.5z"/>
					</g>
					<g id="_Group_37">
						<rect x="58.6" y="15.5" class="st0" width="2" height="20.3"/>
					</g>
				</g>
				<g id="_Group_38">
					<g id="_Group_39">
						<path class="st0" d="M52.8,64l-4.9-8.5v-3.2h9.8v3.2L52.8,64z M49.9,54.9l2.9,5l2.9-5v-0.7h-5.7L49.9,54.9z"/>
					</g>
					<g id="_Group_40">
						<rect x="51.8" y="62" class="st0" width="2" height="1.9"/>
					</g>
				</g>
				<g id="_Group_41">
					<rect x="48.9" y="25.1" class="st0" width="7.7" height="2"/>
				</g>
				<g id="_Group_42">
					<rect x="48.9" y="38.7" class="st0" width="7.7" height="2"/>
				</g>
				<g id="_Group_43">
					<rect x="51.8" y="41.6" class="st0" width="2" height="9.7"/>
				</g>
			</g>
		</g>
	</g>
</g>
</svg>
