<?xml version="1.0" encoding="utf-8"?>
<!-- Generator: Adobe Illustrator 20.0.0, SVG Export Plug-In . SVG Version: 6.00 Build 0)  -->
<svg version="1.1" id="Layer_1" xmlns="http://www.w3.org/2000/svg" xmlns:xlink="http://www.w3.org/1999/xlink" x="0px" y="0px"
	 viewBox="0 0 64 64" style="enable-background:new 0 0 64 64;" xml:space="preserve">
<style type="text/css">
	.st0{fill:#59fddf;}
</style>
<title>Asset 11</title>
<g id="Layer_2">
	<g id="Layer_1-2">
		<g id="_Group_">
			<g id="_Group_2">
				<g id="_Group_3">
					<path class="st0" d="M42.8,64H11.4v-1c0-0.2-0.1-14.6-1-19.2c-0.5-2-1.2-4-2.2-5.9C6.6,34,4.7,29.6,4.7,24.3
						C4.7,10.9,15.5,0,28.9,0C43,0,50.8,6.1,52.2,18.2l7.2,22.5h-6.9l1.7,7.3c0,4.6-3.7,8.3-8.3,8.3h-5L42.8,64z M13.4,62h26.8
						l-1.9-7.8h7.6c3.4,0,6.2-2.7,6.3-6.2l-2.2-9.3h6.7l-6.4-20.2C49,7.4,42,2,28.9,2C16.6,2,6.7,12,6.7,24.3
						c0,4.9,1.9,9.1,3.5,12.8c1,2,1.8,4.2,2.3,6.4C13.2,47.6,13.4,58.6,13.4,62z"/>
				</g>
				<g id="_Group_4">
					<rect x="36.7" y="54.3" class="st0" width="3.9" height="2"/>
				</g>
			</g>
			<g id="_Group_5">
				<g id="_Group_6">
					<g id="_Group_7">
						<path class="st0" d="M20.3,30.8h-5.5c-2.3,0-4.3-1.8-4.3-4.2c0-1.2,0.6-2.4,1.5-3.2c-1-0.8-1.5-1.9-1.5-3.2
							c0-1.3,0.6-2.6,1.6-3.4c-0.4-0.6-0.6-1.2-0.6-1.9c0-2.3,2-4.2,4.3-4.2c0.4,0,0.9,0.1,1.3,0.2c0.4-2,2.2-3.4,4.2-3.4
							c0.6,0,1.1,0.1,1.7,0.3c1-2.1,3.6-3,5.7-2c0.6,0.3,1.1,0.7,1.5,1.2c0.6-0.4,1.4-0.6,2.1-0.6c2,0,3.7,1.3,4.2,3.2
							c2.3-0.2,4.3,1.6,4.5,3.9c0,0.1,0,0.2,0,0.3c0,0.4-0.1,0.8-0.2,1.2c2.7,0.2,4.7,2.5,4.6,5.1c0,1.2-0.5,2.4-1.4,3.3
							c-1.4,1.3-3.2,2-5.1,2c-0.6,0-1-0.4-1-1s0.4-1,1-1c1.3,0,2.7-0.4,3.7-1.4c0.5-0.5,0.8-1.2,0.8-1.9c0-2.8-2.2-3.2-3.4-3.2
							c-0.2,0-0.5,0-0.7,0.1c-0.5,0.2-1.1-0.1-1.3-0.6c-0.1-0.4,0-0.8,0.3-1.1c0.4-0.4,0.7-1,0.7-1.6c0-1.2-1.1-2.2-2.3-2.2
							c-0.3,0-0.5,0-0.8,0.1c-0.5,0.2-1.1-0.1-1.3-0.6c0-0.1-0.1-0.3-0.1-0.4v-0.1c0-1.2-1.1-2.2-2.3-2.2c-0.6,0-1.2,0.2-1.7,0.7
							c-0.4,0.4-1,0.4-1.4,0.1C29.1,9.3,29,9.1,29,9c-0.4-0.9-1.2-1.4-2.1-1.4c-1.2,0.1-2.2,1-2.3,2.2c0,0.6-0.5,1-1.1,0.9
							c-0.3,0-0.5-0.2-0.7-0.4c-0.3-0.5-0.8-0.7-1.4-0.7c-1.2,0-2.3,0.9-2.3,2.2c0,0.2,0,0.4,0.1,0.7c0.2,0.5-0.2,1.1-0.7,1.2
							c-0.3,0.1-0.7,0-1-0.2c-0.4-0.4-1-0.7-1.7-0.7c-1.2,0-2.3,1-2.3,2.2c0,0,0,0,0,0c0,0.6,0.3,1.1,0.8,1.4c0.4,0.4,0.5,1,0.1,1.4
							c-0.1,0.1-0.3,0.2-0.4,0.3c-0.9,0.4-1.5,1.2-1.5,2.2c0,1.2,1.1,2.2,2.3,2.2c0.6,0,1,0.4,1,1s-0.4,1-1,1c-1.2,0-2.2,1-2.2,2.2
							s1,2.2,2.2,2.2c0,0,0,0,0,0h5.5c0.9,0,1.8-0.6,2.1-1.5c0.2-0.5,0.8-0.8,1.3-0.6s0.8,0.8,0.6,1.3l0,0
							C23.6,29.7,22,30.8,20.3,30.8z"/>
					</g>
					<g id="_Group_8">
						<path class="st0" d="M20.3,18.1h-6.6c-0.6,0-1-0.4-1-1s0.4-1,1-1h6.6c0.6,0,1,0.4,1,1S20.8,18.1,20.3,18.1z"/>
					</g>
					<g id="_Group_9">
						<path class="st0" d="M20.3,18.1c-0.6,0-1-0.4-1-1s0.4-1,1-1c0.6,0,1.2-0.5,1.2-1.1c0-0.6,0.4-1,1-1s1,0.4,1,1
							C23.4,16.7,22,18.1,20.3,18.1z"/>
					</g>
					<g id="_Group_10">
						<path class="st0" d="M28.9,12.6c-0.6,0-1-0.5-1-1c0-0.4,0.2-0.7,0.6-0.9c0.3-0.1,0.5-0.4,0.6-0.7c0.1-0.3,0.1-0.6-0.1-0.8
							c-0.3-0.5-0.1-1.1,0.3-1.4c0.5-0.3,1.1-0.1,1.4,0.3c0,0,0,0.1,0.1,0.1c0.4,0.7,0.5,1.6,0.2,2.4c-0.3,0.8-0.9,1.5-1.6,1.8
							C29.2,12.6,29.1,12.6,28.9,12.6z"/>
					</g>
					<g id="_Group_11">
						<path class="st0" d="M21.4,23.4c-0.6,0-1-0.4-1-1c0-0.6-0.6-1.1-1.2-1.1c-0.6,0-1-0.4-1-1s0.4-1,1-1c1.7,0,3.2,1.4,3.2,3.1
							C22.4,23,21.9,23.4,21.4,23.4z"/>
					</g>
					<g id="_Group_12">
						<path class="st0" d="M23.5,11.8c-0.6,0-1-0.4-1-1c0-0.6-0.6-1.1-1.2-1.1c-0.6,0-1-0.4-1-1s0.4-1,1-1c1.7,0,3.2,1.4,3.2,3.1
							C24.5,11.3,24.1,11.8,23.5,11.8z"/>
					</g>
					<g id="_Group_13">
						<path class="st0" d="M18.1,24.5h-4.4c-0.6,0-1-0.4-1-1s0.4-1,1-1h4.4c0.6,0,1,0.4,1,1S18.6,24.5,18.1,24.5z"/>
					</g>
					<g id="_Group_14">
						<path class="st0" d="M33.4,15c-0.6,0-1-0.4-1-1c0-2.3,2-4.2,4.3-4.2c0.6,0,1,0.4,1,1s-0.4,1-1,1c-1.2,0-2.3,0.9-2.3,2.2
							C34.4,14.6,34,15,33.4,15z"/>
					</g>
				</g>
				<g id="_Group_15">
					<path class="st0" d="M41,49.2l-17-24h6.3l-3.8-9.7h8l4.5,14.6h-4.7L41,49.2z M27.9,27.2l6.3,8.9l-2.9-8h4.9L33,17.5h-3.6
						l3.9,9.7L27.9,27.2z"/>
				</g>
			</g>
		</g>
	</g>
</g>
</svg>
