<svg xmlns="http://www.w3.org/2000/svg" viewBox="0 0 48 48">
  <title>business, statistics, analysis</title>
  <g>
    <path d="M45,6H3A1,1,0,0,0,2,7V35a1,1,0,0,0,1,1H23v4H19a1,1,0,0,0,0,2H29a1,1,0,0,0,0-2H25V36H45a1,1,0,0,0,1-1V7A1,1,0,0,0,45,6ZM44,34H4V8H44Z" fill="#59fddf"/>
    <path d="M16,27a6,6,0,1,0-6-6A6.0066,6.0066,0,0,0,16,27Zm3.858-7H17V17.142A3.9937,3.9937,0,0,1,19.858,20ZM15,17.142V21a1,1,0,0,0,1,1h3.858A3.9916,3.9916,0,1,1,15,17.142Z" fill="#59fddf"/>
    <path d="M29,27a1,1,0,0,0,1-1V24a1,1,0,0,0-2,0v2A1,1,0,0,0,29,27Z" fill="#59fddf"/>
    <path d="M33,27a1,1,0,0,0,1-1V20a1,1,0,0,0-2,0v6A1,1,0,0,0,33,27Z" fill="#59fddf"/>
    <path d="M37,27a1,1,0,0,0,1-1V16a1,1,0,0,0-2,0V26A1,1,0,0,0,37,27Z" fill="#59fddf"/>
  </g>
</svg>
