<svg xmlns="http://www.w3.org/2000/svg" viewBox="0 0 48 48">
  <title>growth, statistics, up</title>
  <g>
    <path d="M41,7H37a1,1,0,0,0,0,2H38.586l-9.827,9.8267-9.3877-3.7554a.998.998,0,0,0-.9258.0967l-12,8a1,1,0,1,0,1.1094,1.664l11.5625-7.708,9.5117,3.8047a1,1,0,0,0,1.0781-.2217L40,10.4141V12a1,1,0,0,0,2,0V8A1,1,0,0,0,41,7Z" fill="#59fddf"/>
    <path d="M11,29H7a1,1,0,0,0-1,1V40a1,1,0,0,0,1,1h4a1,1,0,0,0,1-1V30A1,1,0,0,0,11,29ZM10,39H8V31h2Z" fill="#59fddf"/>
    <path d="M21,23H17a1,1,0,0,0-1,1V40a1,1,0,0,0,1,1h4a1,1,0,0,0,1-1V24A1,1,0,0,0,21,23ZM20,39H18V25h2Z" fill="#59fddf"/>
    <path d="M31,25H27a1,1,0,0,0-1,1V40a1,1,0,0,0,1,1h4a1,1,0,0,0,1-1V26A1,1,0,0,0,31,25ZM30,39H28V27h2Z" fill="#59fddf"/>
    <path d="M41,19H37a1,1,0,0,0-1,1V40a1,1,0,0,0,1,1h4a1,1,0,0,0,1-1V20A1,1,0,0,0,41,19ZM40,39H38V21h2Z" fill="#59fddf"/>
  </g>
</svg>
