<?xml version="1.0" encoding="utf-8"?>
<!-- Generator: Adobe Illustrator 16.0.0, SVG Export Plug-In . SVG Version: 6.00 Build 0)  -->
<!DOCTYPE svg PUBLIC "-//W3C//DTD SVG 1.1//EN" "http://www.w3.org/Graphics/SVG/1.1/DTD/svg11.dtd">
<svg version="1.1" id="Layer_1" xmlns="http://www.w3.org/2000/svg" xmlns:xlink="http://www.w3.org/1999/xlink" x="0px" y="0px"
	 width="410.916px" height="49.335px" viewBox="0 0 410.916 49.335" enable-background="new 0 0 410.916 49.335"
	 xml:space="preserve">
<g>
	<g>
		<path fill="#010101" d="M0,11.848h20.189v4.06H4.839v12.458h14.183v4.005H4.839v16.963H0V11.848z"/>
		<path fill="#010101" d="M38.207,12.349c2.447-0.5,5.951-0.778,9.288-0.778c5.172,0,8.51,0.945,10.846,3.059
			c1.891,1.669,2.948,4.227,2.948,7.119c0,4.95-3.115,8.232-7.063,9.566v0.167c2.892,1.001,4.616,3.671,5.506,7.564
			c1.224,5.229,2.113,8.843,2.892,10.29h-5.006c-0.612-1.057-1.446-4.283-2.503-8.955c-1.112-5.172-3.114-7.119-7.508-7.286h-4.561
			v16.241h-4.839V12.349z M43.045,29.424h4.95c5.173,0,8.454-2.837,8.454-7.119c0-4.839-3.504-6.953-8.621-7.008
			c-2.336,0-4.005,0.223-4.783,0.445V29.424z"/>
		<path fill="#010101" d="M98.66,31.76H84.088v13.515h16.24v4.06H79.249V11.848h20.245v4.06H84.088v11.847H98.66V31.76z"/>
		<path fill="#010101" d="M126.242,49.335V33.428l-11.847-21.58h5.506l5.284,10.345c1.446,2.836,2.558,5.117,3.726,7.731h0.111
			c1.057-2.447,2.336-4.895,3.782-7.731l5.395-10.345h5.506l-12.569,21.524v15.962H126.242z"/>
	</g>
	<g>
		<path fill="#010101" d="M212.208,43.439c2.169,1.335,5.339,2.447,8.677,2.447c4.949,0,7.842-2.614,7.842-6.396
			c0-3.504-2.002-5.506-7.062-7.453c-6.119-2.169-9.901-5.339-9.901-10.623c0-5.84,4.839-10.178,12.125-10.178
			c3.836,0,6.617,0.89,8.287,1.835l-1.336,3.949c-1.223-0.667-3.727-1.78-7.119-1.78c-5.117,0-7.063,3.059-7.063,5.618
			c0,3.504,2.28,5.228,7.452,7.23c6.342,2.447,9.566,5.506,9.566,11.012c0,5.785-4.281,10.79-13.125,10.79
			c-3.615,0-7.564-1.057-9.566-2.392L212.208,43.439z"/>
		<path fill="#010101" d="M257.476,37.544l-3.893,11.791h-5.006l12.736-37.487h5.84l12.793,37.487h-5.172l-4.006-11.791H257.476z
			 M269.769,33.762l-3.672-10.79c-0.834-2.447-1.391-4.672-1.945-6.841h-0.111c-0.557,2.225-1.168,4.505-1.893,6.786l-3.67,10.845
			H269.769z"/>
		<path fill="#010101" d="M296.572,12.349c2.447-0.5,5.951-0.778,9.289-0.778c5.172,0,8.51,0.945,10.846,3.059
			c1.891,1.669,2.947,4.227,2.947,7.119c0,4.95-3.113,8.232-7.062,9.566v0.167c2.893,1.001,4.615,3.671,5.506,7.564
			c1.223,5.229,2.113,8.843,2.893,10.29h-5.006c-0.611-1.057-1.447-4.283-2.504-8.955c-1.111-5.172-3.113-7.119-7.508-7.286h-4.561
			v16.241h-4.84V12.349z M301.412,29.424h4.949c5.174,0,8.455-2.837,8.455-7.119c0-4.839-3.504-6.953-8.621-7.008
			c-2.336,0-4.004,0.223-4.783,0.445V29.424z"/>
		<path fill="#010101" d="M343.955,37.544l-3.893,11.791h-5.006l12.736-37.487h5.84l12.793,37.487h-5.172l-4.006-11.791H343.955z
			 M356.248,33.762l-3.672-10.79c-0.834-2.447-1.391-4.672-1.945-6.841h-0.111c-0.557,2.225-1.168,4.505-1.893,6.786l-3.67,10.845
			H356.248z"/>
		<path fill="#010101" d="M387.89,11.848v15.685h18.131V11.848h4.895v37.487h-4.895V31.76H387.89v17.575h-4.84V11.848H387.89z"/>
	</g>
	<g>
		<path fill="#010101" d="M184.714,23.947l6.769,7.154h-8.268l-2.528-2.87c-1.257,1.285-2.606,2.213-4.048,2.785
			c-1.443,0.571-3.063,0.856-4.862,0.856c-1.371,0-2.699-0.186-3.984-0.557c-1.285-0.371-2.435-0.935-3.449-1.692
			c-1.014-0.756-1.821-1.706-2.42-2.849c-0.6-1.142-0.899-2.47-0.899-3.984c0-0.971,0.164-1.892,0.493-2.763
			c0.328-0.871,0.785-1.664,1.371-2.377c0.585-0.714,1.264-1.335,2.035-1.864c0.771-0.528,1.613-0.949,2.527-1.264
			c-0.486-0.542-0.936-1.056-1.35-1.542c-0.414-0.485-0.771-1-1.071-1.542c-0.3-0.542-0.529-1.114-0.686-1.713
			c-0.157-0.6-0.235-1.271-0.235-2.013c0-1.371,0.264-2.542,0.792-3.513c0.528-0.971,1.235-1.771,2.12-2.399
			c0.885-0.628,1.899-1.085,3.042-1.371C171.205,0.143,172.376,0,173.576,0c1.17,0,2.284,0.15,3.341,0.45
			c1.056,0.3,1.992,0.757,2.806,1.371c0.814,0.615,1.463,1.386,1.949,2.313c0.485,0.928,0.729,2.035,0.729,3.32
			c0,0.915-0.15,1.756-0.45,2.528c-0.3,0.771-0.707,1.493-1.221,2.163c-0.514,0.671-1.107,1.271-1.778,1.799
			c-0.671,0.529-1.392,0.993-2.163,1.392l3.898,4.155l2.956-4.027h7.454L184.714,23.947z M171.434,18.164
			c-0.428,0.257-0.85,0.521-1.264,0.792c-0.415,0.271-0.786,0.571-1.114,0.899c-0.329,0.329-0.593,0.707-0.792,1.135
			c-0.2,0.428-0.3,0.928-0.3,1.5s0.114,1.085,0.342,1.542c0.229,0.457,0.528,0.843,0.9,1.157c0.371,0.314,0.807,0.564,1.307,0.75
			c0.499,0.186,1.006,0.278,1.521,0.278c1,0,1.864-0.214,2.592-0.643c0.729-0.428,1.449-0.956,2.164-1.585L171.434,18.164z
			 M173.49,5.141c-0.829,0-1.528,0.257-2.099,0.771s-0.856,1.199-0.856,2.056c0,0.372,0.085,0.736,0.257,1.092
			c0.171,0.357,0.378,0.7,0.621,1.028c0.242,0.329,0.514,0.636,0.814,0.921c0.3,0.286,0.578,0.543,0.835,0.771
			c0.343-0.199,0.713-0.435,1.114-0.707c0.399-0.271,0.771-0.571,1.114-0.9c0.343-0.328,0.628-0.685,0.857-1.071
			c0.228-0.386,0.342-0.792,0.342-1.221c0-0.885-0.293-1.564-0.878-2.035C175.025,5.376,174.318,5.141,173.49,5.141z"/>
	</g>
	<rect x="161.175" y="44.001" fill="#010101" width="30.304" height="5.332"/>
</g>
</svg>
