<?xml version="1.0" encoding="utf-8"?>
<!-- Generator: Adobe Illustrator 16.0.0, SVG Export Plug-In . SVG Version: 6.00 Build 0)  -->
<!DOCTYPE svg PUBLIC "-//W3C//DTD SVG 1.1//EN" "http://www.w3.org/Graphics/SVG/1.1/DTD/svg11.dtd">
<svg version="1.1" id="Layer_1" xmlns="http://www.w3.org/2000/svg" xmlns:xlink="http://www.w3.org/1999/xlink" x="0px" y="0px"
	 width="409.813px" height="149.774px" viewBox="0 0 409.813 149.774" enable-background="new 0 0 409.813 149.774"
	 xml:space="preserve">
<g>
	<g>
		<g>
			<path fill="#efedf5" d="M40.577,56.649c-0.346-6.51-0.762-14.334-0.692-20.15h-0.208c-1.593,5.47-3.532,11.287-5.886,17.727
				l-8.24,22.643h-4.57L13.434,54.64c-2.216-6.578-4.085-12.603-5.401-18.142H7.894c-0.139,5.816-0.485,13.641-0.9,20.635
				L5.748,77.145H0l3.254-46.671h7.686l7.963,22.573c1.939,5.748,3.531,10.872,4.708,15.719h0.208
				c1.177-4.709,2.839-9.833,4.916-15.719l8.31-22.573h7.686l2.908,46.671h-5.886L40.577,56.649z"/>
			<path fill="#efedf5" d="M146.876,62.465l-4.847,14.68h-6.232l15.857-46.671h7.271l15.926,46.671h-6.44l-4.985-14.68H146.876z
				 M162.179,57.756l-4.57-13.434c-1.039-3.047-1.731-5.816-2.423-8.517h-0.139c-0.692,2.77-1.454,5.608-2.354,8.447l-4.57,13.503
				H162.179z"/>
			<path fill="#efedf5" d="M269.725,77.145V57.341l-14.749-26.867h6.854l6.579,12.88c1.8,3.531,3.185,6.37,4.639,9.624h0.139
				c1.315-3.046,2.908-6.093,4.709-9.624l6.717-12.88h6.854l-15.648,26.798v19.873H269.725z"/>
			<path fill="#efedf5" d="M381.839,62.465l-4.848,14.68h-6.231l15.856-46.671h7.271l15.927,46.671h-6.44l-4.985-14.68H381.839z
				 M397.142,57.756l-4.57-13.434c-1.038-3.047-1.731-5.816-2.424-8.517h-0.138c-0.692,2.77-1.454,5.608-2.354,8.447l-4.57,13.503
				H397.142z"/>
		</g>
		<line fill="none" stroke="#efedf5" stroke-miterlimit="10" x1="96.021" y1="0" x2="96.021" y2="89.814"/>
		<line fill="none" stroke="#efedf5" stroke-miterlimit="10" x1="217.021" y1="0" x2="217.021" y2="89.814"/>
		<line fill="none" stroke="#efedf5" stroke-miterlimit="10" x1="329.288" y1="0" x2="329.288" y2="89.814"/>
	</g>
	<g>
		<path fill="#efedf5" d="M120.284,130.243c0.812-0.171,2.092-0.299,3.395-0.299c1.856,0,3.053,0.32,3.949,1.046
			c0.747,0.556,1.195,1.409,1.195,2.541c0,1.388-0.918,2.604-2.434,3.159v0.043c1.366,0.342,2.967,1.473,2.967,3.607
			c0,1.238-0.49,2.178-1.217,2.882c-1.003,0.918-2.625,1.345-4.974,1.345c-1.28,0-2.263-0.085-2.882-0.171V130.243z
			 M122.142,136.135h1.687c1.964,0,3.116-1.025,3.116-2.412c0-1.687-1.28-2.349-3.159-2.349c-0.854,0-1.345,0.064-1.644,0.128
			V136.135z M122.142,143.03c0.362,0.064,0.896,0.086,1.559,0.086c1.921,0,3.692-0.705,3.692-2.797c0-1.964-1.687-2.775-3.714-2.775
			h-1.537V143.03z"/>
		<path fill="#efedf5" d="M152.694,137.095c0,4.953-3.01,7.578-6.682,7.578c-3.8,0-6.468-2.945-6.468-7.3
			c0-4.568,2.839-7.558,6.682-7.558C150.154,129.816,152.694,132.826,152.694,137.095z M141.53,137.331
			c0,3.074,1.665,5.827,4.589,5.827c2.946,0,4.611-2.711,4.611-5.977c0-2.86-1.494-5.85-4.59-5.85
			C143.066,131.332,141.53,134.171,141.53,137.331z"/>
		<path fill="#efedf5" d="M165.509,130.051v8.518c0,3.223,1.431,4.589,3.352,4.589c2.135,0,3.501-1.408,3.501-4.589v-8.518h1.879
			v8.39c0,4.418-2.327,6.232-5.443,6.232c-2.946,0-5.166-1.686-5.166-6.147v-8.475H165.509z"/>
		<path fill="#efedf5" d="M188.741,131.63h-4.377v-1.579h10.652v1.579h-4.397v12.809h-1.878V131.63z"/>
		<path fill="#efedf5" d="M207.019,130.051v14.388h-1.856v-14.388H207.019z"/>
		<path fill="#efedf5" d="M230.676,146.552c-1.943-0.513-3.843-1.089-5.508-1.665c-0.299-0.106-0.598-0.214-0.876-0.214
			c-3.415-0.128-6.34-2.646-6.34-7.279c0-4.61,2.818-7.578,6.703-7.578c3.907,0,6.447,3.031,6.447,7.279
			c0,3.693-1.708,6.062-4.099,6.896v0.085c1.43,0.363,2.988,0.705,4.205,0.918L230.676,146.552z M229.139,137.181
			c0-2.882-1.494-5.85-4.548-5.85c-3.138,0-4.675,2.903-4.653,6.021c-0.021,3.053,1.665,5.806,4.568,5.806
			C227.474,143.158,229.139,140.468,229.139,137.181z"/>
		<path fill="#efedf5" d="M243.917,130.051v8.518c0,3.223,1.431,4.589,3.352,4.589c2.135,0,3.501-1.408,3.501-4.589v-8.518h1.879
			v8.39c0,4.418-2.327,6.232-5.444,6.232c-2.945,0-5.166-1.686-5.166-6.147v-8.475H243.917z"/>
		<path fill="#efedf5" d="M271.866,137.693h-5.593v5.188h6.233v1.559h-8.091v-14.388h7.771v1.559h-5.913v4.547h5.593V137.693z"/>
	</g>
</g>
</svg>
