<?xml version="1.0" encoding="utf-8"?>
<!-- Generator: Adobe Illustrator 16.0.0, SVG Export Plug-In . SVG Version: 6.00 Build 0)  -->
<!DOCTYPE svg PUBLIC "-//W3C//DTD SVG 1.1//EN" "http://www.w3.org/Graphics/SVG/1.1/DTD/svg11.dtd">
<svg version="1.1" id="Layer_1" xmlns="http://www.w3.org/2000/svg" xmlns:xlink="http://www.w3.org/1999/xlink" x="0px" y="0px"
	 width="444.058px" height="127.543px" viewBox="0 0 444.058 127.543" enable-background="new 0 0 444.058 127.543"
	 xml:space="preserve">
<g>
	<g>
		<path fill="#010101" d="M13.43,41.801L7.554,59.596H0L19.222,3.021h8.813l19.306,56.575h-7.806l-6.044-17.795H13.43z
			 M31.98,36.093l-5.54-16.284c-1.259-3.693-2.099-7.051-2.938-10.324h-0.167c-0.839,3.357-1.763,6.799-2.854,10.241l-5.54,16.368
			H31.98z"/>
		<path fill="#010101" d="M88.391,48.516c0,4.197,0.084,7.891,0.336,11.08h-6.547l-0.419-6.631h-0.168
			c-1.931,3.274-6.211,7.555-13.43,7.555c-6.379,0-14.018-3.525-14.018-17.795V18.97h7.387v22.496
			c0,7.723,2.351,12.927,9.065,12.927c4.953,0,8.394-3.441,9.737-6.715c0.42-1.091,0.671-2.434,0.671-3.777V18.97h7.387V48.516z"/>
		<path fill="#010101" d="M99.641,52.042c2.183,1.427,6.044,2.938,9.737,2.938c5.372,0,7.891-2.686,7.891-6.043
			c0-3.525-2.099-5.456-7.555-7.471c-7.303-2.602-10.744-6.631-10.744-11.5c0-6.547,5.288-11.919,14.018-11.919
			c4.113,0,7.723,1.175,9.989,2.519l-1.847,5.372c-1.595-1.007-4.533-2.351-8.31-2.351c-4.365,0-6.799,2.518-6.799,5.54
			c0,3.357,2.434,4.869,7.723,6.883c7.051,2.686,10.66,6.211,10.66,12.255c0,7.135-5.54,12.171-15.193,12.171
			c-4.449,0-8.562-1.091-11.416-2.77L99.641,52.042z"/>
		<path fill="#010101" d="M142.787,7.302V18.97h10.576v5.624h-10.576v21.908c0,5.036,1.427,7.89,5.54,7.89
			c1.931,0,3.357-0.252,4.281-0.504l0.336,5.54c-1.427,0.588-3.693,1.007-6.547,1.007c-3.441,0-6.211-1.091-7.974-3.105
			c-2.099-2.183-2.854-5.792-2.854-10.577v-22.16h-6.295V18.97h6.295V9.233L142.787,7.302z"/>
		<path fill="#010101" d="M169.901,7.554c0.084,2.518-1.763,4.533-4.701,4.533c-2.602,0-4.449-2.015-4.449-4.533
			c0-2.602,1.931-4.617,4.617-4.617C168.138,2.938,169.901,4.952,169.901,7.554z M161.675,59.596V18.97h7.387v40.626H161.675z"/>
		<path fill="#010101" d="M181.317,29.966c0-4.197-0.084-7.638-0.335-10.996h6.547l0.42,6.715h0.168
			c2.014-3.861,6.715-7.639,13.43-7.639c5.624,0,14.353,3.358,14.353,17.292v24.258h-7.386V36.177
			c0-6.547-2.434-12.003-9.401-12.003c-4.868,0-8.646,3.441-9.905,7.554c-0.335,0.923-0.503,2.183-0.503,3.441v24.426h-7.387V29.966
			z"/>
		<path fill="#010101" d="M245.952,3.777c3.19-0.671,8.227-1.175,13.347-1.175c7.303,0,12.003,1.259,15.528,4.113
			c2.938,2.183,4.701,5.54,4.701,9.989c0,5.456-3.609,10.24-9.569,12.423v0.168c5.372,1.343,11.668,5.792,11.668,14.186
			c0,4.869-1.931,8.562-4.785,11.332c-3.945,3.609-10.324,5.288-19.558,5.288c-5.036,0-8.897-0.335-11.332-0.671V3.777z
			 M253.255,26.944h6.632c7.722,0,12.255-4.029,12.255-9.485c0-6.631-5.036-9.233-12.423-9.233c-3.357,0-5.288,0.252-6.464,0.504
			V26.944z M253.255,54.056c1.428,0.252,3.525,0.336,6.128,0.336c7.555,0,14.521-2.77,14.521-10.996
			c0-7.722-6.631-10.912-14.605-10.912h-6.044V54.056z"/>
		<path fill="#010101" d="M291.198,31.645c0-4.784-0.084-8.897-0.336-12.675h6.463l0.252,7.974h0.336
			c1.847-5.456,6.295-8.897,11.248-8.897c0.839,0,1.427,0.084,2.098,0.252v6.967c-0.755-0.167-1.511-0.251-2.518-0.251
			c-5.204,0-8.897,3.945-9.905,9.485c-0.168,1.007-0.336,2.183-0.336,3.441v21.656h-7.302V31.645z"/>
		<path fill="#010101" d="M354.573,38.947c0,15.025-10.408,21.572-20.229,21.572c-10.996,0-19.474-8.058-19.474-20.901
			c0-13.598,8.897-21.572,20.146-21.572C346.683,18.046,354.573,26.524,354.573,38.947z M322.341,39.367
			c0,8.897,5.12,15.612,12.339,15.612c7.051,0,12.339-6.631,12.339-15.78c0-6.883-3.441-15.613-12.171-15.613
			S322.341,31.645,322.341,39.367z"/>
		<path fill="#010101" d="M400.658,38.947c0,15.025-10.408,21.572-20.229,21.572c-10.996,0-19.474-8.058-19.474-20.901
			c0-13.598,8.897-21.572,20.146-21.572C392.768,18.046,400.658,26.524,400.658,38.947z M368.426,39.367
			c0,8.897,5.12,15.612,12.339,15.612c7.051,0,12.339-6.631,12.339-15.78c0-6.883-3.441-15.613-12.171-15.613
			S368.426,31.645,368.426,39.367z"/>
		<path fill="#010101" d="M417.281,37.604h0.167c1.008-1.427,2.435-3.19,3.609-4.617l11.92-14.018h8.897l-15.696,16.704
			l17.879,23.922h-8.981l-14.019-19.474l-3.776,4.197v15.277h-7.303V0h7.303V37.604z"/>
	</g>
	<g>
		<path fill="#010101" d="M136.496,107.972h2.526v17.451h8.363v2.12h-10.889V107.972z"/>
		<path fill="#010101" d="M167.889,121.387l-2.033,6.156h-2.613l6.649-19.571h3.049l6.679,19.571h-2.701l-2.09-6.156H167.889z
			 M174.306,119.412l-1.917-5.633c-0.436-1.278-0.726-2.439-1.016-3.572h-0.058c-0.291,1.162-0.61,2.352-0.987,3.542l-1.917,5.662
			H174.306z"/>
		<path fill="#010101" d="M198.672,127.543l-4.965-19.571h2.671l2.323,9.901c0.581,2.439,1.103,4.879,1.452,6.767h0.058
			c0.319-1.946,0.929-4.269,1.597-6.795l2.613-9.873h2.643l2.381,9.931c0.552,2.323,1.074,4.646,1.365,6.708h0.058
			c0.407-2.149,0.958-4.327,1.568-6.766l2.584-9.873h2.584l-5.546,19.571h-2.642l-2.468-10.192c-0.61-2.497-1.017-4.414-1.278-6.388
			h-0.058c-0.348,1.946-0.784,3.862-1.51,6.388l-2.788,10.192H198.672z"/>
		<path fill="#010101" d="M238.924,127.543v-8.305l-6.185-11.267h2.874l2.759,5.401c0.755,1.481,1.336,2.671,1.945,4.037h0.059
			c0.552-1.278,1.22-2.556,1.975-4.037l2.816-5.401h2.875l-6.562,11.237v8.334H238.924z"/>
		<path fill="#010101" d="M274.731,118.367h-7.607v7.056h8.479v2.12h-11.005v-19.571h10.569v2.12h-8.043v6.185h7.607V118.367z"/>
		<path fill="#010101" d="M293.406,108.233c1.277-0.261,3.106-0.406,4.849-0.406c2.701,0,4.443,0.494,5.663,1.597
			c0.987,0.871,1.539,2.207,1.539,3.717c0,2.584-1.627,4.297-3.688,4.994v0.087c1.511,0.522,2.41,1.917,2.875,3.949
			c0.639,2.729,1.104,4.617,1.51,5.372h-2.613c-0.319-0.552-0.755-2.236-1.307-4.675c-0.581-2.701-1.626-3.717-3.92-3.804h-2.381
			v8.479h-2.526V108.233z M295.933,117.147h2.584c2.7,0,4.414-1.481,4.414-3.717c0-2.526-1.83-3.629-4.501-3.659
			c-1.22,0-2.091,0.116-2.497,0.232V117.147z"/>
	</g>
</g>
</svg>
