<?xml version="1.0" encoding="utf-8"?>
<!-- Generator: Adobe Illustrator 16.0.0, SVG Export Plug-In . SVG Version: 6.00 Build 0)  -->
<!DOCTYPE svg PUBLIC "-//W3C//DTD SVG 1.1//EN" "http://www.w3.org/Graphics/SVG/1.1/DTD/svg11.dtd">
<svg version="1.1" id="Layer_1" xmlns="http://www.w3.org/2000/svg" xmlns:xlink="http://www.w3.org/1999/xlink" x="0px" y="0px"
	 width="436.803px" height="118.074px" viewBox="0 0 436.803 118.074" enable-background="new 0 0 436.803 118.074"
	 xml:space="preserve">
<g>
	<g>
		<g>
			<path fill="#010101" d="M51.947,65.858v50.948H1V65.858H51.947 M52.947,64.858H0v52.948h52.947V64.858L52.947,64.858z"/>
		</g>
		<g>
			<defs>
				<rect id="SVGID_1_" width="52.947" height="52.941"/>
			</defs>
			<use xlink:href="#SVGID_1_"  overflow="visible" fill="#010101"/>
			<clipPath id="SVGID_2_">
				<use xlink:href="#SVGID_1_"  overflow="visible"/>
			</clipPath>
		</g>
		<g>
			<defs>
				<rect id="SVGID_3_" x="64.859" width="52.947" height="117.807"/>
			</defs>
			<clipPath id="SVGID_4_">
				<use xlink:href="#SVGID_3_"  overflow="visible"/>
			</clipPath>
			<g clip-path="url(#SVGID_4_)">
				<line fill="none" stroke="#010101" stroke-miterlimit="10" x1="96.707" y1="-31.521" x2="29.469" y2="35.716"/>
				<line fill="none" stroke="#010101" stroke-miterlimit="10" x1="103.161" y1="-25.048" x2="32.958" y2="45.153"/>
				<line fill="none" stroke="#010101" stroke-miterlimit="10" x1="109.615" y1="-18.576" x2="36.448" y2="54.591"/>
				<line fill="none" stroke="#010101" stroke-miterlimit="10" x1="116.07" y1="-12.104" x2="39.938" y2="64.028"/>
				<line fill="none" stroke="#010101" stroke-miterlimit="10" x1="122.525" y1="-5.632" x2="43.427" y2="73.466"/>
				<line fill="none" stroke="#010101" stroke-miterlimit="10" x1="128.979" y1="0.841" x2="46.917" y2="82.902"/>
				<line fill="none" stroke="#010101" stroke-miterlimit="10" x1="135.434" y1="7.312" x2="50.407" y2="92.34"/>
				<line fill="none" stroke="#010101" stroke-miterlimit="10" x1="141.889" y1="13.785" x2="53.896" y2="101.777"/>
				<line fill="none" stroke="#010101" stroke-miterlimit="10" x1="148.343" y1="20.257" x2="57.386" y2="111.215"/>
				<line fill="none" stroke="#010101" stroke-miterlimit="10" x1="154.797" y1="26.729" x2="60.875" y2="120.651"/>
				<line fill="none" stroke="#010101" stroke-miterlimit="10" x1="161.252" y1="33.202" x2="64.365" y2="130.089"/>
				<line fill="none" stroke="#010101" stroke-miterlimit="10" x1="167.707" y1="39.674" x2="67.854" y2="139.526"/>
				<line fill="none" stroke="#010101" stroke-miterlimit="10" x1="174.161" y1="46.146" x2="71.344" y2="148.964"/>
				<line fill="none" stroke="#010101" stroke-miterlimit="10" x1="180.616" y1="52.618" x2="74.834" y2="158.401"/>
			</g>
		</g>
	</g>
	<g>
		<g>
			<path fill="#010101" d="M173.538,34.724l-4.778,14.47h-6.143l15.629-46.002h7.167l15.698,46.002h-6.347l-4.915-14.47H173.538z
				 M188.621,30.083l-4.504-13.241c-1.024-3.003-1.707-5.733-2.389-8.396h-0.136c-0.683,2.73-1.434,5.528-2.321,8.327l-4.504,13.31
				H188.621z"/>
			<path fill="#010101" d="M225.549,3.191v27.232c0,10.307,4.573,14.675,10.716,14.675c6.825,0,11.194-4.505,11.194-14.675V3.191
				h6.006v26.823c0,14.128-7.439,19.93-17.404,19.93c-9.419,0-16.517-5.393-16.517-19.657V3.191H225.549z"/>
			<path fill="#010101" d="M276.605,41.959c2.662,1.638,6.553,3.003,10.648,3.003c6.074,0,9.623-3.208,9.623-7.85
				c0-4.3-2.457-6.757-8.668-9.146c-7.508-2.662-12.148-6.552-12.148-13.036c0-7.167,5.938-12.49,14.879-12.49
				c4.709,0,8.121,1.092,10.17,2.252l-1.639,4.847c-1.502-0.819-4.572-2.185-8.736-2.185c-6.279,0-8.668,3.754-8.668,6.894
				c0,4.3,2.799,6.416,9.146,8.873c7.779,3.003,11.738,6.757,11.738,13.514c0,7.099-5.256,13.241-16.107,13.241
				c-4.436,0-9.283-1.297-11.74-2.935L276.605,41.959z"/>
			<path fill="#010101" d="M333.463,8.242h-13.992V3.191h34.059v5.051h-14.061v40.951h-6.006V8.242z"/>
			<path fill="#010101" d="M378.24,3.191v46.002h-5.938V3.191H378.24z"/>
			<path fill="#010101" d="M402.268,49.193V3.191h6.482l14.744,23.273c3.412,5.393,6.074,10.238,8.258,14.947l0.137-0.067
				c-0.547-6.144-0.684-11.74-0.684-18.906V3.191h5.598v46.002h-6.006l-14.607-23.343c-3.207-5.118-6.279-10.374-8.6-15.356
				l-0.205,0.068c0.342,5.802,0.479,11.33,0.479,18.974v19.657H402.268z"/>
			<path fill="#010101" d="M166.098,71.936c2.594-0.546,6.689-0.956,10.853-0.956c5.938,0,9.76,1.024,12.626,3.345
				c2.389,1.774,3.822,4.505,3.822,8.122c0,4.437-2.935,8.327-7.781,10.102v0.136c4.368,1.093,9.487,4.71,9.487,11.535
				c0,3.959-1.57,6.962-3.89,9.214c-3.208,2.936-8.395,4.3-15.903,4.3c-4.095,0-7.235-0.272-9.214-0.546V71.936z M172.036,90.773
				h5.392c6.279,0,9.965-3.276,9.965-7.713c0-5.392-4.095-7.508-10.101-7.508c-2.73,0-4.3,0.205-5.256,0.409V90.773z
				 M172.036,112.818c1.161,0.205,2.867,0.273,4.982,0.273c6.143,0,11.808-2.253,11.808-8.941c0-6.279-5.392-8.873-11.876-8.873
				h-4.915V112.818z"/>
			<path fill="#010101" d="M216.744,71.936c3.003-0.614,7.303-0.956,11.398-0.956c6.347,0,10.443,1.16,13.309,3.754
				c2.32,2.048,3.617,5.188,3.617,8.736c0,6.075-3.822,10.102-8.667,11.739v0.205c3.55,1.229,5.666,4.505,6.757,9.282
				c1.502,6.416,2.594,10.853,3.549,12.627h-6.143c-0.75-1.297-1.775-5.256-3.071-10.988c-1.365-6.348-3.822-8.736-9.214-8.941
				h-5.597v19.93h-5.938V71.936z M222.682,92.889h6.075c6.348,0,10.374-3.48,10.374-8.736c0-5.938-4.3-8.531-10.579-8.6
				c-2.867,0-4.915,0.272-5.87,0.546V92.889z"/>
			<path fill="#010101" d="M306.635,93.845c0,15.834-9.623,24.229-21.363,24.229c-12.148,0-20.68-9.419-20.68-23.343
				c0-14.605,9.078-24.161,21.363-24.161C298.514,70.57,306.635,80.194,306.635,93.845z M270.939,94.595
				c0,9.829,5.322,18.634,14.674,18.634c9.418,0,14.742-8.669,14.742-19.111c0-9.146-4.777-18.701-14.674-18.701
				C275.854,75.416,270.939,84.494,270.939,94.595z"/>
			<path fill="#010101" d="M367.316,93.845c0,15.834-9.625,24.229-21.363,24.229c-12.15,0-20.682-9.419-20.682-23.343
				c0-14.605,9.078-24.161,21.363-24.161C359.193,70.57,367.316,80.194,367.316,93.845z M331.619,94.595
				c0,9.829,5.324,18.634,14.674,18.634c9.42,0,14.744-8.669,14.744-19.111c0-9.146-4.779-18.701-14.676-18.701
				C336.533,75.416,331.619,84.494,331.619,94.595z"/>
			<path fill="#010101" d="M388.684,71.321h5.938v22.182h0.205c1.229-1.774,2.457-3.412,3.617-4.914l14.061-17.268h7.371
				l-16.654,19.52l17.951,26.482h-7.031l-15.152-22.592l-4.367,5.051v17.541h-5.938V71.321z"/>
		</g>
	</g>
</g>
</svg>
