<?xml version="1.0" encoding="utf-8"?>
<!-- Generator: Adobe Illustrator 16.0.0, SVG Export Plug-In . SVG Version: 6.00 Build 0)  -->
<!DOCTYPE svg PUBLIC "-//W3C//DTD SVG 1.1//EN" "http://www.w3.org/Graphics/SVG/1.1/DTD/svg11.dtd">
<svg version="1.1" id="Layer_1" xmlns="http://www.w3.org/2000/svg" xmlns:xlink="http://www.w3.org/1999/xlink" x="0px" y="0px"
	 width="449.231px" height="71.74px" viewBox="0 0 449.231 71.74" enable-background="new 0 0 449.231 71.74" xml:space="preserve">
<g>
	<g>
		<path fill="#010101" d="M53.627,25.367c1.638-0.335,3.984-0.521,6.218-0.521c3.462,0,5.696,0.633,7.26,2.048
			c1.266,1.117,1.973,2.829,1.973,4.766c0,3.313-2.085,5.51-4.729,6.403v0.112c1.936,0.67,3.09,2.457,3.686,5.063
			c0.819,3.499,1.415,5.92,1.936,6.888h-3.351c-0.409-0.708-0.968-2.867-1.675-5.994c-0.745-3.463-2.085-4.766-5.026-4.878h-3.053
			v10.872h-3.239V25.367z M56.866,36.797h3.313c3.462,0,5.659-1.898,5.659-4.766c0-3.239-2.346-4.654-5.771-4.691
			c-1.563,0-2.681,0.149-3.202,0.298V36.797z"/>
		<path fill="#010101" d="M101.914,37.318c0,8.638-5.25,13.217-11.653,13.217c-6.627,0-11.281-5.138-11.281-12.733
			c0-7.967,4.952-13.18,11.653-13.18C97.483,24.622,101.914,29.872,101.914,37.318z M82.441,37.728
			c0,5.361,2.904,10.164,8.005,10.164c5.138,0,8.042-4.729,8.042-10.425c0-4.988-2.606-10.201-8.005-10.201
			C85.122,27.266,82.441,32.218,82.441,37.728z"/>
		<path fill="#010101" d="M112.374,46.18c1.452,0.894,3.574,1.638,5.808,1.638c3.313,0,5.25-1.75,5.25-4.281
			c0-2.346-1.34-3.687-4.729-4.989c-4.095-1.452-6.627-3.574-6.627-7.111c0-3.909,3.239-6.813,8.116-6.813
			c2.569,0,4.431,0.596,5.548,1.229l-0.894,2.644c-0.819-0.446-2.495-1.191-4.766-1.191c-3.425,0-4.729,2.048-4.729,3.761
			c0,2.346,1.526,3.5,4.989,4.84c4.244,1.639,6.403,3.686,6.403,7.372c0,3.872-2.867,7.223-8.786,7.223
			c-2.42,0-5.063-0.707-6.404-1.601L112.374,46.18z"/>
		<path fill="#010101" d="M141.114,25.032v25.094h-3.239V25.032H141.114z"/>
		<path fill="#010101" d="M166.468,38.36h-9.754v9.048h10.872v2.718h-14.111V25.032h13.552v2.718h-10.313v7.93h9.754V38.36z"/>
		<path fill="#010101" d="M193.084,25.032h3.239v22.376h10.723v2.718h-13.962V25.032z"/>
		<path fill="#010101" d="M219.256,25.032v14.854c0,5.622,2.494,8.005,5.845,8.005c3.723,0,6.106-2.457,6.106-8.005V25.032h3.276
			v14.632c0,7.707-4.058,10.871-9.494,10.871c-5.138,0-9.01-2.941-9.01-10.723v-14.78H219.256z"/>
		<path fill="#010101" d="M246.804,50.126V25.032h3.537l8.042,12.695c1.862,2.941,3.313,5.585,4.505,8.154l0.075-0.038
			c-0.298-3.351-0.372-6.403-0.372-10.312V25.032h3.053v25.094h-3.276L254.4,37.393c-1.75-2.792-3.426-5.659-4.691-8.377
			l-0.111,0.037c0.186,3.165,0.261,6.181,0.261,10.351v10.723H246.804z"/>
		<path fill="#010101" d="M283.141,25.032h3.239v16.791c0,6.664-3.276,8.712-7.596,8.712c-1.191,0-2.644-0.261-3.463-0.596
			l0.484-2.644c0.67,0.261,1.639,0.484,2.718,0.484c2.904,0,4.617-1.303,4.617-6.218V25.032z"/>
		<path fill="#010101" d="M298.478,25.367c1.415-0.298,3.649-0.521,5.92-0.521c3.239,0,5.324,0.559,6.889,1.824
			c1.303,0.968,2.084,2.457,2.084,4.431c0,2.42-1.601,4.542-4.244,5.51v0.075c2.383,0.596,5.176,2.568,5.176,6.292
			c0,2.159-0.856,3.798-2.123,5.026c-1.749,1.601-4.579,2.346-8.675,2.346c-2.233,0-3.946-0.149-5.026-0.298V25.367z
			 M301.717,35.643h2.941c3.426,0,5.437-1.787,5.437-4.207c0-2.941-2.234-4.096-5.511-4.096c-1.489,0-2.346,0.112-2.867,0.224
			V35.643z M301.717,47.669c0.634,0.111,1.564,0.148,2.718,0.148c3.352,0,6.441-1.229,6.441-4.877c0-3.426-2.941-4.841-6.479-4.841
			h-2.681V47.669z"/>
		<path fill="#010101" d="M338.351,38.36h-9.755v9.048h10.872v2.718h-14.111V25.032h13.553v2.718h-10.313v7.93h9.755V38.36z"/>
		<path fill="#010101" d="M350.375,25.367c1.639-0.335,3.984-0.521,6.218-0.521c3.463,0,5.696,0.633,7.261,2.048
			c1.266,1.117,1.973,2.829,1.973,4.766c0,3.313-2.085,5.51-4.729,6.403v0.112c1.937,0.67,3.091,2.457,3.687,5.063
			c0.819,3.499,1.415,5.92,1.936,6.888h-3.351c-0.409-0.708-0.968-2.867-1.676-5.994c-0.744-3.463-2.084-4.766-5.025-4.878h-3.054
			v10.872h-3.239V25.367z M353.614,36.797h3.313c3.463,0,5.66-1.898,5.66-4.766c0-3.239-2.346-4.654-5.771-4.691
			c-1.563,0-2.681,0.149-3.202,0.298V36.797z"/>
		<path fill="#010101" d="M396.316,49.009c-1.452,0.521-4.319,1.378-7.707,1.378c-3.798,0-6.926-0.969-9.383-3.313
			c-2.159-2.085-3.5-5.437-3.5-9.346c0.038-7.483,5.176-12.956,13.59-12.956c2.904,0,5.176,0.633,6.255,1.154l-0.782,2.643
			c-1.34-0.596-3.016-1.079-5.547-1.079c-6.106,0-10.09,3.798-10.09,10.09c0,6.366,3.835,10.127,9.68,10.127
			c2.123,0,3.574-0.298,4.319-0.671v-7.483h-5.101v-2.605h8.266V49.009z"/>
	</g>
	<g>
		<polyline fill="none" stroke="#010101" stroke-miterlimit="10" points="295.765,71.74 449.231,71.74 449.231,0 		"/>
		<polyline fill="none" stroke="#010101" stroke-miterlimit="10" points="153.467,0 0,0 0,71.74 		"/>
	</g>
</g>
</svg>
