<?xml version="1.0" encoding="utf-8"?>
<!-- Generator: Adobe Illustrator 16.0.0, SVG Export Plug-In . SVG Version: 6.00 Build 0)  -->
<!DOCTYPE svg PUBLIC "-//W3C//DTD SVG 1.1//EN" "http://www.w3.org/Graphics/SVG/1.1/DTD/svg11.dtd">
<svg version="1.1" id="Layer_1" xmlns="http://www.w3.org/2000/svg" xmlns:xlink="http://www.w3.org/1999/xlink" x="0px" y="0px"
	 width="425.752px" height="154.949px" viewBox="0 0 425.752 154.949" enable-background="new 0 0 425.752 154.949"
	 xml:space="preserve">
<g>
	<rect x="218.034" fill="none" stroke="#010101" stroke-miterlimit="10" width="77.477" height="77.477"/>
	<rect x="140.562" y="77.477" fill="none" stroke="#010101" stroke-miterlimit="10" width="77.473" height="77.473"/>
	<g>
		<path fill="#010101" d="M242.415,23.579h4.25v15.874h0.146c0.879-1.27,1.758-2.442,2.588-3.517l10.062-12.357h5.274
			l-11.917,13.969L265.665,56.5h-5.031l-10.843-16.167l-3.126,3.614V56.5h-4.25V23.579z"/>
	</g>
	<g>
		<path fill="#010101" d="M270.158,120.563c-0.244-4.591-0.537-10.111-0.488-14.213h-0.146c-1.124,3.858-2.491,7.961-4.151,12.504
			l-5.812,15.972h-3.224l-5.324-15.679c-1.563-4.64-2.882-8.89-3.81-12.797h-0.098c-0.098,4.103-0.342,9.622-0.636,14.555
			l-0.879,14.116h-4.054l2.296-32.92h5.421l5.617,15.923c1.368,4.054,2.491,7.668,3.321,11.087h0.146
			c0.831-3.321,2.003-6.936,3.468-11.087l5.861-15.923h5.422l2.052,32.92h-4.152L270.158,120.563z"/>
		<path fill="#010101" d="M285.93,102.1v32.92h-4.25V102.1H285.93z"/>
		<path fill="#010101" d="M316.358,133.946c-1.563,0.781-4.689,1.562-8.694,1.562c-9.28,0-16.265-5.861-16.265-16.655
			c0-10.306,6.984-17.291,17.192-17.291c4.103,0,6.691,0.879,7.815,1.465l-1.026,3.468c-1.611-0.782-3.907-1.368-6.643-1.368
			c-7.717,0-12.846,4.933-12.846,13.579c0,8.059,4.64,13.236,12.65,13.236c2.589,0,5.227-0.537,6.936-1.368L316.358,133.946z"/>
		<path fill="#010101" d="M325.928,102.1v13.774h15.923V102.1h4.298v32.92h-4.298v-15.435h-15.923v15.435h-4.25V102.1H325.928z"/>
		<path fill="#010101" d="M358.844,124.666l-3.419,10.355h-4.396l11.186-32.92h5.129l11.233,32.92h-4.542l-3.517-10.355H358.844z
			 M369.638,121.344l-3.224-9.476c-0.732-2.149-1.221-4.103-1.709-6.008h-0.098c-0.488,1.954-1.026,3.957-1.661,5.959l-3.224,9.524
			H369.638z"/>
		<path fill="#010101" d="M400.455,119.586h-12.797v11.869h14.262v3.565h-18.512V102.1h17.779v3.565h-13.529v10.404h12.797V119.586z
			"/>
		<path fill="#010101" d="M407.436,102.1h4.25v29.355h14.066v3.565h-18.316V102.1z"/>
	</g>
	<g>
		<path fill="#010101" d="M190.461,120.564c-0.244-4.591-0.537-10.111-0.488-14.213h-0.146c-1.124,3.858-2.491,7.961-4.152,12.504
			l-5.812,15.972h-3.224l-5.324-15.679c-1.563-4.64-2.882-8.89-3.81-12.797h-0.098c-0.098,4.103-0.342,9.622-0.635,14.555
			l-0.879,14.116h-4.054l2.295-32.92h5.422l5.617,15.923c1.368,4.054,2.491,7.668,3.321,11.087h0.147
			c0.83-3.321,2.002-6.936,3.468-11.087l5.861-15.923h5.421l2.051,32.92h-4.151L190.461,120.564z"/>
	</g>
	<g>
		<path fill="#010101" d="M0,23.577h4.25v15.874h0.146c0.879-1.27,1.758-2.442,2.589-3.517l10.062-12.357h5.275L10.404,37.546
			L23.25,56.497h-5.031L7.375,40.33L4.25,43.944v12.553H0V23.577z"/>
		<path fill="#010101" d="M32.282,46.142l-3.419,10.355h-4.396l11.185-32.92h5.128l11.234,32.92h-4.542l-3.517-10.355H32.282z
			 M43.077,42.821l-3.224-9.476c-0.733-2.149-1.221-4.103-1.709-6.008h-0.098c-0.488,1.954-1.025,3.957-1.661,5.959l-3.224,9.524
			H43.077z"/>
		<path fill="#010101" d="M59.338,27.191H49.326v-3.614h24.373v3.614H63.637v29.306h-4.298V27.191z"/>
		<path fill="#010101" d="M81.608,23.577v13.774h15.923V23.577h4.298v32.92h-4.298V41.062H81.608v15.435h-4.25v-32.92H81.608z"/>
		<path fill="#010101" d="M126.247,41.062H113.45v11.869h14.262v3.565H109.2v-32.92h17.779v3.565h-13.53v10.404h12.797V41.062z"/>
		<path fill="#010101" d="M133.228,24.016c2.149-0.439,5.227-0.684,8.157-0.684c4.542,0,7.473,0.83,9.524,2.686
			c1.661,1.465,2.588,3.712,2.588,6.252c0,4.347-2.735,7.229-6.203,8.401v0.146c2.54,0.879,4.054,3.224,4.835,6.643
			c1.075,4.591,1.856,7.766,2.54,9.036h-4.396c-0.537-0.928-1.27-3.761-2.198-7.864c-0.977-4.542-2.735-6.252-6.594-6.398h-4.005
			v14.262h-4.25V24.016z M137.478,39.011h4.347c4.542,0,7.424-2.491,7.424-6.252c0-4.25-3.077-6.105-7.571-6.154
			c-2.052,0-3.517,0.195-4.201,0.391V39.011z"/>
		<path fill="#010101" d="M163.752,23.577v32.92h-4.25v-32.92H163.752z"/>
		<path fill="#010101" d="M171.174,56.497v-32.92h4.64l10.55,16.656c2.442,3.858,4.347,7.326,5.91,10.696l0.098-0.049
			c-0.391-4.396-0.488-8.401-0.488-13.529V23.577h4.005v32.92h-4.298l-10.452-16.705c-2.296-3.663-4.494-7.424-6.154-10.99
			l-0.146,0.049c0.244,4.152,0.342,8.108,0.342,13.579v14.067H171.174z"/>
	</g>
</g>
</svg>
