<?xml version="1.0" encoding="utf-8"?>
<!-- Generator: Adobe Illustrator 16.0.0, SVG Export Plug-In . SVG Version: 6.00 Build 0)  -->
<!DOCTYPE svg PUBLIC "-//W3C//DTD SVG 1.1//EN" "http://www.w3.org/Graphics/SVG/1.1/DTD/svg11.dtd">
<svg version="1.1" id="Layer_1" xmlns="http://www.w3.org/2000/svg" xmlns:xlink="http://www.w3.org/1999/xlink" x="0px" y="0px"
	 width="432.672px" height="116.013px" viewBox="0 0 432.672 116.013" enable-background="new 0 0 432.672 116.013"
	 xml:space="preserve">
<g>
	<g>
		<g>
			<path fill="#efedf5" d="M0,31.055h31.622v6.359H7.579v19.513h22.214v6.272H7.579v26.569H0V31.055z"/>
			<path fill="#efedf5" d="M42.422,31.839c3.833-0.784,9.321-1.22,14.548-1.22c8.101,0,13.328,1.481,16.987,4.791
				c2.962,2.614,4.617,6.621,4.617,11.15c0,7.753-4.878,12.893-11.063,14.983v0.262c4.53,1.568,7.23,5.749,8.624,11.847
				c1.917,8.188,3.311,13.851,4.53,16.116h-7.84c-0.958-1.655-2.265-6.708-3.92-14.025c-1.742-8.102-4.878-11.15-11.76-11.412H50
				v25.437h-7.579V31.839z M50,58.583h7.753c8.102,0,13.241-4.443,13.241-11.15c0-7.579-5.488-10.889-13.502-10.977
				c-3.659,0-6.272,0.349-7.492,0.697V58.583z"/>
			<path fill="#efedf5" d="M89.286,31.055h7.579v28.312h0.261c1.568-2.265,3.136-4.355,4.617-6.272l17.945-22.04h9.408
				L107.84,55.969l22.911,33.8h-8.973l-19.339-28.834l-5.575,6.446v22.388h-7.579V31.055z"/>
		</g>
	</g>
	<g>
		<g>
			<path fill="#efedf5" d="M233.427,49.438V76.62h-3.508V49.438H233.427z"/>
			<path fill="#efedf5" d="M255.208,72.345c1.573,0.968,3.872,1.774,6.291,1.774c3.59,0,5.687-1.896,5.687-4.638
				c0-2.541-1.452-3.993-5.122-5.404c-4.436-1.573-7.178-3.872-7.178-7.703c0-4.234,3.508-7.38,8.791-7.38
				c2.783,0,4.8,0.646,6.01,1.331l-0.969,2.863c-0.887-0.484-2.701-1.291-5.162-1.291c-3.71,0-5.121,2.218-5.121,4.073
				c0,2.541,1.653,3.791,5.404,5.243c4.597,1.774,6.937,3.993,6.937,7.985c0,4.194-3.105,7.824-9.518,7.824
				c-2.622,0-5.485-0.766-6.938-1.734L255.208,72.345z"/>
			<path fill="#efedf5" d="M291.71,49.438h3.508v24.238h11.615v2.944H291.71V49.438z"/>
			<path fill="#efedf5" d="M331.275,68.07l-2.823,8.55h-3.63l9.235-27.182h4.235l9.275,27.182h-3.751l-2.903-8.55H331.275z
				 M340.188,65.328l-2.662-7.824c-0.605-1.775-1.008-3.388-1.411-4.96h-0.081c-0.403,1.613-0.847,3.267-1.371,4.92l-2.662,7.864
				H340.188z"/>
			<path fill="#efedf5" d="M367.697,76.62V49.438h3.831l8.711,13.752c2.017,3.186,3.589,6.049,4.88,8.832l0.08-0.04
				c-0.322-3.63-0.403-6.937-0.403-11.171V49.438h3.308V76.62h-3.549l-8.631-13.792c-1.896-3.025-3.71-6.13-5.081-9.074
				l-0.121,0.041c0.201,3.428,0.282,6.694,0.282,11.211V76.62H367.697z"/>
			<path fill="#efedf5" d="M410.37,49.801c2.137-0.323,4.678-0.564,7.46-0.564c5.042,0,8.631,1.169,11.011,3.388
				c2.419,2.218,3.831,5.364,3.831,9.759c0,4.437-1.371,8.066-3.912,10.566c-2.541,2.541-6.735,3.912-12.019,3.912
				c-2.5,0-4.597-0.121-6.371-0.323V49.801z M413.878,73.837c0.888,0.161,2.178,0.202,3.55,0.202
				c7.501,0,11.574-4.194,11.574-11.534c0.04-6.412-3.59-10.485-11.01-10.485c-1.815,0-3.187,0.161-4.114,0.363V73.837z"/>
		</g>
	</g>
	<line fill="none" stroke="#efedf5" stroke-miterlimit="10" x1="189.61" y1="0" x2="189.61" y2="116.013"/>
</g>
</svg>
