<?xml version="1.0" encoding="iso-8859-1"?>
<!-- Generator: Adobe Illustrator 20.0.0, SVG Export Plug-In . SVG Version: 6.00 Build 0)  -->
<svg version="1.1" id="Layer_1" xmlns="http://www.w3.org/2000/svg" xmlns:xlink="http://www.w3.org/1999/xlink" x="0px" y="0px"
	 viewBox="0 0 44 44" style="enable-background:new 0 0 44 44;" xml:space="preserve">
  <defs>
    <linearGradient id="grad2" x1="0%" y1="0%" x2="100%" y2="0%">
      <stop offset="0%" style="stop-color:#e74c3c;stop-opacity:1" />
      <stop offset="100%" style="stop-color:#c0392b;stop-opacity:1" />
    </linearGradient>
  </defs>
<g fill="url(#grad2)">
	<path d="M11,28H9c-3.859,0-7-3.141-7-7c0-3.606,2.702-6.601,6.284-6.964
		c0.444-0.045,0.805-0.379,0.884-0.817C10.025,8.456,14.161,5,19,5c2.317,0,4.577,0.814,6.361,2.293
		c0.427,0.354,1.057,0.294,1.407-0.132c0.353-0.425,0.294-1.055-0.132-1.407C24.495,3.978,21.782,3,19,3
		C13.437,3,8.648,6.807,7.351,12.15C3.111,12.93,0,16.612,0,21c0,4.963,4.037,9,9,9h2c0.553,0,1-0.447,1-1S11.553,28,11,28z"/>
	<path d="M27,27v-1c0,0,0,0,0,0s0,0,0,0c0-2.757-2.243-5-5-5s-5,2.243-5,5c0,0,0,0,0,0s0,0,0,0v1
		c-1.654,0-3,1.346-3,3v8c0,1.654,1.346,3,3,3h10c1.654,0,3-1.346,3-3v-8C30,28.346,28.654,27,27,27z M19,26
		C19,25.999,19,25.999,19,26c0-1.655,1.346-3,3-3s3,1.346,3,3c0,0,0,0,0,0s0,0,0,0v1h-6L19,26C19,26,19,26,19,26z M28,38
		c0,0.552-0.448,1-1,1H17c-0.552,0-1-0.448-1-1v-8c0-0.552,0.448-1,1-1h10c0.552,0,1,0.448,1,1V38z"/>
	<path d="M22,32c-0.553,0-1,0.447-1,1v2c0,0.553,0.447,1,1,1s1-0.447,1-1v-2C23,32.447,22.553,32,22,32z"/>
	<path d="M19,9c0.553,0,1-0.447,1-1s-0.447-1-1-1c-4.411,0-8,3.589-8,8c0,0.553,0.447,1,1,1s1-0.447,1-1
		C13,11.691,15.691,9,19,9z"/>
	<path d="M38,21c0,0.553,0.447,1,1,1s1-0.447,1-1c0-2.757-2.243-5-5-5c-0.553,0-1,0.447-1,1s0.447,1,1,1
		C36.654,18,38,19.346,38,21z"/>
	<path d="M37.98,12.516C37.733,9.433,35.146,7,32,7c-3.309,0-6,2.691-6,6c0,0.553,0.447,1,1,1s1-0.447,1-1
		c0-2.206,1.794-4,4-4s4,1.794,3.997,4.002c-0.01,0.068-0.019,0.138-0.021,0.209c-0.021,0.474,0.293,0.897,0.753,1.014
		C39.832,15.014,42,17.8,42,21c0,3.859-3.141,7-7,7h-2c-0.553,0-1,0.447-1,1s0.447,1,1,1h2c4.963,0,9-4.037,9-9
		C44,17.151,41.562,13.768,37.98,12.516z"/>
</g>
</svg>
