<?xml version="1.0" encoding="iso-8859-1"?>
<!-- Generator: Adobe Illustrator 20.0.0, SVG Export Plug-In . SVG Version: 6.00 Build 0)  -->
<svg version="1.1" id="Layer_1" xmlns="http://www.w3.org/2000/svg" xmlns:xlink="http://www.w3.org/1999/xlink" x="0px" y="0px"
	 viewBox="0 0 44 44" style="enable-background:new 0 0 44 44;" xml:space="preserve">
  <defs>
    <linearGradient id="grad1" x1="0%" y1="0%" x2="100%" y2="0%">
      <stop offset="0%" style="stop-color:#59fddf;stop-opacity:1" />
      <stop offset="100%" style="stop-color:#54d98c;stop-opacity:1" />
    </linearGradient>
  </defs>	 
<g fill="url(#grad1)">
	<path d="M36.962,8.575C36.987,8.381,37,8.19,37,8c0-2.757-2.243-5-5-5c-1.111,0-2.17,0.371-3.035,1.042C26.699,1.493,23.425,0,20,0
		c-5.128,0-9.701,3.306-11.347,8.119C4.871,8.766,2,12.103,2,16c0,4.411,3.589,8,7.999,8c0,0,0,0,0,0h4c0.552,0,1-0.448,1-1
		s-0.448-1-1-1h-4c-3.309,0-6-2.691-6-6c0-3.095,2.416-5.719,5.5-5.974c0.417-0.034,0.768-0.324,0.88-0.727
		C11.584,5.001,15.541,2,20,2c3.172,0,6.189,1.539,8.071,4.116c0.184,0.252,0.476,0.404,0.788,0.41
		c0.275-0.016,0.609-0.134,0.803-0.378C30.241,5.418,31.093,5,32,5c1.654,0,3,1.346,3,3c0,0.284-0.054,0.587-0.166,0.927
		c-0.086,0.262-0.06,0.547,0.072,0.789c0.132,0.242,0.357,0.419,0.624,0.489C38.162,10.898,40,13.281,40,16c0,3.309-2.691,6-6,6
		c0,0,0,0,0,0s0,0,0,0h-4c-0.552,0-1,0.448-1,1s0.448,1,1,1h4c0,0,0,0,0,0s0,0,0,0c4.411,0,8-3.589,8-8
		C42,12.701,39.971,9.772,36.962,8.575z"/>
	<path d="M17.999,17c-0.552,0-1,0.448-1,1l0,13c0,0.551-0.449,1-1,1h-2.184c-0.414-1.161-1.514-2-2.816-2c-1.654,0-3,1.346-3,3
		s1.346,3,3,3c1.302,0,2.402-0.839,2.816-2H16c1.654,0,3-1.346,3-3l0-13C18.999,17.448,18.551,17,17.999,17z M11,34
		c-0.551,0-1-0.449-1-1s0.449-1,1-1s1,0.449,1,1S11.551,34,11,34z"/>
	<path d="M23,38.184L23,16c0-0.552-0.448-1-1-1s-1,0.448-1,1l0,22.184c-1.161,0.414-2,1.514-2,2.816c0,1.654,1.346,3,3,3
		s3-1.346,3-3C25,39.698,24.162,38.598,23,38.184z M22,42c-0.551,0-1-0.449-1-1s0.449-1,1-1s1,0.449,1,1S22.551,42,22,42z"/>
	<path d="M33,30c-1.302,0-2.402,0.839-2.816,2H28c-0.551,0-1-0.449-1-1l0-13c0-0.552-0.448-1-1-1s-1,0.448-1,1l0,13
		c0,1.654,1.346,3,3,3h2.184c0.414,1.161,1.514,2,2.816,2c1.654,0,3-1.346,3-3S34.654,30,33,30z M33,34c-0.551,0-1-0.449-1-1
		s0.449-1,1-1s1,0.449,1,1S33.551,34,33,34z"/>
</g>
</svg>
