<?xml version="1.0" encoding="iso-8859-1"?>
<!-- Generator: Adobe Illustrator 19.0.1, SVG Export Plug-In . SVG Version: 6.00 Build 0)  -->
<svg version="1.1" xmlns="http://www.w3.org/2000/svg" xmlns:xlink="http://www.w3.org/1999/xlink" x="0px" y="0px"
	 viewBox="0 0 128 128" style="enable-background:new 0 0 128 128;" xml:space="preserve">
<g id="_x38_">
	<path style="fill:#F4D03F;" d="M17.072,42.047c-1.06,0-2.011,0.426-2.705,1.121c-0.695,0.695-1.121,1.645-1.121,2.693V85.38
		c0,2.096,1.718,3.814,3.826,3.814c1.048,0,1.998-0.426,2.693-1.121c0.695-0.695,1.121-1.645,1.121-2.693V45.861
		C20.886,43.765,19.168,42.047,17.072,42.047z M110.976,42.047c-1.048,0-1.998,0.426-2.693,1.121
		c-0.695,0.695-1.121,1.645-1.121,2.693V85.38c0,2.096,1.718,3.814,3.814,3.814c1.06,0,2.011-0.426,2.705-1.121
		s1.121-1.645,1.121-2.693V45.861C114.803,43.765,113.085,42.047,110.976,42.047z M128,65.621c0,1.255-1.036,2.291-2.291,2.291
		H121.7v14.995c0,1.231-0.999,2.23-2.23,2.23s-2.23-0.999-2.23-2.23V50.053c0-1.231,0.999-2.23,2.23-2.23s2.23,0.999,2.23,2.23
		V63.33h4.009C126.964,63.33,128,64.366,128,65.621z M105.054,41.645v44.71c0,1.682-0.682,3.193-1.791,4.302
		c-1.097,1.109-2.632,1.791-4.302,1.791c-3.351,0-6.093-2.742-6.093-6.093V67.187H35.181v19.168c0,1.682-0.682,3.193-1.791,4.302
		c-1.097,1.109-2.632,1.791-4.302,1.791c-3.351,0-6.093-2.742-6.093-6.093v-44.71c0-1.669,0.682-3.205,1.791-4.302
		c1.097-1.109,2.632-1.791,4.302-1.791c3.351,0,6.093,2.742,6.093,6.093v20.96h57.688v-20.96c0-1.669,0.682-3.205,1.791-4.302
		c1.097-1.109,2.632-1.791,4.302-1.791C102.312,35.552,105.054,38.294,105.054,41.645z M10.809,50.053v32.853
		c0,1.231-0.999,2.23-2.23,2.23s-2.23-0.999-2.23-2.23V67.912H2.291C1.036,67.912,0,66.876,0,65.621
		c0-1.255,1.036-2.291,2.291-2.291h4.058V50.053c0-1.231,0.999-2.23,2.23-2.23S10.809,48.823,10.809,50.053z"/>
</g>
<g id="Layer_1">
</g>
</svg>
