<svg xmlns="http://www.w3.org/2000/svg" xmlns:xlink="http://www.w3.org/1999/xlink" width="1200" height="74" viewBox="0 0 1200 74">
  <defs>
    <clipPath id="clip-Artboard_1">
      <rect width="1200" height="74"/>
    </clipPath>
  </defs>
  <g id="Artboard_1" data-name="Artboard 1" clip-path="url(#clip-Artboard_1)">
    <g id="Shapes" transform="translate(-39 -734)">
      <g id="Group_22" data-name="Group 22">
        <g id="Group_23" data-name="Group 23">
          <g id="Group_20" data-name="Group 20">
            <path id="Path_145" data-name="Path 145" d="M1859.5,285.486c-4.381-2.853-11.874-4.9-20.69-6.409-19.108-5.433-46.99-7.916-69.4-5.326-133.414-4.512-269.237,14.06-405.591,14.758-79.54.408-159.321-5.424-230.317-16.835-35.281-5.671-69.815-12.837-109.149-14.089s-85.275,6.231-88.61,18.757c-1.154,4.323,2.854,8.656,1.827,12.982-3.2,13.5-53.166,21.074-95.694,20.428s-82.9-6.52-125.394-7.383c-38.834-.788-78.408,2.8-110.085,9.99-50.294,11.408-78.095,34.007-51.348,51.717,15.2,10.068,44.809,17.172,75.6,22.548,80.871,14.125,177.647,18.8,268.056,12.941,125.489-8.126,240.441-35.646,367.867-31.564,56.942,1.824,110.349,9.963,167.177,12.119s124.722-4.335,143.475-21.531c9.056-8.3,7.011-18.872,29.418-24.015,14.45-3.318,33.913-2.966,51.7-2.6,46.877.951,96.008.825,137.981-5.88,36.075-5.762,64.844-17.717,65.349-30.19C1864.407,292.365,1864.462,288.714,1859.5,285.486Z" transform="matrix(-0.998, -0.07, 0.07, -0.998, 1816.819, 1218.131)" fill="#080808"/>
          </g>
        </g>
      </g>
    </g>
  </g>
</svg>
