<?xml version="1.0" encoding="iso-8859-1"?>
<!-- Generator: Adobe Illustrator 19.0.1, SVG Export Plug-In . SVG Version: 6.00 Build 0)  -->
<svg version="1.1" xmlns="http://www.w3.org/2000/svg" xmlns:xlink="http://www.w3.org/1999/xlink" x="0px" y="0px"
	 viewBox="0 0 128 128" style="enable-background:new 0 0 128 128;" xml:space="preserve">
<g id="_x39_">
	<path style="fill:#f39c12;" d="M127.056,33.972l-5.258-7.979l-2.962-4.517L106.543,9.183l-4.536-2.981l-7.979-5.258L81.365,0
		L63.445,17.921l0.13,13.515l5.924,7.276l2.962,3.666l-0.167,0.167l-29.639,29.64l0.444,0.426l0.167,0.111l-0.037,0.037l-0.13-0.148
		l-0.518-0.352l-3.999-2.629l-7.979-5.258l-12.682-0.926L0,81.365l0.13,13.496l5.924,7.294l19.791,19.791l7.294,5.924L46.635,128
		l17.921-17.921L63.63,97.398l-5.258-7.979l-2.629-3.999l-0.333-0.481l-0.167-0.167l0.037-0.037l0.13,0.204l0.407,0.407l29.64-29.64
		l0.167-0.167l3.666,2.962l7.294,5.924l13.496,0.148L128,46.653L127.056,33.972z M5.665,92.862l-0.093-9.22L20.05,69.165
		l8.701,0.648l5.776,3.795L9.979,98.157L5.665,92.862z M25.326,114.615l-11.941-11.941l25.974-25.955L51.281,88.66L25.326,114.615z
		 M58.187,99.249l0.648,8.701l-14.477,14.477l-9.22-0.093l-5.295-4.314l24.548-24.548L58.187,99.249z M69.11,29.436l-0.093-9.22
		L83.494,5.739l8.683,0.629l5.776,3.814L73.405,34.731L69.11,29.436z M88.771,51.17L76.848,39.229l25.937-25.937l11.941,11.922
		L88.771,51.17z M107.802,58.983l-9.22-0.093l-5.295-4.295l24.53-24.548l3.814,5.776l0.629,8.701L107.802,58.983z"/>
</g>
<g id="Layer_1">
</g>
</svg>
