<?xml version="1.0" encoding="iso-8859-1"?>
<!-- Generator: Adobe Illustrator 19.0.1, SVG Export Plug-In . SVG Version: 6.00 Build 0)  -->
<svg version="1.1" xmlns="http://www.w3.org/2000/svg" xmlns:xlink="http://www.w3.org/1999/xlink" x="0px" y="0px"
	 viewBox="0 0 128 128" style="enable-background:new 0 0 128 128;" xml:space="preserve">
<g id="_x35_">
	<path style="fill:#03f1c5;" d="M36.139,47.838h-0.16v-0.02L36.139,47.838z M56.254,77.589c-0.676,5.363-3.397,10.144-7.675,13.463
		c-3.586,2.784-7.895,4.247-12.378,4.247c-0.849,0-1.699-0.047-2.564-0.157c-2.689-0.33-5.222-1.18-7.502-2.485
		c-2.28-1.305-4.309-3.035-5.961-5.174c-3.319-4.278-4.781-9.578-4.105-14.941c0.676-5.363,3.397-10.144,7.675-13.463
		c4.262-3.319,9.562-4.781,14.941-4.105c5.363,0.676,10.16,3.397,13.463,7.675C55.468,66.91,56.931,72.226,56.254,77.589z
		 M48.422,65.541c-2.532-3.271-6.197-5.363-10.317-5.882c-4.121-0.519-8.194,0.598-11.466,3.146
		c-3.271,2.532-5.363,6.212-5.882,10.317c-0.519,4.121,0.598,8.178,3.146,11.465c2.548,3.271,6.212,5.363,10.317,5.866
		c4.136,0.519,8.194-0.598,11.466-3.13c3.287-2.548,5.363-6.212,5.882-10.317C52.086,72.886,50.97,68.813,48.422,65.541z
		 M56.254,77.589c-0.676,5.363-3.397,10.144-7.675,13.463c-3.586,2.784-7.895,4.247-12.378,4.247c-0.849,0-1.699-0.047-2.564-0.157
		c-2.689-0.33-5.222-1.18-7.502-2.485c-2.28-1.305-4.309-3.035-5.961-5.174c-3.319-4.278-4.781-9.578-4.105-14.941
		c0.676-5.363,3.397-10.144,7.675-13.463c4.262-3.319,9.562-4.781,14.941-4.105c5.363,0.676,10.16,3.397,13.463,7.675
		C55.468,66.91,56.931,72.226,56.254,77.589z M48.422,65.541c-2.532-3.271-6.197-5.363-10.317-5.882
		c-4.121-0.519-8.194,0.598-11.466,3.146c-3.271,2.532-5.363,6.212-5.882,10.317c-0.519,4.121,0.598,8.178,3.146,11.465
		c2.548,3.271,6.212,5.363,10.317,5.866c4.136,0.519,8.194-0.598,11.466-3.13c3.287-2.548,5.363-6.212,5.882-10.317
		C52.086,72.886,50.97,68.813,48.422,65.541z M56.254,77.589c-0.676,5.363-3.397,10.144-7.675,13.463
		c-3.586,2.784-7.895,4.247-12.378,4.247c-0.849,0-1.699-0.047-2.564-0.157c-2.689-0.33-5.222-1.18-7.502-2.485
		c-2.28-1.305-4.309-3.035-5.961-5.174c-3.319-4.278-4.781-9.578-4.105-14.941c0.676-5.363,3.397-10.144,7.675-13.463
		c4.262-3.319,9.562-4.781,14.941-4.105c5.363,0.676,10.16,3.397,13.463,7.675C55.468,66.91,56.931,72.226,56.254,77.589z
		 M48.422,65.541c-2.532-3.271-6.197-5.363-10.317-5.882c-4.121-0.519-8.194,0.598-11.466,3.146
		c-3.271,2.532-5.363,6.212-5.882,10.317c-0.519,4.121,0.598,8.178,3.146,11.465c2.548,3.271,6.212,5.363,10.317,5.866
		c4.136,0.519,8.194-0.598,11.466-3.13c3.287-2.548,5.363-6.212,5.882-10.317C52.086,72.886,50.97,68.813,48.422,65.541z
		 M101.345,91.476h-9.756l-12.57-18.621l-3.91,2.64l10.788,15.98h-7.618v4.718h23.066V91.476z M127.8,88.268
		c-1.415,11.23-10.097,20.006-20.824,21.924l9.846,8.886l-3.161,3.507l-13.211-11.937l-63.351,0.425l-12.252,11.481l-3.224-3.444
		l8.587-8.037c-9.138-1.211-17.238-5.882-22.884-13.148c-5.709-7.345-8.21-16.467-7.046-25.699
		C2.67,53.195,20.096,39.653,39.142,42.044c0.346,0.047,0.661,0.094,0.991,0.157l0.472,0.079l6.181,1.636l-3.759-14.957H28.259
		V17.949h38.533l-8.257,11.009H47.887L52.008,45.3l51.76,13.699l3.869-20.949L97.288,19.774c-4.467,4.152-8.603,8.037-9.154,8.556
		l-3.271-3.413c1.258-1.195,20.1-18.763,20.902-19.502l3.209,3.444c-0.079,0.079-3.838,3.586-8.147,7.612l11.749,20.745
		l-4.231,22.994l1.353,0.362l-0.016,0.031C121.524,64.079,129.373,75.827,127.8,88.268z M56.176,24.24l1.18-1.573H32.977v1.573
		H56.176z M106.646,64.708l-2.123-0.425l0.031-0.189L39.551,46.872c-0.425-0.063-0.708-0.11-1.007-0.142
		c-1.258-0.157-2.516-0.236-3.759-0.236c-14.926,0-27.917,11.135-29.82,26.328c-1.007,7.974,1.148,15.854,6.071,22.208
		c4.907,6.307,11.953,10.333,19.864,11.371l68.369-0.456l0.016-0.126l2.186,0.047c10.789,0.535,20.304-7.439,21.657-18.181
		C124.466,76.944,117.231,66.862,106.646,64.708z"/>
</g>
<g id="Layer_1">
</g>
</svg>
