<svg width="1003" height="567" viewBox="0 0 1003 567" fill="none" xmlns="http://www.w3.org/2000/svg">
<g style="mix-blend-mode:overlay" opacity="0.2">
<rect x="-50" y="252" width="315" height="315" rx="157.5" fill="url(#paint0_linear)" fill-opacity="0.5"/>
</g>
<g style="mix-blend-mode:overlay" opacity="0.5">
<rect x="22" width="315" height="315" rx="157.5" fill="url(#paint1_linear)" fill-opacity="0.5"/>
</g>
<path opacity="0.12" fill-rule="evenodd" clip-rule="evenodd" d="M920.87 139C918.733 139 917 140.733 917 142.87C917 145.007 918.733 146.74 920.87 146.74C923.007 146.74 924.74 145.007 924.74 142.87C924.74 140.733 923.007 139 920.87 139ZM936.349 139C934.212 139 932.479 140.733 932.479 142.87C932.479 145.007 934.212 146.74 936.349 146.74C938.486 146.74 940.219 145.007 940.219 142.87C940.219 140.733 938.486 139 936.349 139ZM947.958 142.87C947.958 140.733 949.691 139 951.828 139C953.965 139 955.698 140.733 955.698 142.87C955.698 145.007 953.965 146.74 951.828 146.74C949.691 146.74 947.958 145.007 947.958 142.87ZM967.307 139C965.17 139 963.437 140.733 963.437 142.87C963.437 145.007 965.17 146.74 967.307 146.74C969.444 146.74 971.177 145.007 971.177 142.87C971.177 140.733 969.444 139 967.307 139ZM978.916 142.87C978.916 140.733 980.649 139 982.786 139C984.923 139 986.656 140.733 986.656 142.87C986.656 145.007 984.923 146.74 982.786 146.74C980.649 146.74 978.916 145.007 978.916 142.87ZM998.265 139C996.128 139 994.396 140.733 994.396 142.87C994.396 145.007 996.128 146.74 998.265 146.74C1000.4 146.74 1002.14 145.007 1002.14 142.87C1002.14 140.733 1000.4 139 998.265 139ZM917 158.349C917 156.212 918.733 154.479 920.87 154.479C923.007 154.479 924.74 156.212 924.74 158.349C924.74 160.486 923.007 162.219 920.87 162.219C918.733 162.219 917 160.486 917 158.349ZM936.349 154.479C934.212 154.479 932.479 156.212 932.479 158.349C932.479 160.486 934.212 162.219 936.349 162.219C938.486 162.219 940.219 160.486 940.219 158.349C940.219 156.212 938.486 154.479 936.349 154.479ZM947.958 158.349C947.958 156.212 949.691 154.479 951.828 154.479C953.965 154.479 955.698 156.212 955.698 158.349C955.698 160.486 953.965 162.219 951.828 162.219C949.691 162.219 947.958 160.486 947.958 158.349ZM967.307 154.479C965.17 154.479 963.437 156.212 963.437 158.349C963.437 160.486 965.17 162.219 967.307 162.219C969.444 162.219 971.177 160.486 971.177 158.349C971.177 156.212 969.444 154.479 967.307 154.479ZM978.916 158.349C978.916 156.212 980.649 154.479 982.786 154.479C984.923 154.479 986.656 156.212 986.656 158.349C986.656 160.486 984.923 162.219 982.786 162.219C980.649 162.219 978.916 160.486 978.916 158.349ZM998.265 154.479C996.128 154.479 994.396 156.212 994.396 158.349C994.396 160.486 996.128 162.219 998.265 162.219C1000.4 162.219 1002.14 160.486 1002.14 158.349C1002.14 156.212 1000.4 154.479 998.265 154.479ZM917 173.828C917 171.691 918.733 169.958 920.87 169.958C923.007 169.958 924.74 171.691 924.74 173.828C924.74 175.965 923.007 177.698 920.87 177.698C918.733 177.698 917 175.965 917 173.828ZM936.349 169.958C934.212 169.958 932.479 171.691 932.479 173.828C932.479 175.965 934.212 177.698 936.349 177.698C938.486 177.698 940.219 175.965 940.219 173.828C940.219 171.691 938.486 169.958 936.349 169.958ZM947.958 173.828C947.958 171.691 949.691 169.958 951.828 169.958C953.965 169.958 955.698 171.691 955.698 173.828C955.698 175.965 953.965 177.698 951.828 177.698C949.691 177.698 947.958 175.965 947.958 173.828ZM967.307 169.958C965.17 169.958 963.437 171.691 963.437 173.828C963.437 175.965 965.17 177.698 967.307 177.698C969.444 177.698 971.177 175.965 971.177 173.828C971.177 171.691 969.444 169.958 967.307 169.958ZM978.916 173.828C978.916 171.691 980.649 169.958 982.786 169.958C984.923 169.958 986.656 171.691 986.656 173.828C986.656 175.965 984.923 177.698 982.786 177.698C980.649 177.698 978.916 175.965 978.916 173.828ZM998.265 169.958C996.128 169.958 994.396 171.691 994.396 173.828C994.396 175.965 996.128 177.698 998.265 177.698C1000.4 177.698 1002.14 175.965 1002.14 173.828C1002.14 171.691 1000.4 169.958 998.265 169.958ZM917 189.307C917 187.17 918.733 185.437 920.87 185.437C923.007 185.437 924.74 187.17 924.74 189.307C924.74 191.444 923.007 193.177 920.87 193.177C918.733 193.177 917 191.444 917 189.307ZM936.349 185.437C934.212 185.437 932.479 187.17 932.479 189.307C932.479 191.444 934.212 193.177 936.349 193.177C938.486 193.177 940.219 191.444 940.219 189.307C940.219 187.17 938.486 185.437 936.349 185.437ZM947.958 189.307C947.958 187.17 949.691 185.437 951.828 185.437C953.965 185.437 955.698 187.17 955.698 189.307C955.698 191.444 953.965 193.177 951.828 193.177C949.691 193.177 947.958 191.444 947.958 189.307ZM967.307 185.437C965.17 185.437 963.437 187.17 963.437 189.307C963.437 191.444 965.17 193.177 967.307 193.177C969.444 193.177 971.177 191.444 971.177 189.307C971.177 187.17 969.444 185.437 967.307 185.437ZM978.916 189.307C978.916 187.17 980.649 185.437 982.786 185.437C984.923 185.437 986.656 187.17 986.656 189.307C986.656 191.444 984.923 193.177 982.786 193.177C980.649 193.177 978.916 191.444 978.916 189.307ZM998.265 185.437C996.128 185.437 994.396 187.17 994.396 189.307C994.396 191.444 996.128 193.177 998.265 193.177C1000.4 193.177 1002.14 191.444 1002.14 189.307C1002.14 187.17 1000.4 185.437 998.265 185.437ZM917 204.786C917 202.649 918.733 200.916 920.87 200.916C923.007 200.916 924.74 202.649 924.74 204.786C924.74 206.923 923.007 208.656 920.87 208.656C918.733 208.656 917 206.923 917 204.786ZM936.349 200.916C934.212 200.916 932.479 202.649 932.479 204.786C932.479 206.923 934.212 208.656 936.349 208.656C938.486 208.656 940.219 206.923 940.219 204.786C940.219 202.649 938.486 200.916 936.349 200.916ZM947.958 204.786C947.958 202.649 949.691 200.916 951.828 200.916C953.965 200.916 955.698 202.649 955.698 204.786C955.698 206.923 953.965 208.656 951.828 208.656C949.691 208.656 947.958 206.923 947.958 204.786ZM967.307 200.916C965.17 200.916 963.437 202.649 963.437 204.786C963.437 206.923 965.17 208.656 967.307 208.656C969.444 208.656 971.177 206.923 971.177 204.786C971.177 202.649 969.444 200.916 967.307 200.916ZM978.916 204.786C978.916 202.649 980.649 200.916 982.786 200.916C984.923 200.916 986.656 202.649 986.656 204.786C986.656 206.923 984.923 208.656 982.786 208.656C980.649 208.656 978.916 206.923 978.916 204.786ZM998.265 200.916C996.128 200.916 994.396 202.649 994.396 204.786C994.396 206.923 996.128 208.656 998.265 208.656C1000.4 208.656 1002.14 206.923 1002.14 204.786C1002.14 202.649 1000.4 200.916 998.265 200.916ZM917 220.265C917 218.128 918.733 216.396 920.87 216.396C923.007 216.396 924.74 218.128 924.74 220.265C924.74 222.403 923.007 224.135 920.87 224.135C918.733 224.135 917 222.403 917 220.265ZM936.349 216.396C934.212 216.396 932.479 218.128 932.479 220.265C932.479 222.403 934.212 224.135 936.349 224.135C938.486 224.135 940.219 222.403 940.219 220.265C940.219 218.128 938.486 216.396 936.349 216.396ZM947.958 220.265C947.958 218.128 949.691 216.396 951.828 216.396C953.965 216.396 955.698 218.128 955.698 220.265C955.698 222.403 953.965 224.135 951.828 224.135C949.691 224.135 947.958 222.403 947.958 220.265ZM967.307 216.396C965.17 216.396 963.437 218.128 963.437 220.265C963.437 222.403 965.17 224.135 967.307 224.135C969.444 224.135 971.177 222.403 971.177 220.265C971.177 218.128 969.444 216.396 967.307 216.396ZM978.916 220.265C978.916 218.128 980.649 216.396 982.786 216.396C984.923 216.396 986.656 218.128 986.656 220.265C986.656 222.403 984.923 224.135 982.786 224.135C980.649 224.135 978.916 222.403 978.916 220.265ZM998.265 216.396C996.128 216.396 994.396 218.128 994.396 220.265C994.396 222.403 996.128 224.135 998.265 224.135C1000.4 224.135 1002.14 222.403 1002.14 220.265C1002.14 218.128 1000.4 216.396 998.265 216.396Z" fill="white"/>
<defs>
<linearGradient id="paint0_linear" x1="-50" y1="252" x2="-50" y2="567" gradientUnits="userSpaceOnUse">
<stop stop-color="white" stop-opacity="0.395069"/>
<stop offset="1" stop-color="#F0EFF3"/>
</linearGradient>
<linearGradient id="paint1_linear" x1="22" y1="0" x2="22" y2="315" gradientUnits="userSpaceOnUse">
<stop stop-color="white" stop-opacity="0.395069"/>
<stop offset="1" stop-color="#03F1C5" stop-opacity="0.32"/>
</linearGradient>
</defs>
</svg>
