<?xml version="1.0" encoding="iso-8859-1"?>
<!-- Generator: Adobe Illustrator 19.0.1, SVG Export Plug-In . SVG Version: 6.00 Build 0)  -->
<svg version="1.1" xmlns="http://www.w3.org/2000/svg" xmlns:xlink="http://www.w3.org/1999/xlink" x="0px" y="0px"
	 viewBox="0 0 128 128" style="enable-background:new 0 0 128 128;" xml:space="preserve">
<g id="_x31_4">
	<path style="fill:#598bfd;" d="M89.967,53.533V9.418H83.93v44.1c-5.66,0.513-11.033,2.49-15.711,5.78
		c-5.599-3.984-12.059-6.339-18.881-6.867V0h-6.037v52.447C23.831,53.971,8.467,70.286,8.467,90.133
		C8.467,111.006,25.446,128,46.319,128c8.18,0,15.968-2.581,22.518-7.456c1.887-1.388,3.622-2.958,5.192-4.648
		c4.045,1.751,8.467,2.671,12.919,2.671c17.96,0,32.585-14.625,32.585-32.6C119.533,69.033,106.523,55.058,89.967,53.533z
		 M65.245,115.7c-5.509,4.09-12.059,6.263-18.926,6.263c-17.538,0-31.815-14.278-31.815-31.83c0-17.522,14.278-31.785,31.815-31.785
		c6.867,0,13.402,2.158,18.926,6.233c8.059,5.977,12.874,15.53,12.874,25.552C78.119,100.169,73.305,109.723,65.245,115.7z
		 M86.948,112.53c-3.079,0-6.158-0.543-9.04-1.585c4.015-6.112,6.248-13.342,6.248-20.813c0-10.082-4.09-19.741-11.123-26.759
		c4.165-2.596,8.935-3.954,13.915-3.954c14.64,0,26.548,11.908,26.548,26.548C113.496,100.622,101.588,112.53,86.948,112.53z"/>
</g>
<g id="Layer_1">
</g>
</svg>
