<?xml version="1.0" encoding="iso-8859-1"?>
<!-- Generator: Adobe Illustrator 19.0.1, SVG Export Plug-In . SVG Version: 6.00 Build 0)  -->
<svg version="1.1" xmlns="http://www.w3.org/2000/svg" xmlns:xlink="http://www.w3.org/1999/xlink" x="0px" y="0px"
	 viewBox="0 0 128 128" style="enable-background:new 0 0 128 128;" xml:space="preserve">
<g id="_x31_0">
	<path style="fill:#8e44ad;" d="M117.779,106.593H73.742l0.778-2.569c0.047-0.154,4.596-15.497,0.03-28.325l-0.977-2.729
		c-4.846-13.485-9.423-26.223-1.886-32.504c2.631-2.194,5.917-2.679,9.129-1.388c-0.235-0.651-0.423-1.315-0.563-1.988
		c-0.765-3.653,0.394-7.176,3.265-9.921c5.911-5.654,18.115-7.338,30.366-4.197c5.568,1.428,9.728,5.318,12.03,11.252
		c4.651,11.985,0.932,30.97-5.314,40.513c-7.645,11.678-1.034,28.967-0.967,29.141l1.06,2.716L117.779,106.593z M78.994,102.611
		h36.021c-0.758-2.546-1.751-6.639-2.034-11.324H80.529C80.32,96.055,79.563,100.126,78.994,102.611z M80.563,87.305h32.367
		c0.043-1.18,0.141-2.378,0.308-3.583H80.337C80.459,84.933,80.53,86.132,80.563,87.305z M79.757,79.74h34.298
		c0.684-2.469,1.719-4.902,3.213-7.185c5.715-8.732,9.147-26.032,4.933-36.892c-1.843-4.751-4.975-7.723-9.307-8.834
		c-12.607-3.232-22.635-0.597-26.625,3.218c-1.892,1.809-2.607,3.905-2.121,6.228c2.049,9.787,16.189,13.997,34.381,10.24l0.806,3.9
		c-13.41,2.768-23.36,1.478-29.907-1.979c1.701,3.82,2.703,8.633,2.384,14.234l-3.975-0.227c0.561-9.837-3.577-17.216-7.955-19.421
		c-1.434-0.721-3.579-1.22-5.649,0.503c-5.396,4.497-1.085,16.496,3.085,28.099l0.981,2.74C78.932,76.136,79.408,77.94,79.757,79.74
		z M7.307,106.592l1.06-2.716c0.067-0.174,6.678-17.463-0.967-29.141c-6.246-9.543-9.965-28.528-5.314-40.513
		c2.302-5.933,6.461-9.824,12.03-11.252c12.25-3.141,24.455-1.457,30.366,4.197c2.871,2.745,4.03,6.268,3.265,9.921
		c-0.14,0.673-0.328,1.337-0.563,1.988c3.212-1.291,6.498-0.806,9.129,1.388c7.537,6.281,2.96,19.019-1.886,32.504l-0.977,2.729
		c-4.566,12.828-0.017,28.171,0.03,28.325l0.778,2.569H10.221L7.307,106.592z M47.471,91.287H15.018
		c-0.283,4.685-1.275,8.778-2.034,11.324h36.021C48.437,100.126,47.68,96.055,47.471,91.287z M47.663,83.722H14.762
		c0.167,1.205,0.266,2.403,0.308,3.583h32.367C47.47,86.132,47.541,84.933,47.663,83.722z M49.699,74.364l0.981-2.74
		c4.17-11.603,8.481-23.602,3.085-28.099c-2.07-1.723-4.215-1.224-5.649-0.503c-4.377,2.205-8.516,9.584-7.955,19.421l-3.975,0.227
		c-0.319-5.601,0.683-10.414,2.384-14.234c-6.547,3.456-16.497,4.747-29.907,1.979l0.806-3.9
		c18.192,3.758,32.332-0.453,34.381-10.24c0.486-2.323-0.228-4.418-2.121-6.228c-3.99-3.815-14.018-6.45-26.625-3.218
		c-4.332,1.111-7.463,4.083-9.307,8.834c-4.214,10.86-0.782,28.16,4.933,36.892c1.494,2.283,2.529,4.716,3.213,7.185h34.298
		C48.592,77.94,49.068,76.136,49.699,74.364z"/>
</g>
<g id="Layer_1">
</g>
</svg>
