<?xml version="1.0" encoding="iso-8859-1"?>
<!-- Generator: Adobe Illustrator 19.0.1, SVG Export Plug-In . SVG Version: 6.00 Build 0)  -->
<svg version="1.1" xmlns="http://www.w3.org/2000/svg" xmlns:xlink="http://www.w3.org/1999/xlink" x="0px" y="0px"
	 viewBox="0 0 128 128" style="enable-background:new 0 0 128 128;" xml:space="preserve">
<g id="_x37_">
	<path style="fill:#e74c3c;" d="M14.707,77.1v42.023c0,4.88,3.997,8.877,8.894,8.877c4.88,0,8.878-3.997,8.878-8.877V77.1H14.707z
		 M95.505,77.1v42.023c0,4.88,4.014,8.877,8.894,8.877c4.897,0,8.894-3.997,8.894-8.877V77.1H95.505z M107.064,70.837V55.531
		c0-28.998-17.272-52.849-39.208-55.281c-0.383-0.05-0.75-0.1-1.133-0.133c-0.383-0.033-0.766-0.067-1.166-0.083
		C65.058,0.017,64.575,0,64.075,0s-0.983,0.017-1.482,0.033c-23.018,0.999-41.49,25.5-41.49,55.497v15.307h-6.396v3.831h17.772
		v-3.831H26.1V55.531c0-13.241,3.864-25.334,10.16-34.344c-0.683,2.448-1.049,5.013-1.049,7.678
		c0,15.923,12.958,28.865,28.865,28.865c15.923,0,28.865-12.942,28.865-28.865c0-2.682-0.366-5.263-1.066-7.728
		c6.329,9.027,10.193,21.12,10.193,34.394v15.307h-6.562v3.831h17.788v-3.831H107.064z M64.075,52.732
		c-13.158,0-23.868-10.71-23.868-23.868c0-11.959,8.828-21.886,20.32-23.618c0.366-0.067,0.75-0.1,1.116-0.133
		c0.316-0.033,0.633-0.067,0.949-0.067c0.5-0.033,0.983-0.05,1.482-0.05s0.983,0.017,1.482,0.05c0.316,0,0.616,0.017,0.916,0.067
		c0.033-0.017,0.067-0.017,0.1,0c11.992,1.266,21.369,11.426,21.369,23.751C87.943,42.023,77.25,52.732,64.075,52.732z"/>
</g>
<g id="Layer_1">
</g>
</svg>
