<svg width="303" height="23" viewBox="0 0 303 23" fill="none" xmlns="http://www.w3.org/2000/svg">
<path fill-rule="evenodd" clip-rule="evenodd" d="M302.423 14.0664H300.48C300.286 14.0664 300.157 14.0736 300.048 14.1467C299.936 14.2187 299.893 14.3256 299.893 14.4668C299.893 14.6346 299.988 14.7487 300.126 14.7981C300.238 14.8371 300.359 14.8485 300.537 14.8485L301.114 14.8639C301.698 14.8783 302.087 14.9782 302.324 15.2219C302.367 15.2559 302.393 15.294 302.423 15.3321V14.0664ZM302.423 16.999C302.164 17.3766 301.659 17.568 300.976 17.568H298.917V16.6141H300.968C301.171 16.6141 301.314 16.5874 301.399 16.504C301.474 16.4352 301.525 16.3353 301.525 16.2139C301.525 16.0843 301.474 15.9814 301.395 15.9197C301.318 15.8518 301.205 15.821 301.019 15.821C300.018 15.7871 298.769 15.8518 298.769 14.4442C298.769 13.799 299.18 13.1199 300.299 13.1199H302.423V12.2349H300.45C299.854 12.2349 299.422 12.377 299.115 12.5981V12.2349H296.197C295.73 12.2349 295.182 12.3502 294.923 12.5981V12.2349H289.711V12.5981C289.296 12.2998 288.597 12.2349 288.273 12.2349H284.836V12.5981C284.508 12.2813 283.778 12.2349 283.333 12.2349H279.486L278.605 13.1848L277.781 12.2349H272.033V18.4416H277.672L278.58 17.4766L279.434 18.4416L282.91 18.4447V16.9846H283.252C283.713 16.9917 284.257 16.9732 284.737 16.7664V18.4415H287.604V16.8238H287.742C287.919 16.8238 287.936 16.831 287.936 17.0069V18.4413H296.646C297.199 18.4413 297.777 18.3002 298.097 18.0442V18.4413H300.86C301.434 18.4413 301.996 18.361 302.423 18.1552V16.999ZM298.17 15.2219C298.378 15.4362 298.489 15.7066 298.489 16.1644C298.489 17.1213 297.889 17.568 296.814 17.568H294.737V16.6141H296.806C297.008 16.6141 297.151 16.5874 297.241 16.504C297.314 16.4352 297.367 16.3353 297.367 16.2139C297.367 16.0843 297.31 15.9814 297.237 15.9197C297.155 15.8518 297.043 15.821 296.857 15.821C295.86 15.7871 294.612 15.8518 294.612 14.4442C294.612 13.799 295.018 13.1199 296.136 13.1199H298.273V14.0666H296.318C296.124 14.0666 295.998 14.0739 295.89 14.147C295.774 14.219 295.73 14.3259 295.73 14.467C295.73 14.6348 295.829 14.749 295.964 14.7983C296.076 14.8374 296.197 14.8488 296.378 14.8488L296.952 14.8642C297.531 14.8783 297.929 14.9781 298.17 15.2219ZM288.549 14.9472C288.407 15.0316 288.23 15.0388 288.023 15.0388H286.728V14.0398H288.04C288.23 14.0398 288.42 14.0438 288.549 14.1201C288.687 14.1922 288.77 14.3299 288.77 14.5203C288.77 14.7106 288.687 14.8639 288.549 14.9472ZM289.193 15.5008C289.431 15.5881 289.625 15.7447 289.715 15.8742C289.866 16.0914 289.888 16.2941 289.892 16.6862V17.568H288.822V17.0115C288.822 16.7438 288.848 16.3476 288.649 16.1408C288.494 15.9814 288.256 15.9433 287.867 15.9433H286.728V17.568H285.656V13.1198H288.118C288.658 13.1198 289.051 13.1435 289.401 13.3297C289.737 13.5324 289.949 13.81 289.949 14.3175C289.949 15.0274 289.474 15.3897 289.193 15.5008ZM290.54 13.1198H294.099V14.0397H291.602V14.8484H294.038V15.7559H291.602V16.641L294.099 16.645V17.568H290.54V13.1198ZM283.347 15.1726H281.969V14.0398H283.359C283.744 14.0398 284.011 14.1962 284.011 14.5852C284.011 14.9699 283.756 15.1726 283.347 15.1726ZM280.907 17.1634L279.27 15.3515L280.907 13.5971V17.1634ZM276.679 16.641H274.058V15.7559H276.399V14.8484H274.058V14.0397H276.731L277.897 15.336L276.679 16.641ZM285.156 14.5852C285.156 15.8209 284.231 16.076 283.299 16.076H281.969V17.568H279.896L278.584 16.0954L277.219 17.568H272.996V13.1198H277.284L278.596 14.5778L279.952 13.1198H283.359C284.205 13.1198 285.156 13.3533 285.156 14.5852Z" fill="#0072CE"/>
<path fill-rule="evenodd" clip-rule="evenodd" d="M267.91 7.99351L267.18 6.22063L266.454 7.99351H267.91ZM283.986 7.28755C283.839 7.37621 283.666 7.37916 283.458 7.37916H282.163V6.39138H283.476C283.662 6.39138 283.856 6.3997 283.982 6.4716C284.12 6.53638 284.206 6.67428 284.206 6.86475C284.206 7.05911 284.124 7.21552 283.986 7.28755ZM293.226 7.99351L292.488 6.22063L291.754 7.99351H293.226ZM276.002 9.91246H274.909L274.905 6.42948L273.359 9.91246H272.423L270.873 6.42639V9.91246H268.704L268.295 8.92052H266.075L265.661 9.91246H264.503L266.412 5.46531H267.996L269.809 9.67584V5.46531H271.55L272.945 8.48216L274.227 5.46531H276.002V9.91246H276.002ZM280.358 9.91246H276.797V5.46531H280.358V6.39138H277.863V7.19298H280.298V8.10457H277.863V8.99269H280.358V9.91246ZM285.38 6.66301C285.38 7.37205 284.905 7.73838 284.629 7.84837C284.862 7.9369 285.061 8.0933 285.156 8.22288C285.307 8.44407 285.333 8.64165 285.333 9.03883V9.91246H284.257L284.253 9.35163C284.253 9.08403 284.279 8.6992 284.085 8.48525C283.929 8.32885 283.692 8.29491 283.308 8.29491H282.163V9.91246H281.097V5.46531H283.55C284.094 5.46531 284.496 5.47966 284.841 5.67832C285.178 5.87697 285.38 6.16697 285.38 6.66301ZM287.086 9.91246H285.998V5.46531H287.086V9.91246ZM299.707 9.91246H298.196L296.176 6.57461V9.91246H294.004L293.589 8.92052H291.374L290.972 9.91246H289.724C289.206 9.91246 288.55 9.79817 288.178 9.42058C287.804 9.04299 287.609 8.53153 287.609 7.72282C287.609 7.06327 287.725 6.46033 288.183 5.98388C288.528 5.62895 289.068 5.46531 289.803 5.46531H290.835V6.41821H289.824C289.435 6.41821 289.215 6.47589 289.004 6.68165C288.822 6.86891 288.697 7.22289 288.697 7.68902C288.697 8.16547 288.792 8.50899 288.991 8.7334C289.155 8.90939 289.453 8.96277 289.734 8.96277H290.212L291.715 5.46544H293.313L295.118 9.67182V5.46544H296.741L298.615 8.56264V5.46544H299.707V9.91246ZM264.49 10.786H266.312L266.723 9.79817H267.642L268.052 10.786H271.636V10.0308L271.956 10.7892H273.817L274.137 10.0195V10.786H283.045L283.04 9.16451H283.213C283.333 9.16867 283.369 9.17981 283.369 9.37846V10.786H287.976V10.4085C288.347 10.607 288.925 10.786 289.686 10.786H291.624L292.039 9.79817H292.959L293.364 10.786H297.099V9.84767L297.665 10.786H300.658V4.5835H297.696V5.31601L297.281 4.5835H294.242V5.31601L293.861 4.5835H289.755C289.068 4.5835 288.464 4.67914 287.976 4.94566V4.5835H285.143V4.94566C284.832 4.67095 284.409 4.5835 283.939 4.5835H273.588L272.893 6.18548L272.18 4.5835H268.92V5.31601L268.562 4.5835H265.781L264.49 7.53248V10.786H264.49Z" fill="#0072CE"/>
<path fill-rule="evenodd" clip-rule="evenodd" d="M220.608 11.5002C220.608 17.5071 215.707 22.3763 209.66 22.3763C203.614 22.3763 198.713 17.5071 198.713 11.5002C198.713 5.49407 203.614 0.624512 209.66 0.624512C215.707 0.624512 220.608 5.49407 220.608 11.5002Z" fill="#333399"/>
<path fill-rule="evenodd" clip-rule="evenodd" d="M224.358 0.624512C221.529 0.624512 218.952 1.69065 217.009 3.43965C216.613 3.79578 216.244 4.18112 215.903 4.5907H218.115C218.418 4.95593 218.696 5.3399 218.95 5.74243H215.069C214.836 6.11231 214.625 6.49645 214.438 6.89417H219.58C219.756 7.26714 219.911 7.65111 220.044 8.04521H213.974C213.848 8.42093 213.742 8.8049 213.656 9.19712H220.361C220.522 9.93962 220.608 10.71 220.608 11.5002C220.608 12.708 220.409 13.8699 220.044 14.9553H213.974C214.107 15.3496 214.262 15.734 214.438 16.107H219.58C219.393 16.5044 219.182 16.8889 218.949 17.2587H215.069C215.322 17.6606 215.601 18.0452 215.903 18.4098H218.114C217.775 18.8201 217.405 19.2054 217.009 19.5615C218.952 21.3105 221.529 22.3763 224.358 22.3763C230.404 22.3763 235.305 17.5071 235.305 11.5002C235.305 5.49407 230.404 0.624512 224.358 0.624512Z" fill="#0066CC"/>
<path fill-rule="evenodd" clip-rule="evenodd" d="M233.846 17.5622C233.846 17.3683 234.004 17.2114 234.199 17.2114C234.395 17.2114 234.553 17.3683 234.553 17.5622C234.553 17.7563 234.395 17.9137 234.199 17.9137C234.004 17.9137 233.846 17.7563 233.846 17.5622ZM234.199 17.8295C234.348 17.8295 234.468 17.71 234.468 17.5622C234.468 17.4149 234.348 17.2958 234.199 17.2958C234.051 17.2958 233.931 17.4149 233.931 17.5622C233.931 17.71 234.051 17.8295 234.199 17.8295ZM234.152 17.7164H234.079V17.4082H234.21C234.238 17.4082 234.265 17.4082 234.29 17.4237C234.315 17.4407 234.329 17.4703 234.329 17.5005C234.329 17.5358 234.309 17.5684 234.275 17.5808L234.332 17.7164H234.252L234.205 17.5945H234.152V17.7164ZM234.152 17.5418H234.192C234.206 17.5418 234.223 17.5428 234.236 17.5358C234.248 17.528 234.254 17.5139 234.254 17.5002C234.254 17.4885 234.247 17.4751 234.236 17.4687C234.224 17.4613 234.203 17.4632 234.19 17.4632H234.152V17.5418Z" fill="#0066CC"/>
<path fill-rule="evenodd" clip-rule="evenodd" d="M209.03 9.01058C208.932 9.43717 208.881 9.67883 208.748 10.1982C207.925 9.85139 206.822 9.67041 205.975 10.1958C205.176 10.7011 204.906 11.4895 204.964 12.3628C205.023 12.7831 205.34 13.1935 205.787 13.3716C206.562 13.6558 207.302 13.5519 208.125 13.1339C208.008 13.6596 207.92 14.0725 207.818 14.4484C206.83 14.7223 205.893 14.8124 204.906 14.4863C204.024 14.1816 203.306 13.3927 203.248 12.5414C203.048 11.1743 203.707 9.77559 205.046 9.13364C206.292 8.57677 207.713 8.67353 209.03 9.01058Z" fill="#000066"/>
<path fill-rule="evenodd" clip-rule="evenodd" d="M222.979 13.8694C222.718 14.1283 222.276 14.6953 221.074 14.6953C219.98 14.6953 219.211 13.8933 219.601 12.0926C219.601 12.0922 220.053 9.97266 220.053 9.97266H221.723C221.723 9.97266 221.27 12.0946 221.271 12.0926C221.116 12.8137 221.153 13.3625 221.89 13.3625C222.759 13.3625 223.019 12.8406 223.183 12.0926C223.182 12.0936 223.637 9.97266 223.637 9.97266H225.38L224.63 13.3804C224.545 13.7802 224.463 14.2035 224.416 14.621H222.848C222.848 14.621 222.947 14.0533 222.979 13.8694Z" fill="#000066"/>
<path fill-rule="evenodd" clip-rule="evenodd" d="M225.935 11.4423C225.935 12.0319 226.325 12.4347 227.21 12.7357C227.894 12.9731 228.001 13.0427 228.001 13.2491C228.001 13.5432 227.696 13.6679 227.037 13.6679C226.535 13.6679 226.07 13.6183 225.531 13.489C225.531 13.489 225.319 14.4532 225.297 14.5632C225.766 14.6463 226.577 14.6949 227.049 14.6949C228.817 14.6949 229.638 14.2037 229.638 13.1439C229.638 12.5099 229.294 12.1365 228.455 11.8505C227.747 11.6195 227.669 11.5663 227.669 11.3457C227.669 11.0989 227.948 10.968 228.492 10.968C228.819 10.968 229.277 10.9955 229.703 11.0398L229.938 9.96129C229.503 9.9099 228.841 9.86865 228.459 9.86865C226.582 9.86865 225.929 10.5866 225.935 11.4423Z" fill="#000066"/>
<path fill-rule="evenodd" clip-rule="evenodd" d="M209.666 9.97266H211.414L210.418 14.621H208.67L209.666 9.97266Z" fill="#000066"/>
<path fill-rule="evenodd" clip-rule="evenodd" d="M219.651 9.95292C218.419 9.79118 218.067 10.3927 217.736 10.6918C217.776 10.4498 217.848 10.2138 217.834 9.97268H216.228C216.008 11.4121 215.616 12.8688 215.309 14.3082L215.229 14.6207H217.046C217.254 13.6768 217.495 12.2517 217.773 11.8203C218.05 11.3896 218.512 11.0454 219.119 11.2525L219.651 9.95292Z" fill="#000066"/>
<path fill-rule="evenodd" clip-rule="evenodd" d="M215.839 9.95292C214.606 9.79118 214.255 10.3927 213.924 10.6918C213.963 10.4498 214.036 10.2138 214.021 9.97268H212.416C212.195 11.4121 211.803 12.8688 211.496 14.3082L211.416 14.6207H213.233C213.441 13.6768 213.682 12.2517 213.96 11.8203C214.238 11.3896 214.7 11.0454 215.307 11.2525L215.839 9.95292Z" fill="#000066"/>
<path fill-rule="evenodd" clip-rule="evenodd" d="M230.172 13.9291C230.172 13.7351 230.33 13.5776 230.525 13.5776C230.721 13.5776 230.879 13.7351 230.879 13.9291C230.879 14.1232 230.721 14.2803 230.525 14.2803C230.33 14.2803 230.172 14.1232 230.172 13.9291ZM230.525 14.196C230.674 14.196 230.794 14.0764 230.794 13.9291C230.794 13.7817 230.674 13.6622 230.525 13.6622C230.377 13.6622 230.256 13.7817 230.256 13.9291C230.256 14.0764 230.377 14.196 230.525 14.196ZM230.478 14.0831H230.405V13.7743H230.536C230.564 13.7743 230.592 13.7749 230.616 13.7904C230.641 13.8073 230.655 13.8372 230.655 13.8672C230.655 13.9023 230.635 13.9348 230.601 13.9472L230.659 14.0831H230.578L230.531 13.9609H230.478V14.0831ZM230.478 13.908H230.518C230.533 13.908 230.549 13.9094 230.562 13.9023C230.574 13.8949 230.58 13.8805 230.58 13.8671C230.58 13.8552 230.573 13.8415 230.563 13.8351C230.55 13.8281 230.53 13.8298 230.516 13.8298H230.478V13.908Z" fill="white"/>
<path fill-rule="evenodd" clip-rule="evenodd" d="M209.372 8.67016C209.274 9.09727 209.222 9.33893 209.09 9.85782C208.267 9.51149 207.163 9.33051 206.316 9.85558C205.517 10.3607 205.247 11.1493 205.305 12.0224C205.365 12.443 205.682 12.8533 206.129 13.0315C206.904 13.3156 207.643 13.2114 208.467 12.7934C208.35 13.3196 208.261 13.7324 208.159 14.1085C207.172 14.3821 206.234 14.4723 205.247 14.1463C204.365 13.8415 203.648 13.0526 203.59 12.201C203.39 10.8341 204.048 9.43518 205.388 8.7934C206.634 8.23652 208.055 8.33312 209.372 8.67016Z" fill="white"/>
<path fill-rule="evenodd" clip-rule="evenodd" d="M223.321 13.5296C223.06 13.7884 222.618 14.3549 221.416 14.3549C220.322 14.3549 219.626 13.5533 220.015 11.7524L220.468 9.63281H222.139C222.139 9.63281 221.685 11.7543 221.685 11.7524C221.531 12.4737 221.568 13.0225 222.305 13.0225C223.174 13.0225 223.434 12.5005 223.598 11.7524C223.597 11.7537 224.052 9.63281 224.052 9.63281H225.722L224.972 13.0404C224.887 13.4398 224.806 13.8632 224.758 14.2812H223.19C223.19 14.2812 223.289 13.7131 223.321 13.5296Z" fill="white"/>
<path fill-rule="evenodd" clip-rule="evenodd" d="M226.277 11.1028C226.277 11.6924 226.667 12.0952 227.552 12.396C228.236 12.6334 228.343 12.7032 228.343 12.9092C228.343 13.2037 228.038 13.3286 227.379 13.3286C226.878 13.3286 226.412 13.2786 225.873 13.1497C225.873 13.1497 225.66 14.1134 225.639 14.2239C226.108 14.3068 226.919 14.3551 227.391 14.3551C229.159 14.3551 229.98 13.8644 229.98 12.8042C229.98 12.17 229.636 11.7972 228.797 11.5112C228.089 11.2802 228.011 11.2264 228.011 11.0062C228.011 10.7594 228.29 10.6286 228.834 10.6286C229.161 10.6286 229.619 10.6561 230.045 10.7001L230.28 9.62145C229.845 9.57006 229.183 9.52881 228.801 9.52881C226.924 9.52881 226.271 10.2469 226.277 11.1028Z" fill="white"/>
<path fill-rule="evenodd" clip-rule="evenodd" d="M210.082 9.63281H211.757L210.761 14.2812H209.086L210.082 9.63281Z" fill="white"/>
<path fill-rule="evenodd" clip-rule="evenodd" d="M219.992 9.61313C218.76 9.45122 218.409 10.0528 218.077 10.3518C218.117 10.1098 218.19 9.87352 218.175 9.63289H216.642C216.422 11.072 216.029 12.5285 215.723 13.9683L215.643 14.2806H217.387C217.595 13.3366 217.836 11.9116 218.114 11.4805C218.392 11.0495 218.854 10.7054 219.46 10.9125L219.992 9.61313Z" fill="white"/>
<path fill-rule="evenodd" clip-rule="evenodd" d="M216.182 9.61313C214.95 9.45122 214.598 10.0528 214.267 10.3518C214.306 10.1098 214.379 9.87352 214.364 9.63289H212.832C212.611 11.072 212.219 12.5285 211.912 13.9683L211.832 14.2806H213.576C213.785 13.3366 214.025 11.9116 214.304 11.4805C214.581 11.0495 215.043 10.7054 215.65 10.9125L216.182 9.61313Z" fill="white"/>
<path fill-rule="evenodd" clip-rule="evenodd" d="M168.511 11.4912C168.511 17.5717 163.601 22.5002 157.544 22.5002C151.488 22.5002 146.578 17.5717 146.578 11.4912C146.578 5.41062 151.488 0.481934 157.544 0.481934C163.601 0.481934 168.511 5.41062 168.511 11.4912Z" fill="#CC0000"/>
<path fill-rule="evenodd" clip-rule="evenodd" d="M149.074 18.4825C148.771 18.1138 148.492 17.7242 148.238 17.3164H152.125C152.358 16.9427 152.569 16.5534 152.757 16.1506H147.607C147.431 15.7734 147.275 15.3844 147.143 14.9851H153.22C153.587 13.8873 153.784 12.7129 153.784 11.4912C153.784 10.6913 153.699 9.91114 153.538 9.15989H146.826C146.911 8.7627 147.018 8.37402 147.144 7.99405H153.22C153.086 7.59477 152.931 7.20592 152.756 6.82873H147.608C147.796 6.42597 148.007 6.0373 148.24 5.66272H152.124C151.87 5.25595 151.591 4.86711 151.289 4.49792H149.075C149.416 4.08298 149.786 3.69343 150.182 3.33277C148.236 1.56113 145.652 0.481934 142.818 0.481934C136.761 0.481934 131.852 5.41062 131.852 11.4912C131.852 17.5717 136.761 22.5002 142.818 22.5002C145.652 22.5002 148.236 21.421 150.182 19.65C150.579 19.2887 150.949 18.8983 151.29 18.4825H149.074Z" fill="#0066CC"/>
<path fill-rule="evenodd" clip-rule="evenodd" d="M150.026 14.4661C149.558 14.5907 149.104 14.6516 148.625 14.6505C147.097 14.6491 146.301 13.9502 146.301 12.6137C146.301 11.0523 147.314 9.90381 148.69 9.90381C149.815 9.90381 150.533 10.5477 150.533 11.5566C150.533 11.8914 150.485 12.2176 150.366 12.6786H147.648C147.551 13.3314 148.026 13.6179 148.834 13.6179C149.318 13.6179 149.755 13.5306 150.24 13.3349L150.026 14.4661ZM149.295 11.7577C149.295 11.6593 149.447 10.9585 148.66 10.9433C148.226 10.9433 147.914 11.2332 147.788 11.7577H149.295Z" fill="#000066"/>
<path fill-rule="evenodd" clip-rule="evenodd" d="M150.946 11.4518C150.946 12.0286 151.269 12.4272 152.005 12.7238C152.567 12.9548 152.655 13.0218 152.655 13.2283C152.655 13.5145 152.407 13.6457 151.855 13.6422C151.441 13.6393 151.063 13.5886 150.617 13.4646L150.42 14.5167C150.816 14.609 151.372 14.6393 151.865 14.6508C153.333 14.6508 154.011 14.1683 154.011 13.1255C154.011 12.4985 153.728 12.1298 153.031 11.8549C152.448 11.6211 152.38 11.5708 152.38 11.3591C152.38 11.1106 152.611 10.985 153.061 10.985C153.334 10.985 153.707 11.0101 154.062 11.0532L154.261 9.99543C153.9 9.94515 153.352 9.90479 153.034 9.90479C151.479 9.90479 150.941 10.6075 150.946 11.4518Z" fill="#000066"/>
<path fill-rule="evenodd" clip-rule="evenodd" d="M145.554 14.5752H144.414L144.441 14.0957C144.093 14.4739 143.63 14.6502 143.002 14.6502C142.258 14.6502 141.748 14.1395 141.748 13.4052C141.748 12.2889 142.634 11.645 144.157 11.645C144.314 11.645 144.513 11.6568 144.717 11.68C144.76 11.5305 144.771 11.4662 144.771 11.3851C144.771 11.0796 144.531 10.967 143.89 10.967C143.258 10.9694 142.832 11.0636 142.436 11.1702L142.631 10.1462C143.315 9.97149 143.763 9.90381 144.27 9.90381C145.45 9.90381 146.073 10.3683 146.073 11.2407C146.083 11.4736 146.002 11.9409 145.961 12.1455C145.915 12.4429 145.588 14.1681 145.554 14.5752ZM144.553 12.5386C144.409 12.5243 144.346 12.5199 144.247 12.5199C143.469 12.5199 143.075 12.7524 143.075 13.2112C143.075 13.4993 143.267 13.6794 143.567 13.6794C144.126 13.6794 144.53 13.2101 144.553 12.5386Z" fill="#000066"/>
<path fill-rule="evenodd" clip-rule="evenodd" d="M156.415 14.503C156.04 14.6058 155.749 14.6507 155.433 14.6507C154.735 14.6507 154.354 14.2923 154.354 13.6541C154.332 13.4788 154.502 12.6687 154.541 12.443C154.58 12.2167 155.185 8.91699 155.185 8.91699H156.542L156.337 10.0089H157.033L156.843 11.1229H156.144C156.144 11.1229 155.761 13.057 155.761 13.2049C155.761 13.4393 155.902 13.5412 156.227 13.5412C156.382 13.5412 156.503 13.5266 156.595 13.4988L156.415 14.503Z" fill="#000066"/>
<path fill-rule="evenodd" clip-rule="evenodd" d="M162.479 9.90399C161.484 9.90399 160.707 10.3155 160.255 11.0016L160.647 9.9835C159.925 9.71748 159.46 10.0973 159.039 10.637C159.039 10.637 158.968 10.7266 158.898 10.8085V10.0084H157.624C157.451 11.4206 157.146 12.8528 156.907 14.2681L156.85 14.5759H158.22C158.351 13.8577 158.457 13.2749 158.564 12.81C158.855 11.5347 159.345 11.145 160.081 11.3176C159.911 11.6838 159.818 12.1083 159.818 12.5779C159.818 13.718 160.434 14.6507 161.966 14.6507C163.511 14.6507 164.629 13.8222 164.629 11.9329C164.629 10.7935 163.884 9.90399 162.479 9.90399ZM162.08 13.5426C161.596 13.5501 161.302 13.1423 161.302 12.532C161.302 11.8089 161.73 10.9917 162.419 10.9917C162.974 10.9917 163.164 11.4338 163.164 11.9048C163.164 12.9333 162.744 13.5426 162.08 13.5426Z" fill="#000066"/>
<path fill-rule="evenodd" clip-rule="evenodd" d="M141.11 14.5758H139.745L140.556 10.2847L138.688 14.5758H137.444L137.217 10.31L136.403 14.5758H135.164L136.219 8.99414H138.352L138.53 12.1058L139.882 8.99414H142.186L141.11 14.5758Z" fill="#000066"/>
<path fill-rule="evenodd" clip-rule="evenodd" d="M150.368 14.1222C149.9 14.2469 149.446 14.3078 148.967 14.3068C147.439 14.3054 146.643 13.6063 146.643 12.27C146.643 10.7085 147.656 9.56006 149.031 9.56006C150.157 9.56006 150.875 10.204 150.875 11.2127C150.875 11.5474 150.826 11.873 150.708 12.3349H147.989C147.893 12.9869 148.367 13.274 149.175 13.274C149.659 13.274 150.097 13.1867 150.582 12.9906L150.368 14.1222ZM149.637 11.414C149.637 11.3153 149.788 10.6147 149.002 10.5994C148.567 10.5994 148.256 10.8893 148.13 11.414H149.637Z" fill="white"/>
<path fill-rule="evenodd" clip-rule="evenodd" d="M151.29 11.1074C151.29 11.6843 151.613 12.0826 152.348 12.3795C152.911 12.6108 152.999 12.6776 152.999 12.8836C152.999 13.1703 152.751 13.3015 152.2 13.2982C151.785 13.295 151.407 13.2444 150.961 13.1204L150.764 14.1721C151.16 14.2648 151.717 14.2951 152.209 14.3067C153.677 14.3067 154.355 13.8241 154.355 12.7809C154.355 12.1542 154.072 11.7852 153.375 11.5107C152.792 11.277 152.724 11.2261 152.724 11.015C152.724 10.7666 152.955 10.6404 153.405 10.6404C153.678 10.6404 154.051 10.666 154.406 10.7092L154.605 9.65136C154.243 9.60039 153.696 9.56055 153.379 9.56055C151.823 9.56055 151.285 10.2629 151.29 11.1074Z" fill="white"/>
<path fill-rule="evenodd" clip-rule="evenodd" d="M145.898 14.2313H144.758L144.785 13.7518C144.437 14.1296 143.974 14.3057 143.346 14.3057C142.602 14.3057 142.092 13.7953 142.092 13.0609C142.092 11.945 142.978 11.3011 144.501 11.3011C144.658 11.3011 144.856 11.3131 145.061 11.3354C145.104 11.1863 145.115 11.1224 145.115 11.0412C145.115 10.7349 144.875 10.6229 144.235 10.6229C143.602 10.6255 143.176 10.7196 142.781 10.8265L142.975 9.80224C143.659 9.62756 144.107 9.56006 144.614 9.56006C145.794 9.56006 146.417 10.0241 146.417 10.8967C146.427 11.1299 146.346 11.5963 146.305 11.8016C146.259 12.099 145.932 13.8241 145.898 14.2313ZM144.897 12.1948C144.753 12.1799 144.69 12.176 144.591 12.176C143.813 12.176 143.419 12.4081 143.419 12.8666C143.419 13.1552 143.611 13.3356 143.911 13.3356C144.47 13.3356 144.874 12.8659 144.897 12.1948Z" fill="white"/>
<path fill-rule="evenodd" clip-rule="evenodd" d="M156.756 14.1592C156.382 14.2622 156.09 14.3071 155.775 14.3071C155.076 14.3071 154.695 13.9485 154.695 13.3104C154.673 13.135 154.844 12.325 154.883 12.0993C154.921 11.873 155.526 8.57324 155.526 8.57324H156.883L156.678 9.66479H157.374L157.185 10.7791H156.486C156.486 10.7791 156.102 12.7133 156.102 12.8605C156.102 13.0957 156.244 13.1969 156.569 13.1969C156.724 13.1969 156.844 13.183 156.937 13.1548L156.756 14.1592Z" fill="white"/>
<path fill-rule="evenodd" clip-rule="evenodd" d="M163.507 11.56C163.507 12.5894 163.086 13.1987 162.422 13.1987C161.938 13.2056 161.644 12.7984 161.644 12.188C161.644 11.465 162.073 10.6476 162.761 10.6476C163.316 10.6476 163.507 11.0897 163.507 11.56ZM164.972 11.5888C164.972 10.4496 164.226 9.56006 162.821 9.56006C161.205 9.56006 160.16 10.6412 160.16 12.234C160.16 13.3739 160.776 14.3068 162.308 14.3068C163.853 14.3068 164.972 13.4783 164.972 11.5888Z" fill="white"/>
<path fill-rule="evenodd" clip-rule="evenodd" d="M157.965 9.66387C157.793 11.0764 157.487 12.5084 157.249 13.9236L157.191 14.2319H158.562C159.056 11.4985 159.222 10.7199 160.257 10.994L160.755 9.70076C160.033 9.43474 159.568 9.81471 159.148 10.3547C159.185 10.1117 159.257 9.877 159.24 9.66387H157.965Z" fill="white"/>
<path fill-rule="evenodd" clip-rule="evenodd" d="M141.452 14.2322H140.087L140.898 9.94115L139.03 14.2322H137.786L137.558 9.9662L136.744 14.2322H135.506L136.561 8.65039H138.694L138.807 12.106L140.309 8.65039H142.528L141.452 14.2322Z" fill="white"/>
<path fill-rule="evenodd" clip-rule="evenodd" d="M86.6209 11.7671C86.6209 17.6951 81.8157 22.5001 75.8878 22.5001C69.9598 22.5001 65.1543 17.6951 65.1543 11.7671C65.1543 5.83919 69.9598 1.03369 75.8878 1.03369C81.8157 1.03369 86.6209 5.83919 86.6209 11.7671Z" fill="#CC0000"/>
<path fill-rule="evenodd" clip-rule="evenodd" d="M90.297 1.03369C87.5231 1.03369 84.9964 2.08584 83.0912 3.81189C82.7037 4.16368 82.3419 4.54363 82.0079 4.94818H84.1765C84.4726 5.30879 84.7455 5.68789 84.9947 6.08497H81.1895C80.9618 6.44982 80.7549 6.82892 80.571 7.22176H85.6128C85.7851 7.58966 85.9368 7.9686 86.0674 8.35804H80.1164C79.9926 8.72815 79.8881 9.10742 79.8047 9.49415H86.3788C86.5362 10.2269 86.62 10.9871 86.62 11.7671C86.62 12.9586 86.4258 14.1056 86.0674 15.1768H80.1164C80.2471 15.5659 80.3987 15.9453 80.5707 16.3137H85.6128C85.4286 16.7055 85.2227 17.085 84.9937 17.4503H81.1895C81.4376 17.8462 81.711 18.2258 82.0079 18.5859H84.1758C83.8425 18.9908 83.4803 19.3708 83.0916 19.7226C84.9966 21.4486 87.5231 22.5001 90.297 22.5001C96.2247 22.5001 101.03 17.6951 101.03 11.7671C101.03 5.8397 96.2247 1.03369 90.297 1.03369Z" fill="#FF9900"/>
<path fill-rule="evenodd" clip-rule="evenodd" d="M73.3816 12.9423C73.2593 12.9284 73.2054 12.924 73.1214 12.924C72.4609 12.924 72.127 13.1506 72.127 13.5982C72.127 13.8738 72.29 14.0491 72.5444 14.0491C73.0192 14.0491 73.3613 13.5972 73.3816 12.9423ZM74.2292 14.9151C74.0738 14.9151 73.2634 14.9151 73.2634 14.9151L73.2856 14.4563C72.9912 14.8186 72.5982 14.9916 72.0644 14.9916C71.433 14.9916 71 14.4987 71 13.7824C71 12.7042 71.7529 12.0754 73.0456 12.0754C73.1781 12.0754 73.3474 12.0876 73.5207 12.1095C73.5567 11.9633 73.5662 11.9012 73.5662 11.8223C73.5662 11.5292 73.3633 11.4193 72.819 11.4193C72.2489 11.4135 71.7787 11.5555 71.5855 11.6189C71.5977 11.5453 71.7472 10.6231 71.7472 10.6231C72.3276 10.4524 72.7106 10.3887 73.1416 10.3887C74.1424 10.3887 74.6724 10.8378 74.6712 11.6869C74.6733 11.9147 74.6355 12.1948 74.5769 12.5642C74.4758 13.2054 74.2587 14.5805 74.2292 14.9151Z" fill="#000066"/>
<path fill-rule="evenodd" clip-rule="evenodd" d="M70.5125 14.915H69.3471L70.015 10.7301L68.5242 14.915H67.7303L67.632 10.7535L66.9305 14.915H65.8398L66.7509 9.4707H68.4265L68.5278 12.5181L69.5501 9.4707H71.4137L70.5125 14.915Z" fill="#000066"/>
<path fill-rule="evenodd" clip-rule="evenodd" d="M91.7384 12.9423C91.6161 12.9284 91.5628 12.924 91.479 12.924C90.818 12.924 90.4844 13.1506 90.4844 13.5982C90.4844 13.8738 90.6467 14.0491 90.9018 14.0491C91.3762 14.0491 91.7185 13.5972 91.7384 12.9423ZM92.5865 14.9151C92.4308 14.9151 91.621 14.9151 91.621 14.9151L91.6429 14.4563C91.3484 14.8186 90.9556 14.9916 90.4221 14.9916C89.79 14.9916 89.3574 14.4987 89.3574 13.7824C89.3574 12.7042 90.1107 12.0754 91.403 12.0754C91.5353 12.0754 91.7043 12.0876 91.8778 12.1095C91.9139 11.9633 91.9233 11.9012 91.9233 11.8223C91.9233 11.5292 91.7204 11.4193 91.1761 11.4193C90.606 11.4135 90.136 11.5555 89.9421 11.6189C89.955 11.5453 90.1048 10.6231 90.1048 10.6231C90.6849 10.4524 91.0682 10.3887 91.4985 10.3887C92.5 10.3887 93.0294 10.8378 93.0283 11.6869C93.0304 11.9147 92.9929 12.1948 92.934 12.5642C92.8333 13.2054 92.6156 14.5805 92.5865 14.9151Z" fill="#000066"/>
<path fill-rule="evenodd" clip-rule="evenodd" d="M79.4069 14.8478C79.0878 14.9482 78.8393 14.9916 78.5696 14.9916C77.9741 14.9916 77.649 14.6493 77.649 14.0189C77.6406 13.8231 77.7346 13.3083 77.8086 12.8388C77.8761 12.4251 78.314 9.81738 78.314 9.81738H79.472L79.3368 10.4876H80.0365L79.8786 11.5517H79.1765C79.042 12.3936 78.8502 13.4425 78.848 13.5816C78.848 13.8099 78.9698 13.9096 79.2471 13.9096C79.3799 13.9096 79.4827 13.8961 79.5612 13.8679L79.4069 14.8478Z" fill="#000066"/>
<path fill-rule="evenodd" clip-rule="evenodd" d="M82.9579 14.812C82.56 14.9336 82.1765 14.993 81.7696 14.9916C80.4728 14.9899 79.7969 14.3132 79.7969 13.0164C79.7969 11.5031 80.6567 10.3887 81.8242 10.3887C82.779 10.3887 83.3891 11.0125 83.3891 11.9906C83.3891 12.3157 83.3474 12.6326 83.2461 13.0797H80.9396C80.8617 13.722 81.2726 13.9895 81.9468 13.9895C82.3608 13.9895 82.735 13.904 83.1508 13.7112L82.9579 14.812ZM82.3069 12.1873C82.3135 12.0949 82.4295 11.3969 81.7675 11.3969C81.3991 11.3969 81.135 11.6781 81.028 12.1873H82.3069Z" fill="#000066"/>
<path fill-rule="evenodd" clip-rule="evenodd" d="M74.9275 11.8874C74.9275 12.447 75.1989 12.8332 75.8146 13.1235C76.2863 13.3455 76.3598 13.4111 76.3598 13.6121C76.3598 13.8878 76.1515 14.0129 75.6906 14.0129C75.3427 14.0129 75.0194 13.9583 74.6464 13.8377C74.6464 13.8377 74.4936 14.8141 74.4863 14.8607C74.7511 14.918 74.9872 14.9715 75.6989 14.9916C76.9283 14.9916 77.4962 14.5235 77.4962 13.5117C77.4962 12.9035 77.2588 12.5464 76.6749 12.2777C76.1866 12.0537 76.1301 12.0035 76.1301 11.7969C76.1301 11.5575 76.324 11.4352 76.7004 11.4352C76.9292 11.4352 77.2415 11.4597 77.5378 11.5015L77.7035 10.4747C77.4019 10.4267 76.9443 10.3887 76.678 10.3887C75.3746 10.3887 74.9233 11.0694 74.9275 11.8874Z" fill="#000066"/>
<path fill-rule="evenodd" clip-rule="evenodd" d="M88.6264 10.5052C88.9501 10.5052 89.2523 10.5893 89.6677 10.7992L89.8586 9.6176C89.6872 9.55043 89.0866 9.15674 88.5778 9.15674C87.7982 9.15674 87.1384 9.54415 86.6751 10.1821C85.9987 9.95819 85.7203 10.4107 85.3797 10.8619L85.077 10.9325C85.0999 10.7841 85.1207 10.6367 85.1141 10.4872H84.0435C83.8976 11.8579 83.6386 13.2458 83.4359 14.617L83.3828 14.9148H84.5486C84.7432 13.6505 84.8495 12.8412 84.9143 12.293L85.3533 12.0498C85.4193 11.8054 85.624 11.7233 86.0358 11.7333C85.9821 12.022 85.9529 12.3261 85.9529 12.6407C85.9529 14.0895 86.7355 14.9913 87.9893 14.9913C88.3125 14.9913 88.59 14.9489 89.0196 14.8319L89.2238 13.5913C88.8374 13.7811 88.5211 13.8705 88.2343 13.8705C87.5568 13.8705 87.1468 13.3703 87.1468 12.544C87.1468 11.345 87.7561 10.5052 88.6264 10.5052Z" fill="#000066"/>
<path fill-rule="evenodd" clip-rule="evenodd" d="M98.4918 9.4707L98.2328 11.0436C97.9148 10.6245 97.5725 10.3208 97.1206 10.3208C96.5327 10.3208 95.9976 10.7666 95.6471 11.423C95.1591 11.3218 94.6549 11.1496 94.6549 11.1496L94.6545 11.1538C94.6934 10.787 94.7098 10.5637 94.7059 10.4874H93.6354C93.4901 11.8581 93.2307 13.2459 93.0282 14.6171L92.9746 14.915H94.1407C94.2982 13.8932 94.4184 13.0437 94.5071 12.371C94.9057 12.0108 95.1052 11.6975 95.507 11.7178C95.3288 12.149 95.2248 12.6453 95.2248 13.1545C95.2248 14.2609 95.7842 14.9915 96.6316 14.9915C97.0587 14.9915 97.3864 14.8441 97.706 14.5028L97.651 14.9146H98.7536L99.6412 9.4707H98.4918ZM97.0346 13.8922C96.6381 13.8922 96.4372 13.5981 96.4372 13.0193C96.4372 12.149 96.8126 11.5321 97.341 11.5321C97.7414 11.5321 97.9585 11.8367 97.9585 12.3992C97.9585 13.277 97.5769 13.8922 97.0346 13.8922Z" fill="#000066"/>
<path fill-rule="evenodd" clip-rule="evenodd" d="M70.8463 14.5917H69.6812L70.349 10.4069L68.8586 14.5917H68.0642L67.9662 10.4311L67.2645 14.5917H66.1738L67.0849 9.14795H68.7605L68.8073 12.518L69.938 9.14795H71.7477L70.8463 14.5917Z" fill="white"/>
<path fill-rule="evenodd" clip-rule="evenodd" d="M73.7174 12.6197C73.5953 12.6055 73.5413 12.6016 73.4574 12.6016C72.7969 12.6016 72.4627 12.8279 72.4627 13.2751C72.4627 13.5504 72.6259 13.7267 72.8805 13.7267C73.3551 13.7267 73.6972 13.2748 73.7174 12.6197ZM74.5648 14.5919C74.4096 14.5919 73.5995 14.5919 73.5995 14.5919L73.6216 14.1334C73.3271 14.4956 72.9341 14.6687 72.4003 14.6687C71.7688 14.6687 71.3359 14.1751 71.3359 13.459C71.3359 12.3806 72.089 11.7526 73.3817 11.7526C73.5139 11.7526 73.6831 11.7647 73.8567 11.7871C73.8926 11.6405 73.9021 11.5783 73.9021 11.4991C73.9021 11.2061 73.6992 11.0971 73.1549 11.0971C72.5847 11.0903 72.1147 11.2322 71.9213 11.2955C71.9337 11.2222 72.0829 10.3 72.0829 10.3C72.6636 10.1297 73.0466 10.0654 73.4776 10.0654C74.4781 10.0654 75.008 10.5151 75.0072 11.3639C75.0091 11.5913 74.9716 11.8727 74.9129 12.2411C74.8116 12.8818 74.5945 14.2578 74.5648 14.5919Z" fill="white"/>
<path fill-rule="evenodd" clip-rule="evenodd" d="M90.1923 9.29447L90.0014 10.4759C89.5854 10.2667 89.284 10.1821 88.9607 10.1821C88.0907 10.1821 87.4804 11.0229 87.4804 12.2221C87.4804 13.0483 87.8905 13.5475 88.568 13.5475C88.855 13.5475 89.172 13.4588 89.5575 13.2683L89.3528 14.5089C88.9238 14.6258 88.6462 14.6685 88.3232 14.6685C87.0685 14.6685 86.2871 13.7665 86.2871 12.3181C86.2871 10.3719 87.3674 9.01172 88.9116 9.01172C89.4205 9.01172 90.0215 9.22731 90.1923 9.29447Z" fill="white"/>
<path fill-rule="evenodd" clip-rule="evenodd" d="M92.072 12.6197C91.9506 12.6055 91.8965 12.6016 91.8127 12.6016C91.1525 12.6016 90.8182 12.8279 90.8182 13.2751C90.8182 13.5504 90.9812 13.7267 91.2356 13.7267C91.7101 13.7267 92.0525 13.2748 92.072 12.6197ZM92.9201 14.5919C92.7651 14.5919 91.9548 14.5919 91.9548 14.5919L91.9767 14.1334C91.6822 14.4956 91.2892 14.6687 90.7559 14.6687C90.1238 14.6687 89.6914 14.1751 89.6914 13.459C89.6914 12.3806 90.4438 11.7526 91.7369 11.7526C91.869 11.7526 92.0379 11.7647 92.2113 11.7871C92.2474 11.6405 92.2569 11.5783 92.2569 11.4991C92.2569 11.2061 92.0545 11.0971 91.5099 11.0971C90.9401 11.0903 90.4703 11.2322 90.2766 11.2955C90.2888 11.2222 90.4382 10.3 90.4382 10.3C91.0189 10.1297 91.4015 10.0654 91.8325 10.0654C92.8331 10.0654 93.3635 10.5151 93.3621 11.3639C93.3645 11.5913 93.3267 11.8727 93.268 12.2411C93.1671 12.8818 92.95 14.2578 92.9201 14.5919Z" fill="white"/>
<path fill-rule="evenodd" clip-rule="evenodd" d="M79.7428 14.5247C79.4241 14.6251 79.1753 14.6687 78.9059 14.6687C78.3102 14.6687 77.9849 14.3262 77.9849 13.6964C77.9767 13.5 78.0709 12.9861 78.145 12.5161C78.212 12.102 78.6501 9.49463 78.6501 9.49463H79.8085L79.6729 10.1646H80.2676L80.1092 11.2285H79.5126C79.3781 12.0712 79.1863 13.1194 79.1839 13.2585C79.1839 13.4875 79.3062 13.5865 79.5832 13.5865C79.716 13.5865 79.8186 13.5735 79.8975 13.5446L79.7428 14.5247Z" fill="white"/>
<path fill-rule="evenodd" clip-rule="evenodd" d="M83.294 14.4896C82.8959 14.6116 82.5116 14.6691 82.1052 14.6687C80.8082 14.6679 80.1328 13.9903 80.1328 12.6937C80.1328 11.1798 80.9924 10.0654 82.1591 10.0654C83.1149 10.0654 83.7247 10.6893 83.7247 11.6685C83.7247 11.993 83.6823 12.3097 83.5822 12.757H81.2754C81.1972 13.3993 81.6085 13.6673 82.2821 13.6673C82.6964 13.6673 83.0705 13.5815 83.4867 13.3881L83.294 14.4896ZM82.6428 11.8641C82.6491 11.7715 82.7657 11.0738 82.1038 11.0738C81.735 11.0738 81.4709 11.3556 81.3636 11.8641H82.6428Z" fill="white"/>
<path fill-rule="evenodd" clip-rule="evenodd" d="M75.2631 11.5642C75.2631 12.1248 75.5348 12.5102 76.1507 12.8007C76.6224 13.0226 76.6955 13.0882 76.6955 13.2894C76.6955 13.5654 76.4874 13.6899 76.0262 13.6899C75.6787 13.6899 75.3552 13.6359 74.982 13.5157C74.982 13.5157 74.8294 14.4913 74.8223 14.5373C75.0869 14.5953 75.3232 14.6482 76.0345 14.6687C77.2643 14.6687 77.8322 14.2008 77.8322 13.189C77.8322 12.5804 77.5944 12.2235 77.0107 11.9555C76.5222 11.7308 76.4661 11.6811 76.4661 11.4741C76.4661 11.2348 76.6598 11.1116 77.0365 11.1116C77.2648 11.1116 77.5774 11.1371 77.8736 11.1788L78.0394 10.1521C77.7377 10.1044 77.2804 10.0654 77.0139 10.0654C75.7102 10.0654 75.2592 10.7463 75.2631 11.5642Z" fill="white"/>
<path fill-rule="evenodd" clip-rule="evenodd" d="M99.0875 14.5917H97.9853L98.04 14.1797C97.7202 14.5212 97.3927 14.6686 96.9656 14.6686C96.1188 14.6686 95.5586 13.9389 95.5586 12.8312C95.5586 11.3586 96.4272 10.1173 97.4546 10.1173C97.9065 10.1173 98.2486 10.3019 98.5673 10.7212L98.8258 9.14795H99.975L99.0875 14.5917ZM97.3684 13.5687C97.9114 13.5687 98.2924 12.9539 98.2924 12.0769C98.2924 11.5143 98.0754 11.2087 97.6749 11.2087C97.1464 11.2087 96.7712 11.8257 96.7712 12.6964C96.7712 13.2758 96.9722 13.5687 97.3684 13.5687Z" fill="white"/>
<path fill-rule="evenodd" clip-rule="evenodd" d="M93.9712 10.1647C93.8255 11.5351 93.5663 12.9229 93.3636 14.2943L93.3105 14.592H94.476C94.8929 11.8845 94.9932 11.3561 95.6472 11.4221C95.7512 10.868 95.9451 10.3827 96.0894 10.1381C95.6014 10.0363 95.3289 10.3121 94.9716 10.8362C95.0001 10.6095 95.0515 10.3895 95.0419 10.1647H93.9712Z" fill="white"/>
<path fill-rule="evenodd" clip-rule="evenodd" d="M84.378 10.1647C84.2316 11.5351 83.9721 12.9229 83.7697 14.2943L83.7168 14.592H84.8826C85.2997 11.8845 85.3996 11.3561 86.0526 11.4221C86.1573 10.868 86.3515 10.3827 86.4955 10.1381C86.008 10.0363 85.7349 10.3121 85.3784 10.8362C85.4065 10.6095 85.4583 10.3895 85.4481 10.1647H84.378Z" fill="white"/>
<path fill-rule="evenodd" clip-rule="evenodd" d="M11.8203 16.751L13.5114 6.26025H16.2146L14.5236 16.751H11.8203Z" fill="#26337A"/>
<path fill-rule="evenodd" clip-rule="evenodd" d="M24.328 6.51779C23.7935 6.30724 22.9529 6.07764 21.9058 6.07764C19.2332 6.07764 17.3519 7.50128 17.3363 9.53985C17.3193 11.0478 18.6788 11.8887 19.7037 12.3899C20.757 12.9037 21.1109 13.2324 21.1067 13.6918C21.0995 14.3944 20.266 14.7164 19.4888 14.7164C18.4065 14.7164 17.8315 14.5579 16.9425 14.1662L16.5948 13.9992L16.2168 16.3475C16.8471 16.6397 18.0157 16.8933 19.2284 16.9066C22.0687 16.9066 23.9143 15.5001 23.9359 13.3232C23.9457 12.1275 23.2253 11.2211 21.6653 10.4728C20.7207 9.98636 20.1409 9.6641 20.1476 9.17174C20.1482 8.73576 20.6374 8.26896 21.6961 8.26896C22.5803 8.25471 23.2204 8.4589 23.7192 8.67209L23.9619 8.792L24.328 6.51779Z" fill="#26337A"/>
<path fill-rule="evenodd" clip-rule="evenodd" d="M27.9276 13.0317C28.1516 12.4287 29.0044 10.0993 29.0044 10.0993C28.9887 10.127 29.2272 9.49167 29.3637 9.09846L29.5462 10.0032C29.5462 10.0032 30.0649 12.5072 30.1717 13.0317C29.7509 13.0317 28.4554 13.0317 27.9276 13.0317ZM31.2625 6.271H29.1734C28.5255 6.271 28.0405 6.4566 27.7566 7.14062L23.7422 16.7548H26.5814C26.5814 16.7548 27.0446 15.4614 27.1498 15.1776C27.4594 15.1776 30.2183 15.183 30.6121 15.183C30.6931 15.5491 30.9412 16.7548 30.9412 16.7548H33.4502L31.2625 6.271Z" fill="#26337A"/>
<path fill-rule="evenodd" clip-rule="evenodd" d="M9.55077 6.26904L6.90496 13.4212L6.62157 11.9674C6.12852 10.2923 4.59372 8.47663 2.87695 7.56689L5.2975 16.7418L8.15837 16.7401L12.4154 6.26904H9.55077Z" fill="#26337A"/>
<path fill-rule="evenodd" clip-rule="evenodd" d="M4.44974 6.26221H0.0905566L0.0546875 6.47957C3.44664 7.34857 5.69093 9.44616 6.62245 11.9676L5.67516 7.14732C5.51174 6.48252 5.03679 6.28545 4.44974 6.26221Z" fill="#EC982D"/>
</svg>
