<svg width="254" height="134" viewBox="0 0 254 134" fill="none" xmlns="http://www.w3.org/2000/svg">
<path fill-rule="evenodd" clip-rule="evenodd" d="M192.426 91.8579C192.682 91.8579 192.915 92.0113 193.016 92.2479L209.399 130.955L236.031 16.3701L1.60864 11.8469L38.3367 99.4887L192.394 91.8579C192.405 91.8579 192.416 91.8579 192.426 91.8579ZM209.575 133.654C209.321 133.654 209.087 133.502 208.985 133.264L192.012 93.1585L37.9516 100.788C37.6945 100.807 37.4348 100.646 37.33 100.397L0.0493073 11.4351C-0.0338399 11.2356 -0.0108145 11.0079 0.110708 10.8289C0.230952 10.6499 0.433064 10.536 0.651805 10.5488L236.846 15.1066C237.038 15.1105 237.22 15.2013 237.337 15.3535C237.456 15.5056 237.5 15.7026 237.455 15.8906L210.198 133.159C210.135 133.429 209.906 133.629 209.63 133.652C209.612 133.654 209.593 133.654 209.575 133.654Z" fill="#2E2E2E"/>
<mask id="mask0" mask-type="alpha" maskUnits="userSpaceOnUse" x="12" y="1" width="237" height="122">
<path fill-rule="evenodd" clip-rule="evenodd" d="M12.3965 1H248.591V122.826H12.3965V1Z" fill="white"/>
</mask>
<g mask="url(#mask0)">
<path fill-rule="evenodd" clip-rule="evenodd" d="M49.6771 89.9609L12.3965 0.999268L248.591 5.55708L221.333 122.826L204.184 82.3083L49.6771 89.9609Z" fill="#FEB53E"/>
</g>
<path d="M97.9699 50.1355V33.073H103.946C106.017 33.073 107.587 33.4714 108.657 34.2683C109.728 35.0574 110.263 36.2175 110.263 37.7488C110.263 38.5847 110.048 39.323 109.618 39.9636C109.189 40.5964 108.591 41.0613 107.825 41.3582C108.7 41.5769 109.388 42.0183 109.888 42.6824C110.396 43.3464 110.65 44.1589 110.65 45.1199C110.65 46.7605 110.126 48.0027 109.079 48.8464C108.032 49.6902 106.54 50.1199 104.603 50.1355H97.9699ZM101.486 42.7058V47.3113H104.497C105.325 47.3113 105.97 47.116 106.431 46.7253C106.9 46.3269 107.134 45.78 107.134 45.0847C107.134 43.5222 106.325 42.7292 104.708 42.7058H101.486ZM101.486 40.2214H104.087C105.861 40.1902 106.747 39.4832 106.747 38.1003C106.747 37.3269 106.521 36.7722 106.068 36.4363C105.622 36.0925 104.915 35.9207 103.946 35.9207H101.486V40.2214ZM116.65 50.1355H113.251V37.4558H116.65V50.1355ZM113.052 34.1746C113.052 33.6667 113.22 33.2488 113.556 32.9207C113.9 32.5925 114.364 32.4285 114.95 32.4285C115.529 32.4285 115.989 32.5925 116.333 32.9207C116.677 33.2488 116.849 33.6667 116.849 34.1746C116.849 34.6902 116.673 35.1121 116.321 35.4402C115.978 35.7683 115.521 35.9324 114.95 35.9324C114.38 35.9324 113.919 35.7683 113.568 35.4402C113.224 35.1121 113.052 34.6902 113.052 34.1746ZM118.958 43.7019C118.958 41.7566 119.419 40.1902 120.341 39.0027C121.271 37.8152 122.521 37.2214 124.091 37.2214C125.482 37.2214 126.564 37.698 127.337 38.6511L127.478 37.4558H130.548V49.7136C130.548 50.823 130.294 51.7878 129.786 52.6082C129.286 53.4285 128.579 54.0535 127.665 54.4832C126.751 54.9128 125.681 55.1277 124.454 55.1277C123.525 55.1277 122.618 54.9402 121.736 54.5652C120.853 54.198 120.185 53.7214 119.732 53.1355L121.232 51.073C122.075 52.0183 123.099 52.491 124.302 52.491C125.2 52.491 125.9 52.2488 126.4 51.7644C126.9 51.2878 127.15 50.6082 127.15 49.7253V49.0457C126.368 49.9285 125.341 50.3699 124.068 50.3699C122.544 50.3699 121.31 49.7761 120.364 48.5886C119.427 47.3933 118.958 45.8113 118.958 43.8425V43.7019ZM122.345 43.948C122.345 45.0964 122.575 45.9988 123.036 46.655C123.497 47.3035 124.13 47.6277 124.935 47.6277C125.966 47.6277 126.704 47.241 127.15 46.4675V41.1355C126.696 40.3621 125.966 39.9753 124.958 39.9753C124.146 39.9753 123.505 40.3074 123.036 40.9714C122.575 41.6355 122.345 42.6277 122.345 43.948ZM146.005 46.6316C146.005 46.2175 145.798 45.8933 145.384 45.6589C144.978 45.4167 144.321 45.2019 143.415 45.0144C140.4 44.3816 138.892 43.1003 138.892 41.1707C138.892 40.0457 139.357 39.1082 140.286 38.3582C141.224 37.6003 142.446 37.2214 143.954 37.2214C145.564 37.2214 146.849 37.6003 147.81 38.3582C148.779 39.116 149.263 40.1003 149.263 41.3113H145.876C145.876 40.8269 145.72 40.4285 145.407 40.116C145.095 39.7957 144.607 39.6355 143.943 39.6355C143.372 39.6355 142.931 39.7644 142.618 40.0222C142.306 40.28 142.15 40.6082 142.15 41.0066C142.15 41.3816 142.325 41.6863 142.677 41.9207C143.036 42.1472 143.638 42.3464 144.482 42.5183C145.325 42.6824 146.036 42.8699 146.614 43.0808C148.404 43.7371 149.298 44.8738 149.298 46.491C149.298 47.6472 148.802 48.5847 147.81 49.3035C146.818 50.0144 145.536 50.3699 143.966 50.3699C142.904 50.3699 141.958 50.1824 141.13 49.8074C140.31 49.4246 139.665 48.905 139.196 48.2488C138.728 47.5847 138.493 46.8699 138.493 46.1042H141.704C141.736 46.7058 141.958 47.1667 142.372 47.4871C142.786 47.8074 143.341 47.9675 144.036 47.9675C144.685 47.9675 145.173 47.8464 145.501 47.6042C145.837 47.3542 146.005 47.03 146.005 46.6316ZM158.837 50.1355C158.681 49.8308 158.568 49.4519 158.497 48.9988C157.677 49.9128 156.611 50.3699 155.298 50.3699C154.056 50.3699 153.025 50.0105 152.204 49.2917C151.392 48.573 150.986 47.6667 150.986 46.573C150.986 45.2292 151.482 44.198 152.474 43.4792C153.474 42.7605 154.915 42.3972 156.798 42.3894H158.357V41.6628C158.357 41.0769 158.204 40.6082 157.9 40.2566C157.603 39.905 157.13 39.7292 156.482 39.7292C155.911 39.7292 155.462 39.866 155.134 40.1394C154.814 40.4128 154.654 40.7878 154.654 41.2644H151.267C151.267 40.53 151.493 39.8503 151.946 39.2253C152.4 38.6003 153.04 38.1121 153.868 37.7605C154.696 37.4011 155.626 37.2214 156.657 37.2214C158.22 37.2214 159.458 37.616 160.372 38.405C161.294 39.1863 161.755 40.2878 161.755 41.7097V47.2058C161.763 48.4089 161.931 49.3191 162.259 49.9363V50.1355H158.837ZM156.036 47.78C156.536 47.78 156.997 47.6707 157.419 47.4519C157.841 47.2253 158.154 46.9246 158.357 46.5496V44.3699H157.091C155.396 44.3699 154.493 44.9558 154.384 46.1277L154.372 46.3269C154.372 46.7488 154.521 47.0964 154.818 47.3699C155.114 47.6433 155.521 47.78 156.036 47.78ZM167.931 50.1355H164.532V32.1355H167.931V50.1355ZM176.568 50.3699C174.708 50.3699 173.193 49.7996 172.021 48.6589C170.857 47.5183 170.275 45.9988 170.275 44.1003V43.7722C170.275 42.4988 170.521 41.3621 171.013 40.3621C171.505 39.3542 172.2 38.5808 173.099 38.0417C174.005 37.4949 175.036 37.2214 176.193 37.2214C177.927 37.2214 179.29 37.7683 180.282 38.8621C181.282 39.9558 181.782 41.5066 181.782 43.5144V44.8972H173.708C173.818 45.7253 174.146 46.3894 174.693 46.8894C175.247 47.3894 175.946 47.6394 176.79 47.6394C178.095 47.6394 179.114 47.1667 179.849 46.2214L181.513 48.0847C181.005 48.8035 180.318 49.366 179.45 49.7722C178.583 50.1707 177.622 50.3699 176.568 50.3699ZM176.181 39.9636C175.509 39.9636 174.962 40.1902 174.54 40.6433C174.126 41.0964 173.861 41.7449 173.743 42.5886H178.454V42.3191C178.439 41.5691 178.236 40.991 177.845 40.5847C177.454 40.1707 176.9 39.9636 176.181 39.9636Z" fill="white"/>
<mask id="mask1" mask-type="alpha" maskUnits="userSpaceOnUse" x="238" y="56" width="15" height="17">
<path fill-rule="evenodd" clip-rule="evenodd" d="M238.178 56.5974H252V72.3563H238.178V56.5974Z" fill="white"/>
</mask>
<g mask="url(#mask1)">
<path fill-rule="evenodd" clip-rule="evenodd" d="M240.097 64.4761L250.721 70.6094V58.3453L240.097 64.4761ZM251.361 72.3563C251.25 72.3563 251.14 72.3282 251.041 72.2706L238.498 65.0298C238.301 64.916 238.178 64.705 238.178 64.4761C238.178 64.2472 238.301 64.0361 238.498 63.9223L251.041 56.6828C251.238 56.569 251.483 56.569 251.681 56.6828C251.879 56.7979 252.001 57.0089 252.001 57.2365V71.7169C252.001 71.9458 251.879 72.1568 251.681 72.2706C251.582 72.3282 251.472 72.3563 251.361 72.3563Z" fill="#2E2E2E"/>
</g>
<path fill-rule="evenodd" clip-rule="evenodd" d="M54.6441 79.5414H54.639C52.9172 79.5401 51.3105 78.8125 50.1119 77.4901C49.1538 76.4402 47.8785 75.8609 46.5212 75.8609C45.1653 75.8609 43.8912 76.4402 42.9318 77.4914C41.7268 78.8137 40.1189 79.5414 38.3971 79.5414H38.3958C36.6753 79.5414 35.0648 78.8137 33.8624 77.4914C33.6245 77.2305 33.6449 76.8251 33.9059 76.5873C34.1668 76.3507 34.5723 76.3711 34.809 76.6307C35.7658 77.6832 37.0399 78.2626 38.3958 78.2626H38.3971C39.7531 78.2626 41.0271 77.6832 41.9852 76.6307C43.189 75.3097 44.8007 74.582 46.5212 74.582C48.243 74.582 49.8548 75.3097 51.0572 76.6307C52.0115 77.682 53.2843 78.2613 54.639 78.2626H54.6441C56.0013 78.2626 57.2754 77.6832 58.2348 76.6307C58.4727 76.3711 58.8782 76.3507 59.1379 76.5885C59.3988 76.8264 59.418 77.2305 59.1801 77.4914C57.9764 78.8137 56.3659 79.5414 54.6441 79.5414Z" fill="#2E2E2E"/>
<path fill-rule="evenodd" clip-rule="evenodd" d="M54.6439 85.9804H54.6388C52.917 85.9791 51.3103 85.2501 50.1117 83.9291C49.1536 82.8792 47.8783 82.2998 46.521 82.2998C45.1651 82.2998 43.891 82.8792 42.9316 83.9304C41.7266 85.2527 40.1187 85.9804 38.3969 85.9804H38.3956C36.6751 85.9804 35.0659 85.2514 33.8635 83.9304C33.6243 83.6695 33.6447 83.2641 33.9057 83.0275C34.1666 82.7896 34.5721 82.8088 34.8088 83.0697C35.7656 84.1209 37.0397 84.7015 38.3956 84.7015H38.3969C39.7529 84.7015 41.0269 84.1222 41.985 83.0697C43.1888 81.7487 44.8005 81.021 46.521 81.021C48.2428 81.021 49.8546 81.7487 51.057 83.0697C52.0113 84.1209 53.2841 84.7002 54.6388 84.7015H54.6439C56.0011 84.7015 57.2752 84.1222 58.2346 83.0697C58.4725 82.8088 58.878 82.7896 59.1377 83.0275C59.3986 83.2654 59.4178 83.6695 59.1799 83.9304C57.9762 85.2527 56.3657 85.9804 54.6439 85.9804Z" fill="#2E2E2E"/>
<path fill-rule="evenodd" clip-rule="evenodd" d="M14.2869 17.679C12.3975 17.679 10.8612 19.2149 10.8612 21.1025C10.8612 22.99 12.3975 24.5259 14.2869 24.5259C16.175 24.5259 17.7113 22.99 17.7113 21.1025C17.7113 19.2149 16.175 17.679 14.2869 17.679ZM14.2869 25.8048C11.694 25.8048 9.58203 23.696 9.58203 21.1025C9.58203 18.509 11.694 16.4001 14.2869 16.4001C16.8798 16.4001 18.9905 18.509 18.9905 21.1025C18.9905 23.696 16.8798 25.8048 14.2869 25.8048Z" fill="#2E2E2E"/>
<path fill-rule="evenodd" clip-rule="evenodd" d="M208.447 101.107C207.306 101.107 206.379 102.035 206.379 103.176C206.379 104.316 207.306 105.244 208.447 105.244C209.59 105.244 210.518 104.316 210.518 103.176C210.518 102.035 209.59 101.107 208.447 101.107ZM208.447 106.523C206.601 106.523 205.1 105.022 205.1 103.176C205.1 101.329 206.601 99.8281 208.447 99.8281C210.294 99.8281 211.797 101.329 211.797 103.176C211.797 105.022 210.294 106.523 208.447 106.523Z" fill="#2E2E2E"/>
</svg>
